<mxfile host="app.diagrams.net" modified="2023-06-13T05:44:41.322Z" agent="Mozilla/5.0 (Windows NT 10.0; Win64; x64) AppleWebKit/537.36 (KHTML, like Gecko) Chrome/114.0.0.0 Safari/537.36 Edg/114.0.1823.43" etag="_Ev5B-wkMbzzc1yFS2hI" version="21.3.8" type="github">
  <diagram name="第 1 页" id="RcuNdlHDXZPaqMJl9dOt">
    <mxGraphModel dx="2506" dy="2065" grid="1" gridSize="10" guides="1" tooltips="1" connect="1" arrows="1" fold="1" page="1" pageScale="1" pageWidth="827" pageHeight="1169" math="0" shadow="0">
      <root>
        <mxCell id="0" />
        <mxCell id="1" parent="0" />
        <mxCell id="jwdTjVKlBSezz26rAJ9t-45" value="开始推演" style="edgeStyle=orthogonalEdgeStyle;rounded=0;orthogonalLoop=1;jettySize=auto;html=1;" parent="1" source="jwdTjVKlBSezz26rAJ9t-2" target="jwdTjVKlBSezz26rAJ9t-44" edge="1">
          <mxGeometry relative="1" as="geometry" />
        </mxCell>
        <mxCell id="jwdTjVKlBSezz26rAJ9t-2" value="沙盘平台Round" style="rounded=0;whiteSpace=wrap;html=1;fillColor=none;fontStyle=1" parent="1" vertex="1">
          <mxGeometry x="90" y="287.5" width="100" height="50" as="geometry" />
        </mxCell>
        <mxCell id="jwdTjVKlBSezz26rAJ9t-8" value="" style="edgeStyle=orthogonalEdgeStyle;rounded=0;orthogonalLoop=1;jettySize=auto;html=1;entryX=0.385;entryY=-0.016;entryDx=0;entryDy=0;entryPerimeter=0;" parent="1" source="jwdTjVKlBSezz26rAJ9t-5" target="jwdTjVKlBSezz26rAJ9t-37" edge="1">
          <mxGeometry relative="1" as="geometry">
            <mxPoint x="740" y="390.0000000000001" as="targetPoint" />
          </mxGeometry>
        </mxCell>
        <mxCell id="jwdTjVKlBSezz26rAJ9t-9" value="计算调整（多次）" style="edgeLabel;html=1;align=center;verticalAlign=middle;resizable=0;points=[];" parent="jwdTjVKlBSezz26rAJ9t-8" vertex="1" connectable="0">
          <mxGeometry x="-0.2051" y="1" relative="1" as="geometry">
            <mxPoint as="offset" />
          </mxGeometry>
        </mxCell>
        <mxCell id="jwdTjVKlBSezz26rAJ9t-21" value="" style="edgeStyle=orthogonalEdgeStyle;rounded=0;orthogonalLoop=1;jettySize=auto;html=1;entryX=0;entryY=0.5;entryDx=0;entryDy=0;entryPerimeter=0;" parent="1" source="jwdTjVKlBSezz26rAJ9t-5" target="jwdTjVKlBSezz26rAJ9t-36" edge="1">
          <mxGeometry relative="1" as="geometry">
            <mxPoint x="910" y="315" as="targetPoint" />
          </mxGeometry>
        </mxCell>
        <mxCell id="jwdTjVKlBSezz26rAJ9t-23" value="发版" style="edgeLabel;html=1;align=center;verticalAlign=middle;resizable=0;points=[];" parent="jwdTjVKlBSezz26rAJ9t-21" vertex="1" connectable="0">
          <mxGeometry x="-0.1714" relative="1" as="geometry">
            <mxPoint as="offset" />
          </mxGeometry>
        </mxCell>
        <mxCell id="jwdTjVKlBSezz26rAJ9t-5" value="沙盘推演" style="rounded=0;whiteSpace=wrap;html=1;fillColor=none;fontStyle=1" parent="1" vertex="1">
          <mxGeometry x="690" y="290" width="100" height="50" as="geometry" />
        </mxCell>
        <mxCell id="jwdTjVKlBSezz26rAJ9t-11" value="" style="edgeStyle=orthogonalEdgeStyle;rounded=0;orthogonalLoop=1;jettySize=auto;html=1;exitX=0.385;exitY=1.017;exitDx=0;exitDy=0;exitPerimeter=0;" parent="1" source="jwdTjVKlBSezz26rAJ9t-37" target="jwdTjVKlBSezz26rAJ9t-10" edge="1">
          <mxGeometry relative="1" as="geometry">
            <mxPoint x="740" y="470" as="sourcePoint" />
          </mxGeometry>
        </mxCell>
        <mxCell id="jwdTjVKlBSezz26rAJ9t-13" value="取消" style="edgeStyle=orthogonalEdgeStyle;rounded=0;orthogonalLoop=1;jettySize=auto;html=1;entryX=0;entryY=0.5;entryDx=0;entryDy=0;" parent="1" source="jwdTjVKlBSezz26rAJ9t-10" target="jwdTjVKlBSezz26rAJ9t-52" edge="1">
          <mxGeometry relative="1" as="geometry">
            <mxPoint x="870" y="580" as="targetPoint" />
          </mxGeometry>
        </mxCell>
        <mxCell id="jwdTjVKlBSezz26rAJ9t-15" value="保存" style="edgeStyle=orthogonalEdgeStyle;rounded=0;orthogonalLoop=1;jettySize=auto;html=1;" parent="1" source="jwdTjVKlBSezz26rAJ9t-10" edge="1">
          <mxGeometry relative="1" as="geometry">
            <mxPoint x="740" y="700" as="targetPoint" />
          </mxGeometry>
        </mxCell>
        <mxCell id="jwdTjVKlBSezz26rAJ9t-10" value="用户操作" style="rhombus;whiteSpace=wrap;html=1;rounded=0;" parent="1" vertex="1">
          <mxGeometry x="680" y="555" width="120" height="50" as="geometry" />
        </mxCell>
        <mxCell id="jwdTjVKlBSezz26rAJ9t-19" style="edgeStyle=orthogonalEdgeStyle;rounded=0;orthogonalLoop=1;jettySize=auto;html=1;entryX=0.5;entryY=1;entryDx=0;entryDy=0;entryPerimeter=0;" parent="1" target="jwdTjVKlBSezz26rAJ9t-35" edge="1">
          <mxGeometry relative="1" as="geometry">
            <mxPoint x="540" y="355" as="targetPoint" />
            <mxPoint x="680" y="730" as="sourcePoint" />
          </mxGeometry>
        </mxCell>
        <mxCell id="jwdTjVKlBSezz26rAJ9t-29" value="" style="edgeStyle=orthogonalEdgeStyle;rounded=0;orthogonalLoop=1;jettySize=auto;html=1;entryX=0;entryY=0.5;entryDx=0;entryDy=0;exitX=1.017;exitY=0.6;exitDx=0;exitDy=0;exitPerimeter=0;" parent="1" source="jwdTjVKlBSezz26rAJ9t-32" target="jwdTjVKlBSezz26rAJ9t-2" edge="1">
          <mxGeometry relative="1" as="geometry">
            <mxPoint x="-30" y="312.5" as="sourcePoint" />
            <mxPoint y="312.5000000000001" as="targetPoint" />
          </mxGeometry>
        </mxCell>
        <mxCell id="jwdTjVKlBSezz26rAJ9t-30" value="生成Round记录" style="edgeLabel;html=1;align=center;verticalAlign=middle;resizable=0;points=[];" parent="jwdTjVKlBSezz26rAJ9t-29" vertex="1" connectable="0">
          <mxGeometry x="-0.3816" y="-3" relative="1" as="geometry">
            <mxPoint x="23" y="-3" as="offset" />
          </mxGeometry>
        </mxCell>
        <mxCell id="jwdTjVKlBSezz26rAJ9t-33" value="" style="edgeStyle=orthogonalEdgeStyle;rounded=0;orthogonalLoop=1;jettySize=auto;html=1;entryX=-0.033;entryY=0.61;entryDx=0;entryDy=0;entryPerimeter=0;" parent="1" source="jwdTjVKlBSezz26rAJ9t-31" target="jwdTjVKlBSezz26rAJ9t-32" edge="1">
          <mxGeometry relative="1" as="geometry" />
        </mxCell>
        <mxCell id="jwdTjVKlBSezz26rAJ9t-34" value="Excel导入" style="edgeLabel;html=1;align=center;verticalAlign=middle;resizable=0;points=[];" parent="jwdTjVKlBSezz26rAJ9t-33" vertex="1" connectable="0">
          <mxGeometry x="-0.7095" y="1" relative="1" as="geometry">
            <mxPoint x="34" y="1" as="offset" />
          </mxGeometry>
        </mxCell>
        <mxCell id="jwdTjVKlBSezz26rAJ9t-31" value="数据集" style="shape=cylinder3;whiteSpace=wrap;html=1;boundedLbl=1;backgroundOutline=1;size=15;fillColor=#647687;fontColor=#ffffff;strokeColor=#314354;" parent="1" vertex="1">
          <mxGeometry x="-290" y="272.5" width="60" height="80" as="geometry" />
        </mxCell>
        <mxCell id="jwdTjVKlBSezz26rAJ9t-32" value="沙盘Round源数据&lt;br&gt;&lt;b&gt;&lt;font color=&quot;#ff3333&quot;&gt;（type=10）&lt;/font&gt;&lt;/b&gt;" style="shape=note;whiteSpace=wrap;html=1;backgroundOutline=1;darkOpacity=0.05;fillColor=#f0a30a;fontColor=#000000;strokeColor=#BD7000;" parent="1" vertex="1">
          <mxGeometry x="-120" y="252.5" width="80" height="100" as="geometry" />
        </mxCell>
        <mxCell id="jwdTjVKlBSezz26rAJ9t-39" value="跳转" style="edgeStyle=orthogonalEdgeStyle;rounded=0;orthogonalLoop=1;jettySize=auto;html=1;entryX=0;entryY=0.5;entryDx=0;entryDy=0;" parent="1" source="jwdTjVKlBSezz26rAJ9t-35" target="jwdTjVKlBSezz26rAJ9t-5" edge="1">
          <mxGeometry relative="1" as="geometry">
            <mxPoint x="670" y="330" as="targetPoint" />
          </mxGeometry>
        </mxCell>
        <mxCell id="jwdTjVKlBSezz26rAJ9t-35" value="个人测算数据&lt;br&gt;&lt;b&gt;&lt;font color=&quot;#ff3333&quot;&gt;(type=11)&lt;/font&gt;&lt;/b&gt;" style="shape=note;whiteSpace=wrap;html=1;backgroundOutline=1;darkOpacity=0.05;fillColor=#f0a30a;fontColor=#000000;strokeColor=#BD7000;" parent="1" vertex="1">
          <mxGeometry x="510" y="265" width="80" height="100" as="geometry" />
        </mxCell>
        <mxCell id="jwdTjVKlBSezz26rAJ9t-54" style="edgeStyle=orthogonalEdgeStyle;rounded=0;orthogonalLoop=1;jettySize=auto;html=1;exitX=0.5;exitY=0;exitDx=0;exitDy=0;exitPerimeter=0;entryX=0.5;entryY=0;entryDx=0;entryDy=0;entryPerimeter=0;" parent="1" source="jwdTjVKlBSezz26rAJ9t-36" target="jwdTjVKlBSezz26rAJ9t-31" edge="1">
          <mxGeometry relative="1" as="geometry">
            <Array as="points">
              <mxPoint x="930" y="140" />
              <mxPoint x="-260" y="140" />
            </Array>
          </mxGeometry>
        </mxCell>
        <mxCell id="jwdTjVKlBSezz26rAJ9t-55" value="Excel导出" style="edgeLabel;html=1;align=center;verticalAlign=middle;resizable=0;points=[];" parent="jwdTjVKlBSezz26rAJ9t-54" vertex="1" connectable="0">
          <mxGeometry x="0.1031" relative="1" as="geometry">
            <mxPoint x="1" as="offset" />
          </mxGeometry>
        </mxCell>
        <mxCell id="jwdTjVKlBSezz26rAJ9t-36" value="Roumd定版数据&lt;br&gt;&lt;b&gt;&lt;font color=&quot;#ff3333&quot;&gt;(type=13)&lt;/font&gt;&lt;/b&gt;" style="shape=note;whiteSpace=wrap;html=1;backgroundOutline=1;darkOpacity=0.05;fillColor=#f0a30a;fontColor=#000000;strokeColor=#BD7000;" parent="1" vertex="1">
          <mxGeometry x="890" y="265" width="80" height="100" as="geometry" />
        </mxCell>
        <mxCell id="jwdTjVKlBSezz26rAJ9t-37" value="个人测算副本数据&lt;br&gt;&lt;b&gt;&lt;font color=&quot;#ff3333&quot;&gt;(type=12)&lt;/font&gt;&lt;/b&gt;" style="shape=note;whiteSpace=wrap;html=1;backgroundOutline=1;darkOpacity=0.05;fillColor=#f0a30a;fontColor=#000000;strokeColor=#BD7000;" parent="1" vertex="1">
          <mxGeometry x="710" y="420" width="80" height="100" as="geometry" />
        </mxCell>
        <mxCell id="jwdTjVKlBSezz26rAJ9t-46" value="否" style="edgeStyle=orthogonalEdgeStyle;rounded=0;orthogonalLoop=1;jettySize=auto;html=1;exitX=1;exitY=0.5;exitDx=0;exitDy=0;entryX=0;entryY=0.5;entryDx=0;entryDy=0;entryPerimeter=0;" parent="1" source="jwdTjVKlBSezz26rAJ9t-44" target="jwdTjVKlBSezz26rAJ9t-35" edge="1">
          <mxGeometry relative="1" as="geometry" />
        </mxCell>
        <mxCell id="jwdTjVKlBSezz26rAJ9t-50" style="edgeStyle=orthogonalEdgeStyle;rounded=0;orthogonalLoop=1;jettySize=auto;html=1;entryX=0.5;entryY=0;entryDx=0;entryDy=0;" parent="1" source="jwdTjVKlBSezz26rAJ9t-44" target="jwdTjVKlBSezz26rAJ9t-5" edge="1">
          <mxGeometry relative="1" as="geometry">
            <Array as="points">
              <mxPoint x="350" y="230" />
              <mxPoint x="740" y="230" />
            </Array>
          </mxGeometry>
        </mxCell>
        <mxCell id="jwdTjVKlBSezz26rAJ9t-51" value="是（跳转进入）" style="edgeLabel;html=1;align=center;verticalAlign=middle;resizable=0;points=[];" parent="jwdTjVKlBSezz26rAJ9t-50" vertex="1" connectable="0">
          <mxGeometry x="-0.0899" relative="1" as="geometry">
            <mxPoint as="offset" />
          </mxGeometry>
        </mxCell>
        <mxCell id="jwdTjVKlBSezz26rAJ9t-44" value="是否已存在&lt;br&gt;个人版本" style="rhombus;whiteSpace=wrap;html=1;rounded=0;" parent="1" vertex="1">
          <mxGeometry x="300" y="277.5" width="100" height="75" as="geometry" />
        </mxCell>
        <mxCell id="jwdTjVKlBSezz26rAJ9t-52" value="副本删除" style="rounded=1;whiteSpace=wrap;html=1;" parent="1" vertex="1">
          <mxGeometry x="900" y="550" width="120" height="60" as="geometry" />
        </mxCell>
        <mxCell id="jwdTjVKlBSezz26rAJ9t-53" value="副本覆盖源数据" style="rounded=1;whiteSpace=wrap;html=1;" parent="1" vertex="1">
          <mxGeometry x="680" y="700" width="120" height="60" as="geometry" />
        </mxCell>
        <mxCell id="bkrwEYgjUg95MWWJ3bJO-5" value="" style="shape=image;verticalLabelPosition=bottom;labelBackgroundColor=default;verticalAlign=top;aspect=fixed;imageAspect=0;image=data:image/png,iVBORw0KGgoAAAANSUhEUgAABCMAAACQCAYAAAAyXqEAAAAgAElEQVR4nOy9aXBb55mo+YAEAZAHJAACXCRKJEVqpwRbsixFtBzJsSlFsZNMdeIslaXSlXTP9J+bmz/zIz9S996autP3zq2aSlWnb+LJctPtxJkeu6/ttB07tNttW6YlWdZCiRIp7jtBEiQI4JDYMT8AkCAI4ByQIAnZ31PFKuJ8y3nf91vO+d5vOZqWlpYoAoFAIBAIBAKBQCAQCARbRNF2CyAQCAQCgUAgEAgEAoHg04VwRggEAoFAIBAIBAKBQCDYUoQzQiAQCAQCgUAgEAgEAsGWIpwRAoFAIBAIBAKBQCAQCLYU4YwQCAQCgUAgEAgEAoFAsKUIZ4RAIBAIBAKBQCAQCASCLUU4IwQCgUAgEAgEAoFAIBBsKcIZIRAIBAKBQCAQCAQCgWBLEc4IgUAgEAgEAoFAIBAIBFuKcEYIBAKBQCAQCAQCgUAg2FKEM0IgEAgEAoFAIBAIBALBliKcEQKBQCAQCAQCgUAgEAi2FOGMEAgEAoFAIBAIBAKBQLClCGeEQCAQCAQCgUAgEAgEgi1FOCMEAoFAIBAIBAKBQCAQbCnCGSEQCAQCgUAgEAgEAoFgSxHOCIFAIBAIBAKBQCAQCARbina7BRAICgmNRkNJSQlFRYXlp4tEIgSDQaLR6HaLkpZCs1uh20sgSLCdbUe0E4FAIBAIBNtJYYwcBIICQKPRoNfrC2ZAnUxRURF6vR6NRrPdoqyhEO1WyPYSCBJsd9sR7UQgEAgEAsF2UjijB4FgmykpKdluERQpRBkLUaYEhSybQFAo9bNQ5BAIBAKBQPDpQjgjBJ86ii1HOfP1H/HE/tXXN312ssZOW2sT0gayKKTVBwlUy5QH/XNlPfY6+217TtfXG6+QSdbh7LftWf+U0qf7rRR/PXKmXt+se+aTzPVToqm1jba2Nuw1Ndjb7NRsixwCwScPa+sP+NozrVQbtlsSgUAgEOT3zIiSXRw/+jQPV9vQheYYGXqNt/tG8CfHkc7wjXNPYpt8kZ9d72Jlp+p+zl/8JgfmX+eXlz9iCQ3ND/+Yk95f8ELfLLCXpy58i0NagCCyd4h7d//I5RkPana7ljV+j++3NKwNCN3k5TdfYVRRviaevPAdDmsBIgT9s4wOvc5bfcNx/WLyti79in/smUojQTWnz/0NJ1JGYsGx3/PzW70qNEjWP0ok5GFm8t9ov3OD+UgshqZ0L6cOP8khmxVdaJbB3ld4e8RBGIjZ9yKejp/y4QKAlgOP/JhjCz/jD31ONtv+G5c/e7ja8tXXP823vn8O/+WXeHtcleAFTjH6vV+h5alWpMAlbv36RdzJwfoG6s7+BTsbdlASmmOh54/0fdiF/9O6RVxbydFv1CK/eZdRcxOthxa59uoUclKUd5/v5Oy37bz7fGdOWacO4JNZnZeO+i8cZE9l7Fc0HGJxwknfFQcuX4765AnTicMcLRnl0oceYK0NkuXPZpvUsI3aMZls+Wa39zpRUVc2C6npIZq9nbR3OIAattxtoqS71sDOR3dRX29AGwniHnLQe83FUnK/Umzi8NcaqHJPcfW1aZaWA/Q0PHOARv0sN/55AncUJPt+jhmnuNThZlX7iEYJy4vM3Jugv2eJkBrZd+7izOcqKV4TIHP/xX4mE20so3yr22fE78c9HNNvMf6skuz7OWGe5t33XGkEKKL2iSMcqEu5PDPBh2/OElBUQEX/UFLKzpM72V1XSkk4gKtvgvu3vPG8Y/aV7nRydygWveL4QeyGibh9N9n+G5ZfIVxN+SrU34WeDxm78DW+96ODvPr3v6F74dP6QBQIBILtJ4/OiFpOnf42e+Zf540PJggZT9F2/Es87Pg7rngScTTU1B/H4JkmaCinFFhMBJVaMRMibNpBFTBCBSapmHnHXCzcUIlFO8aH77/E/XApVfVPc+H4eabeeonBcKosa/GNvcRvp4uBZs6eO8PCtd9y0wuEfUkvl1nk01kxa4e59N7L9Ie1SNazXLBf5Ojkz7kmAwl5Z5wZJLBiKpvl+uXfcXvlrYdw0JMhfgqGSizaET5473/SF9ZQUtbCZx95hjPz9/jjqA+o4eSjX6Vp/k+80TGJxvoEF498nkOO33LHD5TasBQ5GV1WthKLMYprYj72c5Ptv2H5FcJVla92H09+5wK+1/8TL1yZVelEKWR0lB//K1pOSMx23UW/LzW8hMoz36e+4mN6X/kDS/p9ND71PQ54/086O+e2Q+DtJxolSoRoGCKRKESiRNJEUxr4ZhrspnNkZBpcz1/r4f5YFE2JgeoTuznymQCX/21e5Qv/5pNORyXnQmrYep0CqenUrGLIdq9cVrss56OyrmwGRqOE7PVu0d3SkFV3DRX2RppMbrrfGmWpqIzdp3dz8OASN+4lTT1YJcxeH16TEVPJNEvBVTcgojNRXTWJezp9TxxrH6CzWdl3uolm7116xlX02o4pPnp5Gg1gO3WQHfMD3L4fIDaJkBQvq3wr7bNYMtLQupsDnkVu3FN2JSTw3umnqy8p03BYhSNi7f3T9Q+mhxpoNnnofnucRV05TWca2OfuoWtQbe+xifbPg/xZw9WUr0LbDTm76Pj93+J49id89dlWxn75AdvY2gQCgeBTTf6cEWY7h6Ve3n2/k4ko4PmAa0PFq2+g2cORXWHu3evj0D4jEkmDfcmKxTPIqKEWaxmMLFqxGOdxyYmpCBvm4DRTbhduXLjvf8RY0yksOhhcQpFIyIM7BJTqKdPM0Ot04U4dRGeTz2jF7J9i0uPCDbiXunAceYqV1a1WKo0eXHLKG02yfjjonXPhXs8oWLJhXhpnPH5/Fu8wIj9JY3EJ4ENjPcZRfRdv3r7FJICnk/GWz1FWAvhj9zf7nMwvv6tYMUvzzHsT9t1c+29UfqVwNeVb0vI5Ho68y6+vfhIcEQBmKqrmGPin55iWvoxtjTOiDkt9MdNvvsrsdBSYpP/mIzzasJeizqtbNrAqKMJhwpEI4RBEQmEIRXK2g9LKCbUrK8L+ID5vBAgwfNdNfWsZRuZxQWxm8EQdu3cZ0MZnBns71c58xmYmK0ZHCTfswCqBPDJB9+WkmWtDOU2P7WRHVQkBh4MJWblFJAbuyQP4bE6XxO9EnHTpUleTpLueD9bjWMlHXXlgyap7MeU2He5+B7POMOBn4LqepnItGvzLfWtZrZHo1AzTwTrMNRqmxpLrWBjXVAhbQxl90+nXmiTah887yWCthUO7JHrGVQwZwyH88WiBEESCQXzetW6A7PIltU/vHKND1TxcaYAc3AkRf/r7qiVz/6DDVKNj/u4EM84o4GNkyMaRmlIYVDm5sZn237D8CuFqyldV212i/403mPrJE9grP6DjU+qfFwgEgu0mf86IaISophyjXgO+KOCip+vVVVF0tcfZ673G885iGo9UIwEz8bAyo40SXxfDgfPUlhdB2IpZ62Qs/pw0GK0YvP3MJzIr0aNnCV+GsX9GjLFBuSvNbH42+XSSlTJPN3OApqicur2nqXPf5HLi2a+3YdY6uZdhDa9GsmKWZ5lb5yjYYLSid98itu5Cj2XnOY4Yx7g5HRPAaKqj1H0DRyKBvoJy3IzEl0VKRis6uYvlRaWSjUqcDMa9LZtt/43KrxS+TJbyte1qgKErTOVcBqv3bMv9HXQMyGuug4PO9s4VGdeEA3Lyy1yGfKUmWltrmeroYCDrmvAZJv78AtEopD+IoZRinYwvaU9G0CeDrhQtubxWr5d16g9ITa20NieUSrZrmjSOGpX2AggTDoQJBSAajBAORkiuKuvZZpBpe0a6/9PmVayjulFCszC7vFS8wt5As8VN97+Osagz0vRYI3vd3dwdUr9uoqKulIErA4xoK9j7+C72Tnu43R8GNFQe202dfoHudidLpSYaTxSRVHEz6q1ma0Q6J0S6/zPFyXY9mVTnSNZVDlnSZi7f7HVls6ixt2GvAWpaaWt20NnuWB1BaqK1tXm5yTs62+lcjpLcPmT6+70013rp6BhAVt2vQHbdQ/g8YYw7y9H1uQhEITA2Rfeq9MWYq3Us9LpwhWrYWV3G8sMEgCL84y50R82YrskKq4GiBHwhtOVrF+avHyX5VtCUGqneqcXdp8brvgms6R+K0WohFFrp18PBCFpDLud+bKH9c5Y/H/qpbLueXkZmvsWOXUUw96lxNQoEAkFBkT9nxMI1rk7bOff4X7Nr7AZ3R24yJCcPd8rYX7+X0ZF/QfbvQy5uokwLiaegRbIiL04xFV7gqMkGQRuWpEGlucxKUL6ysuResmH2O3HluKZZkqzovLdXBtU5yIf1C/zg4ucp0miJLF7n9Y5LK/lIVswBJ65MCyMkK1qjnW9efGz5mnvg1zzfM6lKbnOZFU3Nl/nri1+EomKivmE6r/9/dMadCRajDdnrXBlglldhSbKPWbKxJDtJjN01khXzkpO58Ip+m2n/jcqvFL4sVsbyBYPBgN+X6wtl7OXe2N9B+6o3+DTXa+y0tdnjA+dYOJ3tJMYSNfY27Mbk9M14O9rplCF2YF0rdrmdTtWTT9GYI0IRiZov/O/snP0lnWonzjbMRvRv4qFmL53tHTjS5LmmLHI6ETO2rxiAiTEuTawOXc95EakDZ7UODevpFh7/DGiKNITdLu6/54yfP6PHsqOEuTuTyzODQwM27DtKYUh9AS4OzjA1EwR8jAxXcchaCv1eQE+FrZi524mZRz+T9VWYVdhBzaGQibSJ/9djUzWOnHQ2VrO6IjVuZtmy15XNwtHZTqe9jWbvitNzxaEn0dQMt9rbY31xjZ02u52atH1OrE2xrgXo2XV3dk7gOr+bR79YyeywC0fvPK7FpM6oSMJctYTrUhRPSEZrlzAgk+w71sgLzCztpbp6nC0ybU7yLbfPYg3B8TFu3M9t5qPi+AEefzjxK8r0+3foGVOfPnP/kB822/6bLX921LbdJXw+DXqDHtgmZ5NAIBB8ysnjmREu7l77OyarjnKg7hhPffYkPVee4/25+PCx7BgtFd1cnvRBxMti0EiZnvhgX4/FaMQ15cQZmKKibgfSUiWl3u74TL4Wi7EC19zKeQylkhWD937aQWc2YoPyubUPxazyFWOWzDj6/wft44todbs5Zn+a1sarDN2PDZf0Rhulcm9GeSolK56RF3llcGb5Wsivdl1gTP/x7v+Hdxy1nH7sPEu3/oEPZhMvfxIWycD8xErepZIVvbc7Lo8ei1HCNT27HG40WimWR1hYDt9M+29UfqXwFTKWL6BBo0raVdTUUCP3L8/YZ73u6KdfbqWmBhzEw5NG0w6HA4xJ6ZGoaW2jOSlbWZLAMUBH+0DusmZEZvqt/wtn2Av7lWPnhZqN6C/jpRl7Wyv9ybO4mcpCzq+91MzKpxukJx/2mDzQzYTrZi99E2XsuVBL6ONRppYPUdNSoo8SCqwM7kKBMNryYjSgeotRMLAyFxgOhilKnnnUJecfJRSIQMrXHXNdGZFudUMuToh0B2au5wDMTzYyA50DSE2ttCWtHALStDmZgX4HzYkGls92Is9z91Uv5gYLVY1VHDlkZeytPoYSfbrNiMnrZcgHTHtxW8yYSkhaSadBQ4DpoQDHGoxMbPXBrYryxdvnGBQZJRpO7eDAfi+3enI4M+LeIPeSzowILWaJnIbM/UM+2Hz7b678+UWzjlcDgUAgEOSH/H5NgwDzMx9zeeYGY6F/z5camrk0d48oGqrqj1GtM3Hx/GFAQ3FxgNsGiE3vWDFJPublRcK+KRZMtTR7rUmDSitmKYprdGXoaTba8MsdOfqyY4PyecdsynUl+SoxG0M4R0eZ90aBWTqGj/GX1bvR48APWKRKArKT9O8bBkzGMuYnBpn3ruepb8Us+ZkbnGTe62Rw7hlOVu2E2cTnIGxYjDH7Jag0WvHLiWWRNizGIK6k/aQWyYYsJ1YabLb98yF/tvAEmco3RiQaRVO02W8dMl4vK4PurFH7Y8unN1kigGjASwjSnEC+jWTUX6azvZ3lzxtKcswpscXiKR2ImG3AnO4rFKmElwIsuvxMjuzg8D4TfROuLdkGsBGyOVfS2SOXLS6ZHB2ZVkZk2/qSyYmRqaweGKdHfIsG/R20tye2dKnpbDaBcBDXwDSugVmmT+zjoaMWRt+ZIwyUVkvoKgwc/0YVoKFIEyFQDY6ULxj5hhfwXzRRcV/5dupWgalDjXzhpQCL7gi4fXR3lnPmgBlDzzRqn+CRpQCL7g2cGbEF/cNm2v/B6N+KKCqKvRsIBAKBYHvIz8fFjcc5f/wUtuULESLRKOFI/NGjaeToLi23r/13Xnj/57zw/m/4yFVKmS5++yIblaWzuLyA18GMtpY9pgrmvfFBpcaKpWyeucRhipipqyxnekHdFocVrJilAC45ZamzknxYsZTNsbB8yJsGo6Ec35IrPpjXYjGacHnTD4Jjg+lFXOtyRLCs/8IiQIAx5wQVVc1Jy6qNlOncyMvZl1NtNibZpxzJ4MazfHqdhWqTjmlX/BOkm23/DcuvFJ4gQ/nGWfR6KK0w5+aBczhwSM00L6+TrqGpSVq+/lBT0h6BmmaamcIhp0sn0dRckyVfqLHH93pLTbS2tdKU0/aDdCwRDkiU6FccMCUGCUKBzX8p3KD+TTUAMgMdHfTLEkZjujTxssibvVbIdv5AphUASn/piTLfP094l5Xq0sS1EEG/Bq1updy0umJCgXB8VURsL3SJLlGTNWj1xQR9aks1TCiYnL8GrU75UZDYcpH6f4JkPbPrnD7PTGFqV6cooebQ0YLHaESS+7mVOFulpnZll5JSm8tXO9GUsftsHdXL+UTwOH1opBL0ABRjrinFdaOXj1/r5ePX7nNvIIq5pnRtXrKLaa8JqzXbYFCDzqCNrd7JCznIFycaihAtWtfaug2Srn8IEwpBsXZFmmJtMaFgov3HDm7Ualdcz8W6YsLp7Lfp9l+P/Erh+cRMeUUA2bN1G0gEAoFAsJr8rIwI6zHvOM3JxhmuzHoxmE7w+K4wXR8NEAVKah9hX6iTFx1z8W0BGhb8sFsvAZ7YeQthJ7d9AFPMeOo4bYnQm5jJL7Ni1riZiJoxlVdQW9/GI/qb/Gkix3WPxTYspU5SD4RWlK/MirnIywRmKsp0lFee4mx9mK6rQ/HBgRWzBIszJViMKy6ZcMCFOxCCYitmvRtH1ExF2cp9g34XS2qer2VWzMzRE1fX4xzEfWgv9Yb34t/t9rIYsNG8ez9Do26k2s9xvOwu/zaVsI+XRZ+Fhrpm7o8sYNz5eR42dPG2I/4A3mz750P+rOFxMpRvgpm+e8hnH+FA6WW6VC+pcdDZ0U9raxttid/tDmKz953Y21ppa06K256Y6XfQ2emgzZ5IJ9Pf74DaTPnG94qrFSumMCUVVrTFQLkBjQYMlmqC+AnMLxBmnPmRMAdav4Trvav49PtoeGgX7pu9Kc4IDS17itgXjvDGSFT1zF92NqC/PIDc3EabfTkgvgc+Q1nk0QkB2WfVIfMgONvZEdkGutHpeRxeGzub9Uze8QN+5ieD1B/eQZVnjkWdkcYmLfMfJSptCNekj+aDO6iem2FRb6ahPsr8e2r7Qz/umTC7D++kyuNkqdTMztoopPj2lM6+UNqWkbrqQe1hoBtxDGQ76yJdvuuRcTWb0Xay4Oinv7mV1ninIzscSSuLUttHapvLE9EA4RILTY8GCHW68RUZqDtUgX/aGVupppEwV/lZ+NjHUvwREpiSOXxAQs9Syha6IDPDARofMsDI6tsU60swGEFntbJnDzjfy9PHF1XKF7t/lKLSMnYdNeGfGlhdviUllFXoky5E8LuDy31rUVz+ZcJhfKoe+KtZ2z8EWHAEaDi0A5t7jqWScuobNbiuJaQLsuDws+dALVXzThZ1FdTXw8KVdA+9zbd/7vIrheePoobj7C/t4Z3BdM6YLW7bAoFA8CklP86IpWu8c7uKc3u/wtcPafF5Bui68Q9cnQsROxjyAJ7x51g5cSDKkt+PpDcCHoqMNkzyVHz/v4eZhQBai4f5+LNPY7RiYg+Pn/0hZ8Iyc85O3rr8r4zkeHglZZWYIk66Vj1VlOXDaMNMM2fP/ZCzUT+yd4TuW7/jcuI7mRobljINjS1/Q2NSzo57P+WfBlxgtGGhlobWH3JyOdTHnSv/hXcyLaZIQmO0YlqKfxITwD3EePAMDTYDnWM+YJiPbl2m7fCX+UoDyAvdfHjlz/QvrxAd4+PbVzjf8hd8oxHkhftc/ugNEp8k32z7b1x+pfA4act3hejAn3l3+D9w/uufZer593CqrT8Z91o74tsJMuDoJDV4IDmbTPmq3tttZcczP6ahcuXKgW+dAG7T/bNfMRMNMnfpV4x89i9o/vIZSqIu3N3/QM+tlEpXUsTFFi2W3gAvq7iratarPzHHRFrLpkuTx73w2Q5t3Lxl/EtMDfjYva+S8q5JPFFwdw7T/2gdTU9WUhIOMH9/iL7hlQor3x2mp2wXe57YizbiZ/72EAOTapcaR5m7Mcr4Y3XsP28mND3DxEQUU9K0r5pDONMN3pMH/EoHTCqh1iGRbstMpq9zqNEpJzap7Tg625MOb03+oobMQEd75i1LqW2hxr5yJkve2kmIyY5hdI/Wsr+thhJCeEcmuHPDG3PO2yTMURnHwkqK8OwS3tZyTNpZplP6Xf+wC/n4zjU+RcuJA5x6JEpo0Yfz+iD943laSq9SPsuJA5w6AdFAEM/4BHdvyavPa9mxg0e/tGPld2ie238YJXESlPFIM6eOJMWfmeDDN2fX8RWjtf3Dwq1h+k/uZO9T+9CG/Lh6h+lN+tKO584I/WV1ND+1L/Zp4Psj9A+nd4Rsvv1zl18pPB9oyo/w+WfPEnj3v3E33TvDZj0XBQKBQLAKTUtLywO+WW43n33yuxzRpV6P0Hvjb2nP/TuOW4yQf0vR7eYz3/13nNsxw7u/+a98mHS6ucFg2D65csDny+8cTVGVlr//TBGvvB3gTzkuNoLCt9t67JXpLAOluEo8EOcSJJHOKQGZz2lIDlP7dZF0ts6WRs3/6X4r6bYeCqvtSDS1NiN3rP4MrjHpk7nZyHe/smnYajnZVoV+TcAC3X8YYabAHjlrEPJvO+UPfY/vPnucwOWf87vX7rKYRuaNtm2BQCAQqOMT4IzQIUkV6NZs5ozgW5xjqeA/HS3k33pKqGh8BNviZQamV67qdDqKivJzjMpmEYlECATWfyhaOuoP6viPlWF+2BFeWb2SA4Vst82wl0CQoODaTvyAy8Qst6zSEfFAtZPiYkolbZrzG8L43aECPCQxBSH/tiM1HmeHfI/+maWMXyfaaNsWCAQCgTry/DWN7SCALM9uyRcJNgch/9YTxD10ec0LRjAYRK9fO99TSASDuX3rXhkN+ywaOkcj637hKmS75d9eAkGCAmw769yK8UC1k3CYJfeDMOTNgJB/25GHrtOXNcbG27ZAIBAI1PEJWBkhEOQPjUZDSUlJwc30RyIRgsEg0QL9BFmh2a3Q7SUQJNjOtiPaiUAgEAgEgu3kE7AyQiDIH9Fo9MFZrlxACLsJBOtDtB2BQCAQCASfVgpjGlMgEAgEAoFAIBAIBALBpwbhjBAIBAKBQCAQCAQCgUCwpQhnhEAgEAgEAoFAIBAIBIItRZwZIRB8gii0gyQTFPpBeYVmt0K3l0CwlYhDPgUCgUAg+GRSGG/eAoFgw2g0GvR6fcEMqJMpKipCr9ej0az9Ov12U4h2K2R7CQRbyXa3T9EWBQKBQCDYPArn7VsgEGyIkpKS7RZBkUKUsRBlSlDIsgkEW0GhtIFCkUMgEAgEgk8SwhkhEDxgFFuOcubrP+KJ/auvb/rMYY2dttYmpA1kUUirDxKolikP+ufKeux19tv2nK6vN166uInfueSxnvi5sp78N1umXO69kTLNllYp/XbaIEHmNiDR1NpGW1sb9poa7G12arZFDoFAUGhYW3/A155ppdqw3ZIIBAIl8ntmRMkujh99moerbehCc4wMvcbbfSP4k+NIZ/jGuSexTb7Iz653sbILcz/nL36TA/Ov88vLH7GEhuaHf8xJ7y94oW8W2MtTF77FIS1AENk7xL27f+TyjAc1OznLGr/H91sa1gaEbvLym68wqihfE09e+A6HtQARgv5ZRode562+4bh+MXlbl37FP/ZMpZGgmtPn/oYTKSOZ4Njv+fmtXhUaKOmvlL9S+v2cv3gRT8dP+XABQMuBR37MsYWf8Yc+Z0xDQzOPtjxJiy1evgN/5O3BcQKq7FvBscd+xBnzqkDuffSfeWs6JoGmdC+nDj/JIZsVXWiWwd5XeHvEQXhZvmz1Qwml8lPSX7n+rbJP2Mlw3x95e2iCoIryUVs/9fVP863vn8N/+SXeHlehdsFTjH7vV2h5qhUpcIlbv34Rd07hnzK0lRz9Ri3ym3cZNTfRemiRa69OISdFeff5Ts5+2867z3fmlHXywDN1EJprXplkSL6WbcCt9n7r0TPf5CJDIm66Qb5SHpnsk+16pnhq7qcKFfVxs5CaHqLZ20l7hwOoYcvdJkq6aw3sfHQX9fUGtJEg7iEHvddcLCW/sBSbOPy1BqrcU1x9bZql5QA9Dc8coFE/y41/nsAdBcm+n2PGKS51uAEd9V84yJ5KIBolLC8yc2+C/p4lQmpk37mLM5+rpHhNgMz9F/uZ9CnJl3R/IOL34x6O6bcYiV2T7Ps5YZ7m3fdcaQQoovaJIxyoS7k8M8GHb84SUFRASX+l/JXSx+wv3enk7lAsacXxg9gNE3H7AyWl7Dyxk927SimJBFkYnOT+DTf+qDr72h47Ssue1Vt/Fq7d42Z3cCX/kzvZXVdKSTiAq2+C+7e8cdso1Y8c7Ee68lPSX0X9W2WfAAv9U/TcchOIqigfNfVTof0t9HzI2IWv8b0fHeTVv/8N3QvizBeBoFDJozOillOnv82e+dd544MJQsZTtB3/Eg87/o4rnkQcDZsjXtoAACAASURBVDX1xzF4pgkayikFFhNBpVbMhAibdlAFjFCBSSpm3jEXCzdUYtGO8eH7L3E/XEpV/dNcOH6eqbdeYjCsLJ1v7CV+O10MNHP23BkWrv2Wm14g7Et6ccoin86KWTvMpfdepj+sRbKe5YL9Ikcnf841GUjIO+PMIIEVU9ks1y//jtsrT3TCQU+G+Cko6q+Qv1L6UhuWIiejy8aoxGKM4pqYj5umhpMnn6XZ9SZvdowTqWjlwkPPcHT6F3wsq7GvzN1rP6Vfu49z587g/ug3XPdG8PsSD4gaTj76VZrm/8QbHZNorE9w8cjnOeT4LXf8KNcPJZTKT0l/Jful2sf0GBfsz3B0+jmuLyqXj6r6qd3Hk9+5gO/1/8QLV2ZVOeEKGx3lx/+KlhMSs1130e/LNfxTSDRKlAjRMEQiUYhEiaSJpjQozTQQTedEyHVFRapTIzmv1PzTyZHL/dQMqJMdAJvhuMgl72RHRDobq3HgKP2vdP9M5LL6YjkflfVxMzAaJWSvd4vuloasumuosDfSZHLT/dYoS0Vl7D69m4MHl7hxL2l6xiph9vrwmoyYSqZZCq66ARGdieqqSdzT6Xv7+Ws93B8Dnc3KvtNNNHvv0jOu4sngmOKjl6fRALZTB9kxP8Dt+wFijvqkeFnlS9w/SrFkpKF1Nwc8i9y4p+xKSOC9009XX1Km4bAKR0Tq/TPrr5T/uu2Hhgp7A82VHrrfGWexWKKhtYGD3m5u3Q+qsu/cxz1cuaXB9pkD7HANcLs7QMS/IqvpoQaaTR663x5nUVdO05kG9rl76BpMDPeV64c6+62//DLbb619Gh9r4KDcTWfvio4Zy0dN/VToe0LOLjp+/7c4nv0JX322lbFffsA29hYCgSAL+XNGmO0clnp59/1OJqKA5wOuDRWvvoFmD0d2hbl3r49D+4xIJA32JSsWzyCjhlqsZTCyaMVinMclJ9zsNszBaabcLty4cN//iLGmU1h0MLiEIpGQB3cIKNVTppmh1+nCnerEyCaf0YrZP8Wkx4UbcC914TjyFCsrN61UGj245JSndbJ+OOidc+Fez3NDSX+l/FWkN/uczC+7ta2YpXnmvTH7ayqPcUTfxZudN5gA8Fyha/f55RqkbN8wfr8Lv9aAkdmYnElTOBrrMY7qu3jz9i0mATydjLd8jrISwI9y/VBCqfwU9Fey31r7XKWn8Wm0OmKVSKF81NTPkpbP8XDkXX599ZPgiAAwU1E1x8A/Pce09GVsa5wNSuGfQsJhwpEI4RBEQmEIRXIe/CkNntUMrjM5HNQMjpPjrmeFQC6kylYIKymS9VYjT+pKknQrWPKhUybHUNa881AfH1iy6l5MuU2Hu9/BrDMM+Bm4rqepXIsG/3L/XVZrJDo1w3SwDnONhqmx5J49jGsqhK2hjL7p9GtNwv4gPm8En3eSwVoLh3ZJ9IyrGHKFQ/jj0QIhiASD+LxrB6HZ5Vu5P945RoeqebjSADm4EyL+9PdVi5L+Svmv236UYK7VMX93gpnZKOBjsMvIIaMeCKqyb8QXwEcRoTBEA6GUcB2mmnj+zlj+I0M2jtSUwmBiAku5fiix0fLLbL+19hm4a+KouTRmn4QNMpWPmvqpqu9Zov+NN5j6yRPYKz+gQ+XclUAg2Fry54yIRohqyjHqNeCLAi56ul5dFUVXe5y93ms87yym8Ug1EjATDysz2ijxdTEcOE9teRGErZi1TsbifazBaMXg7Wc+kVmJHj1L+DKM/TNijA06XWlWU2STTydZKfN0Mwdoisqp23uaOvdNLieeC3obZq2TexmeCRrJilmeZW6do0gl/ZXyV0ovGa3o5C6WF1RKNipxMhj3xhhNdZQt3GB6OcdJrl3+7dobZbFvTM5KTP5ZXClrSY2mOkrdN3AkLugrKMfNSHy5qFL9UEKp/JT0V7LfWvuMc/nSc0l6qyz/LPaz7WqAoStM5VyHVu+nlvs76BiQ11wHB53tnStlsCYckJNf1DLkKzXR2lrLVEcHA1nLZ4aJP79ANArpD2JQCt9s1qk/IDW10tqcEDrZrmnSOGpU2gsgTDgQJhSAaDBCOBghuarksgoiOY7a/zM5HdSeXZAqS64z+9nyyhYn8f9mOSS2ytGR60qSVAdGLs4fdQ6T7PVxs6ixt2GvAWpaaWt20NnuWB1BaqK1tXm523B0ttO5HCW5Dcr093tprvXS0TGArLrvguy6h/B5whh3lqPrcxGIQmBsiu5V6YsxV+tY6HXhCtWws7qM1Q+0IvzjLnRHzZiuyQrbL6IEfCG05WsXtq8fJflW0JQaqd6pxd2nYmZoU9io/rmmL0arhVBo5WG8dH+Y6+u8u5r8w8EIWkPyuSW51I/sbLz8Uu2Xxj7dA1zdgIxrUdn3eHoZmfkWO3YVwdynxlUqEDxQ5M8ZsXCNq9N2zj3+1+wau8HdkZsMycmezDL21+9ldORfkP37kIubKNNCoge1SFbkxSmmwgscNdkgaMOSNCgzl1kJyldWlqxLNsx+55pBrRKSZEXnvb0yqMxBPqxf4AcXP0+RRktk8Tqvd1xayUeyYg44cWVaGCFZ0RrtfPPiY8vX3AO/5vmeSVVyK+mvlL9SerNkY0l2ktgqqpGsmJeczMXtbzHakGWnos88s32T5JTvkLqL1GK0IXuT8i+vwpIkn1L9UEKp/JT0V7Kfkn3Uln82+xkMBvy+XF8WYi/exv4O2le9Xae5XmOnrc0eHzjHwulsJ/GeX2Nvw25MTt+Mt6OdThlih8m1Ypfb6VS9FjIaczSsO3wz2Yj+TTzU7KWzvQNHmjzXlEVOjpbYnlkAJsa4NLE6dD2D4nSOhVwdGol0Sg6MfJ8ZkQ6l1QKZtkqk5rEZDoaN5pfrgZLpyjFbGWSKm1nu7PVxs3B0ttNpb6PZu+JYXXEaSjQ1w6329lh/XWOnzW6nJm2/Fmu3rGsBd3bdnZ0TuM7v5tEvVjI77MLRO49rMalDK5IwVy3huhTFE5LR2iUMyMvPIACNvMDM0l6qq8fZItPmJJ/1dAuPfwY0xRqC42PcuJ/b7FDF8QM8/nDiV5Tp9+/QM5YvBTY//+1mo/Vjo+W3UTZWPmr7niV8Pg16gx7YLmeZQCDIRh7PjHBx99rfMVl1lAN1x3jqsyfpufIc78/Fh2dlx2ip6ObypA8iXhaDRsr0xAf7eixGI64pJ87AFBV1O5CWKin1dscHrVosxgpccyvnMZRKVgze+xkHvZmIDTrnVh+qqShfMWbJjKP/f9A+vohWt5tj9qdpbbzK0P3YcENvtFEq92aUp1Ky4hl5kVcGZ5avhfxq14wp6589f6X0eixGCdf0ykGQRqOVYnmEBQAkLJKB+YmVvDOR0b5Jcvq9zpRHwtr8SyUrem93knzZ6ocSSuWnpL+S/ZLkt7Txl585SSmAfIn/9713caK+/LPZT8M6vnNfU0ON3L88Y5/1uqOffrmVmhpwEA9PGk07HA4wJqVHoqa1jeakbGVJAscAHe0DuctaSNRsRH8ZL83Y21rpT55hzVQWcn7tlctWiQSZtjPkuuJB6d5qVkZs9AsOGz07YTNRa9Ns6VMphC9eFBYyA50DSE2ttCWtTgLStGuZgX4HzYlGnM+2KM9z91Uv5gYLVY1VHDlkZeytPoZm4w4JmxGT18uQD5j24raYMZWQtNpTg4YA00MBjjUYmfBluM9moSgfuG720jcGRUaJhlM7OLDfy62eHM6MuDfIvaQzA0KLWSKvg83Of3vZeP3YaPmpoaixnsdOm2I/psbpeGdueQXDVpaPZh2vTwKBYGvI79c0CDA/8zGXZ24wFvr3fKmhmUtz94iioar+GNU6ExfPHwY0FBcHuG2A2NSFFZPkY15eJOybYsFUS7PXmjQos2KWorhGV4b6ZqMNv9yRo58zNuicd6R+fUFJvkrMxhDO0VHmvVFglo7hY/xl9W70OPADFqmSgOwkfV9qwGQsY35ikHnvet4olPRXyl8pvQ2LMYhrcOUwTYuUPNNvw2KMlU92Mtk3QVzO6dRDPtfmX2m04pdn4/Ip1Q8llMpPSX819ovL77nM/3z/Bqb6r/PFsvm4M0Nt+We3XyQaRVO02U9UGa+XlUF31qj9saXNmyxRwZJRf5nO9naWPz0oyTGnxBaLp3TmQzbHQbYDJhNp1NxHiWxf8NguNvuciY04JNb7ydRczoPIVB8K4bwNVcS3aNDfQXt7YtuYmg5tEwgHcQ1M4xqYZfrEPh46amE0PhgrrZbQVRg4/o0qQEORJkKgGhwpX0nyDS/gv2ii4r7y7fK5kkyNfOGlAIvuCLh9dHeWc+aAGUPPNGrfciJLARbd+Rv8puqfa/7btxJv/eRSP1LZaPmlks5+kfEJPn7NQUlTPQ/bWDWlku/yT08RRUWx9yeBQFCY5OfD2cbjnD9+CtvyhQiRaJRwJO7/1DRydJeW29f+Oy+8/3NeeP83fOQqpUwXv32RjcrSWVxewOtgRlvLHlMF8974oExjxVI2z9zyYYVm6irLmV5Qt8VhBStmKYBLTvmChZJ8WLGUzbEgL3/EEaOhHN+SKz5Y1WIxmnB5Mw3CbViMi7jW5YhAhf4K+SumL0cyuPEsf3PMQrVJx7Qr8YlSI2U6N/Jy9nqaj/5vnK8rT7lRBvsuY8NiDDHvXUi5npp/OdVm44p8SvVDEaXyU9Bf0X5J8oc8uLwL6ErNuNyO+C4fteWf3X6LXg+lFebcPIgOBw6pmeblNcw1NDVJy9cfakraI1DTTDNTOOR06SSammuy5As19vg+bKmJ1rZWmrblnIc8sUH9m2oAZAY6OuiXJYzGdGniZbEJ9sp2NkCmL1wo/aXmlWkgm3zWQDo5Uh0ZyQN/tYPdja4wyDdbNVBP2Cj5Tyl+Lqg52LTgMRqR5H5uJc5vqald2Qml1K7z1RY1Zew+W0f1cj4RPE4fGqkEPQDFmGtKcd3o5ePXevn4tfvcG4hirildm5fsYtprwmrNNpjSoDNoCQXytSc+B/niREMRokXrWr+XBzaqf2r62MGIWu3KGRLFumLCy+FhQiHQale0Ld3fwCOPpL4TrZdY/sVJ+RdriwkF0+xLVVU/lFldfkr6p5JqvyT7BEMsuv0EQ7GzHbb+1AYz5RUBZI+6qSuBQLD15GdlRFiPecdpTjbOcGXWi8F0gsd3hen6aIAoUFL7CPtCnbzomIvPFGtY8MNuvQR4YucthJ3c9gFMMeOp47QlQm9iprrMilnjZiJqxlReQW19G4/ob/KniRzXdBXbsJQ6ST0sWVG+MivmIi8TmKko01FeeYqz9WG6rg7FT8W2YpZgcaYEi3HFJRMOuHAHQlBsxax344iaqShbuW/Q72JJzZkHSvor5a9oPy+LPgsNdc3cH1nAuPPzPGzo4m2HfyU8YKO54SBDw/OU2j7L4ztkrvalDJoz2BdKKC2TKNHswqpfYDpioqIsyNKiHD9XOZ7/7v0MjbqRaj/H8bK7/NtUXD6l+qHGflnLT0F/NfZbts8cBuvjtNqmuNntUFc+ivaLMdN3D/nsIxwovUyX6iVBDjo7+mltbaMt8bvdQWz2vhN7WyttzUlx2xMz/Q46Ox202RPpZPr7HVCbKd/4Pm61YsUUpqTCirYYKDeg0YDBUk0QP4H5BcKK4Qk0tOwpYl84whsj0XXP6qxmA/rLA8jNbbTZlwPi+9MzlEWenTbZZrwh+1kKyenXs3VCaZtGts+GFsJAdytWBeS6EkWNjXL5qkYmfTJtzUl1HuVui81on1lw9NPf3EprvGOTHY6k1UupbTC1XeeJaIBwiYWmRwOEOt34igzUHarAPx3foqiRMFf5WfjYx1L8MRaYkjl8QELPUsqKvyAzwwEaHzLAyOrbFOtLMBhBZ7WyZw8438vTxwtVyhe7f5Si0jJ2HTXhnxpYXb4lJZRV6JMuRPC7g8t9d1Fc/mXCYXyqXoqS759Zf6X8M6cPsuDws+dALVXzThZ1FdTXw8KVpeVw11SAhsM7qfI4Y5/2bKkg1KX+5IYigw6dVoO2GDQ6LQajjog/QCAIEGDBEaDh0A5s7jmWSsqpb9Tgupau9WSuH0pkLj8l/ZXtt8o+RWXU79Xj7l5c5YzYaPmroajhOPtLe3hnMJ2zZov7JoFAkJb8OCOWrvHO7SrO7f0KXz+kxecZoOvGP3B1LkTsYMgDeMafY2VxfpQlvx9JbwQ8FBltmOSp+P57DzMLAbQWD/Pxfk1jtGJiD4+f/SFnwjJzzk7euvyvjOR6fHBZJaaIk65VPY6yfBhtmGnm7LkfcjbqR/aO0H3rd1xOfAdSY8NSpqGx5W9oTMrZce+n/NOAC4w2LNTS0PpDTi6H+rhz5b/wjorJfUX9FfJXtt8YH9++wvmWv+AbjSAv3OfyR2+w/Dlrhvno1oe0Hf4iX9mtYcl9nxtXX+Nu6oA4rX2BshN8+YnzVMV/7jr1Q46HrvPym39kdDn/y7Qd/jJfaQB5oZsPr/yZ/vjqPaX6oYhS+Snor2y/Fft8tV6Lz9PL7Wt/4Ja8cn9V5Z/JfnGiA3/m3eH/wPmvf5ap59/Dqbb+Z9wH7YhvJ8iAo5PU4IHkbDLlq3rftZUdz/yYhsqVKwe+dQK4TffPfsVMVCk8frGkiIstWiy9AV5WcVfVrFd/Yo6JtJZNlyaP+9QzDTJh+85JSJYj3YqMXA/LzJY+n/KpvVcuMqTbHqOUPpt91N5bzX3TOUSyOU5Us0nt09HZnnRAbPIXNWQGOtozb4tKbW819pVzX/LWFkNMdgyje7SW/W01lBDCOzLBnRvemAPcJmGOyjiSFgmGZ5fwtpZj0s4yndK3+4ddyMd3rvFbWk4c4NQjUUKLPpzXB+kfz9NSdJXyWU4c4NQJiAaCeMYnuHtLXv3Z6R07ePRLO1Z+h+a5/YdREqclGY80c+pIUvyZCT58c1b1xyWV9FfKP1t6z50R+svqaH5qH9pwANf9EfqHEwPlKO7OYfp0dTQ9sY+SaICFgRF6etUfAFn5yAFa9sRXPtQ2ceogLFy7x83uWB4Lt4bpP7mTvU/tQxvy4+odpnco/UM/U/1QIlv5Zdc/KX1a+6XYhwDugVG6U86j2Gj5K6EpP8Lnnz1L4N3/xt1071Wb9e4gEAhyQtPS0vKAb6TazWef/C5HdKnXI/Te+Fvac/8O4hbzoMu/3XzK7KfbzWe+++84t2OGd3/zX/kw6eRpg8GwfXLlgM+X3/mHoiotf/+ZIl55O8Cf1nEAVqHbbT32yuVMh1xWJKRb1aC0ekLpixVqr28EpTzXM6jPpzzpVqFkO2RUSZ5MZ4Lk6szIh76F1T4lmlqbkTtWf2rXmPRZ3mzku+/aNGy1nGyrQr8mYIHuP4ysOHILlQdd/u1G2I/yh77Hd589TuDyz/nda3dZTKPzRvsmgUCQHz4BzggdklSBbs1GxQi+xTmWCv6zwg+6/NvNp9F+JVQ0PoJt8TID0ytXdTodRUX5OQZms4hEIgQC+T2wqv6gjv9YGeaHHWHc60hfyHbbDHsJBFtJwbXP+AGXiVlkWaUj4oFqi8XFlEraNOc3hPG7Q+R3Ifwm8KDLv90I+yE1HmeHfI/+mSUyDXI22jcJBIL8kOevaWwHAWR59gE+0f9Bl3+7+TTaL4h76PKah2cwGESvXzsXUkgEg/n+jrmGfRYNnaORdb9MFLLd8m8vgWArKcD2uc6tGA9UWwyHWXI/wEPOB13+7UbYD3noOn1ZY2y8bxIIBPnhE7AyQiAQJNBoNJSUlBTcTH8kEiEYDBIt0M9rFZrdCt1eAsFWsp3tU7RFgUAgEAg2j0/AygiBQJAgGo0+OEuJCwhhN4GgcBHtUyAQCASCTyaFMQ0oEAgEAoFAIBAIBAKB4FODcEYIBAKBQCAQCAQCgUAg2FKEM0IgEAgEAoFAIBAIBALBliLOjBAIBHmj0A6CTFDoh9AVmt0K3V4CgUCwnYhDVQUCgSA/FMabr0AgeODRaDTo9fqCGVAnU1RUhF6vR6NZ++X17aYQ7VbI9hIIBILtZLv7bNE/CwSCTxKF8/YrEAgeaEpKSrZbBEUKUcZClClBIcsmEAgE20Gh9IuFIodAIBBsBOGMEAgEOVFsOcqZr/+IJ/avvr7ps0Q1dtpam5A2kEUhrT5IoFqmPOifK+ux19lv23O6vt546eImfueSx3ri58p68t9smXK5d65levbb9ox/atKrDU9GI5VTf3oPe3ZkzieX+yvplo2N1vX1ypXrvTarjuVazrlQur+eluMWpG0ch2fuFyWaWttoa2vDXlODvc1OzbbIIRAIBKuxtv6Arz3TSrVhuyVZS37PjCjZxfGjT/NwtQ1daI6Rodd4u28Ef3Ic6QzfOPcktskX+dn1LlZ2vO3n/MVvcmD+dX55+SOW0ND88I856f0FL/TNAnt56sK3OKQFCCJ7h7h3949cnvGgZtdcWeP3+H5Lw9qA0E1efvMVRhXla+LJC9/hsBYgQtA/y+jQ67zVNxzXLyZv69Kv+MeeqTQSVHP63N9wImUkERz7PT+/1atCAyX9lfJXSr+f8xcv4un4KR8uAGg58MiPObbwM/7Q54xpaGjm0ZYnabHFy3fgj7w9OE5AlX0rOPbYjzhjXhXIvY/+M29NxyTQlO7l1OEnOWSzogvNMtj7Cm+POAgvy5etfiihVH5K+ivXv1X2CTsZ7vsjbw9NEFRRPqrr57r1i5Oxfu/lqQtfxHfl/+aSC6CEupb/lWcqPuKFD6/gjsfS1z/Nt75/Dv/ll3h7XFGoB4Bi9Hu/QstTrUiBS9z69YvLugJQuoe6x/8XdjbsQBtystD1Mn1Xewhsl7jbjbaSo9+oRX7zLqPmJloPLXLt1SnkpCjvPt/J2W/beff5zpyyTh6wpA5ecs0rkwzJ17INmNTebz165ptcZEjETTc4VMojk33SXd9qmxTbqrE/YSPUO8Hg3MbySlcPk22WT93y0VaUymK9qHEg5MMWud7HPzmP276Dh79gpKd9lNnFlMgq+qjNQmp6iGZvJ+0dDqCGLXcnKumuNbDz0V3U1xvQRoK4hxz0XnOxlPwSXWzi8NcaqHJPcfW1aZaWA/Q0PHOARv0sN/55AncUJPt+jhmnuNThBnTUf+EgeyqBaJSwvMjMvQn6e5YIqZF95y7OfK6S4jUBMvdf7GfSpyRf0v2BiN+Pezim32Ikdk2y7+eEeZp333OlEaCI2ieOcKAu5fLMBB++Oavima+kv1L+Sulj9pfudHJ3KJa04vhB7IaJuP2BklJ2ntjJ7l2llESCLAxOcv+GG39UnX1tjx2lZc/qrT8L1+5xszu4kv/JneyuK6UkHMDVN8H9W964bZTqRw72I135Kemvov6tsk+Ahf4pem65CURVlI/a+rlu/eIo1O/ye3foGowl0DXv4ZQ9wK1XxnFHUGz/Cz0fMnbha3zvRwd59e9/Q/dC4Zw5k0dnRC2nTn+bPfOv88YHE4SMp2g7/iUedvwdVzyJOBpq6o9j8EwTNJRTCiw/R0qtmAkRNu2gChihApNUzLwj/mZhqMSiHePD91/ifriUqvqnuXD8PFNvvcRgWFk639hL/Ha6GGjm7LkzLFz7LTe9QNiX9JDKIp/Oilk7zKX3XqY/rEWynuWC/SJHJ3/ONRlIyDvjzCCBFVPZLNcv/47bK7WLcNCTIX4Kivor5K+UvtSGpcjJ6LIxKrEYo7gm5uOmqeHkyWdpdr3Jmx3jRCpaufDQMxyd/gUfy2rsK3P32k/p1+7j3LkzuD/6Dde9Efy+RGOo4eSjX6Vp/k+80TGJxvoEF498nkOO33LHj3L9UEKp/JT0V7Jfqn1Mj3HB/gxHp5/j+qJy+airnxvQL1aImeu3oRKLdpY73tjPEutTPLXLS8f7V1cG59p9PPmdC/he/0+8cGVWlROwsNFRfvyvaDkhMdt1F/2+1HCJqnN/zW7dO9x/5Q/4DS3sOf+X7F34P7jb490OgbefaJQoEaJhiESiEIkSSRMtdYCU7XdqunTx1ZBu9js1r9T808mRy/3UDMaSHQCbMUjPJe9Mg+pk2yk5cJT+T80z9f65xFfKB4BiiabHqwnduM+dvsCafilXuyfbM139UStjJn1S88hFto2UxXqccErtOJuMm3WfiMfD6AeLyJ/Zx6FTFtzvzK8eKKrsozYDo1FC9m7jsyGr7hoq7I00mdx0vzXKUlEZu0/v5uDBJW7cS5qysEqYvT68JiOmkmmWgqtuQERnorpqEvd0+jeA+Ws93B8Dnc3KvtNNNHvv0jOu4m3BMcVHL0+jAWynDrJjfoDb9wPEJleS4mWVL3H/KMWSkYbW3RzwLHLjnvrpA++dfrr6kjINh3OafFDSXyn/ddsPDRX2BporPXS/M85isURDawMHvd3cuh9UZd+5j3u4ckuD7TMH2OEa4HZ3gIh/RVbTQw00mzx0vz3Ooq6cpjMN7HP30DWYGO4r1w919lt/+WW231r7ND7WwEG5m87eFR0zlo/a+rlR/RTq9zLFEg12I67OezFHBCj2fSFnFx2//1scz/6Erz7bytgvP6BQ3mTz54ww2zks9fLu+51MRAHPB1wbKl59A80ejuwKc+9eH4f2GZFIGgxJViyeQUYNtVjLYGTRisU4j0tOuDRtmIPTTLlduHHhvv8RY02nsOhgcAlFIiEP7hBQqqdMM0Ov04U71YmRTT6jFbN/ikmPCzfgXurCceQpVlbJWak0enDJGWqOZMWCg945F+71tFEl/ZXyV5He7HMyv+xCtGKW5pn3xuyvqTzGEX0Xb3beYALAc4Wu3eeXa5CyfcP4/S78WgNGZmNyJrnLNdZjHNV38ebtW0wCeDoZb/kcZSWAH+X6oYRS+Snor2S/tfa5Sk/j02h1xCqRQvmoqp8b0Q8U2p8Ns282pr+2iccfegh39y+4s7gibEnL53g48i6/vvpJcEQAmKmommPgn55jWvoytlRnhKYeU+0s46/+mTknwCQjLAXqowAAIABJREFU91o5ursBerq2Qd4CIBwmHIkQDkEkFIZQJOcXfaXBs5rBdSaHQ7YBWXL+yffJFJ4PUmUrhJUUyXqrkSd1EJtp5UC2tKnplOImp1GSr3iXjdqIkxv9ax0RqXmlkyPTPdLZKNOKHbXOto2ynrLI5qjIpZ2l+61GVjX3yZ0wczenkb9io8Y4z2jyG3Ue+qgHlqy6F1Nu0+HudzDrDAN+Bq7raSrXosG/3HbKao1Ep2aYDtZhrtEwNZbcqsK4pkLYGsrom04/TRL2B/F5I/i8kwzWWji0S6JnXMWQJxzCH48WCEEkGMTnXTsIzS7fyv3xzjE6VM3DlQbIwZ0Q8ae/r1qU9FfKf932owRzrY75uxPMzEYBH4NdRg4Z9UBQlX0jvgA+igiFIRoIpYTrMNXE83fG8h8ZsnGkphQGE5OqyvVDiY2WX2b7rbXPwF0TR82lMfskbJCpfFTWz43qp1S/Exj21bIj4uTGQNJASlXft0T/G28w9ZMnsFd+QMcGVxLmi/w5I6IRoppyjHoN+KKAi56uV1dF0dUeZ6/3Gs87i2k8Uo0EzMTDyow2SnxdDAfOU1teBGErZq2TsXh9NhitGLz9zCcyK9GjZwlfJq9RJoyxQacrzUAvm3w6yUqZp5s5QFNUTt3e09S5b3I50Qb1NsxaJ/cytD+NZMUszzK3zlGckv5K+Sull4xWdHIXy4vXJBuVOBmMj1aNpjrKFm4wvZzjJNcu/3btjbLYNyZnJSb/LK6UdXtGUx2l7hs4Ehf0FZTjZiS+9EmpfiihVH5K+ivZb619xrl86bkkvVWWv4L91qsfZK/fMf3uMo+exsNfZp/8Nr8fnl/1cm/b1QBDV5jKuQ6v3jsr93fQMSCvuQ4OOts7V+rAmnBATn4oZ8hXaqK1tZapjg4GstaPGSb+/ALRKKQ9iCF6j77f3Eu6oKFYrycc3KpNGuvUH5CaWmltTiiVbNc0aRw1Ku0FECYcCBMKQDQYIRyMkFxVcx3sJOKo/T+T00HNICmdLGqcF2rzyhYn8f9mOSS2ytGR60qSjZwVoNZhUlZZCrPzeNP0S6mz8WrrZ6Z6oVRfsjkuktOnky1XcimL9W4xyXVlRLatVtn0XZfTw7eIy7MLY6WG1YWfvY/aLGrsbdhrgJpW2poddLY7VkeQmmhtbV5+1Dg62+lcjpLcL8v093tprvXS0TGArPp5Btl1D+HzhDHuLEfX5yIQhcDYFN2r0hdjrtax0OvCFaphZ3UZq1+yivCPu9AdNWO6Jitsv4gS8IXQlq9d2L5+lORbQVNqpHqnFnefitnKTWGj+ueavhitFkKhlbawdH+Y6+u8u5r8w8EIWkPyjFcu9SM7Gy+/VPulsU/3AFc3IONGSK+fyvqtLafxSCnOj4fxrHruqez7PL2MzHyLHbuKYK4wXLX5c0YsXOPqtJ1zj/81u8ZucHfkJkNy8kt7Gfvr9zI68i/I/n3IxU2UaSFRWy2SFXlxiqnwAkdNNgjasCQNysxlVoLylZUl65INs9+5ZlCrhCRZ0Xlvrwwqc5AP6xf4wcXPU6TRElm8zusdl1bykayYA05cmRZGSFa0RjvfvPjY8jX3wK95vmdSldxK+ivlr5TeLNlYkp0ktj1pJCvmJSdzcftbjDZk2anon8xs3yQ55Tuk7tizGG3I3qT8y6uwJMmnVD+UUCo/Jf2V7KdkH7Xlr2S/9eqnVL/NZVawPc1fPf00MM3lf7tG6gYig8GA35frgyH2kmXs76B91ZtUmus1dtra7PGBcyycznYS73Q19jbsxuT0zXg72umUIXZwWCt2uZ1O1evOouT0mfaK0+ze52f6lf4cEq2XjejfxEPNXjrbO3CkyXNNWeR0ImZsfyQAE2Ncmlgdup5BcTrHQq4OjUQ6JQfGeper54Ka1QJKcTZra8dG81vvzPh67pNtu0QyWl3R/9/enUa3dd6J/f8CxEYAJAECXLSSIiTREiXakmXJohfZsSnHk62nmUzSZpozaeff/8ybeubtvOjpdnqmyzk9c87MNE1nJs00adJpppOlTuzQruMltGTLlkRZK0WKi0gR3AACuMQO9AVAEgQB3AsQpCD59znHxyIu7nOf57kPLvD87vM8l0Ss8BeB1kBV/rEL5aVcam241CiH/L83M52oUHvXOrqlnCBBocBgsWkkxfKY/97Sx8z86DYYdbAubF76GrVVvEMDDPX24wmtBdvXAsk2ujxweWAg8xuirZf+3l7aCn7XZa7lVDSAunTZF4am8Z/dwxNfaGZ+3I932Ic/Z/QjehuOljD+99IEEwqGXhsWFHKnw+uUJebC+2ltnWKbqras/LlO9/DMk6Cr0xGfusvFW+XdsWw83s0zj638lWb23U+4ebdaBdj69O+3zbaPzZ6/zdrq81OyfFrb92kd+vgCl8fyO8Bar31hIhEdZosZuF/BuvWquGaEn2sX/pR7LUfp3nWMF589yc3z3+bdxWz3zHqMnsYbnLsXgVSI5bgdq5lsZ8iM027HP7PAQmyGxl07sIWbqQ/dyHZaDTjtjfgX19ZjqLe5sIRuld1py3Q6F9kwxadk/upw2Bx4R/4bA1PLGEx7ONb7Ofo6P2DsVubnvtnupl4ZLpqfZpuL4MSP+MmdudXXElGt42PUy186fbX9zTjtNvyzawtB2u0u6pQJlgCw4bRZ8E2vpV1M0frNyWc0tJDX/DemX29zYQ7dyMlfqfahRu38qZVfrf5y8u/s55tPnqQeQHmP//nO2yyg/fyr1V9l5UOlfWfKN3v7u/xyuoWnnnqBRqsOlPU9dR0VPNO8rY02ZWT1jn3J170jjCh9tLWBl+z2nN601+sFe87+2Gjr68eTk6xis4F3lMGB0fLzWoqxk87f+CKma3/B+Mw2RJLbNlN+hRAeevv7GMm9m1bsXCjVra9ypkqsKDadodwRD2rH1jIyYjN38wsdo9L3bIVKOuf5++dTu0OuJY1NqfKcsUId43JH+OS/Xm6bKGf6TCV5qKSNquVJLT+b/VwVpavge2nbKYwOjWLr6qM/Z8QaUOBarzA64sWzcmGv5vVZ8XHtpyEcHU5aOls4csjF3TduMzaf/RC57TSFQoxFgNkQAaeDJiM5I5B16IgxOxbjWIedadVF+6pMNX/gvzTM7bugt9voOLWD7oMhLt8sY82I63e4nrNmQCJ/gdRN2ur076/Nt4/Nnj8t9J17eep0U+aPmSkG31pcHUGw1eenZPm0tu+5Jh4566TZBX4t6/cXUUuXzuo+TYMYvrmPODd3kbuJP+CLHR7eW7xOGh0te4/Ramri5bOHAR11dTGuWCATJnbRZIvgU5ZJRmZYamrHE3LldMpcOGxp/JNrXX2H3U1UGSwzppPpdPq8+WdPLX/NOOwJFiYn8YXSwDyD48f4ZusezHiJAk5bMzFlgcLt1kKT3Ypv+g6+UCVXb7Xyq6Wvtr8bpz2O/87avXCnLfdOvxunPXN+SitWvyuy+ZzNX+RzY/rNdhdRZT6bP7X2oUbt/KmVX0v9ZfMfPMffvXuRpr1f5QtWXzaYofX8q9VfpeVT//w5bEkWJybwBacZnn+JZ9o6eWtudN3v/FQ6jU6/1VcvhVCItU53ybeOZIaxbnGO0Ley8zd+l7bg33HpvdvbMuRXk6LlVxgaGGD1MXM2JROU2Obsqc1FLxU4KDQXP39/LcdRsy2dpTJt9ToTmwlIVDIyotxAT7H2UKwe0oBO5VeVlukDxaYOFBq5UKyjXukoh0poPRf5eSp2/rWMRlDbr9i2rVmbQodOR3mj2+6X7BQNRgYZGFiZSqjlS24LJOP4R2fxj84ze+IAjx51MpntjNW32jA1Wjj+tRZAh16XItYK3rwnZ0XGl4i+3ETjLfXDVfP8aMlfMhxjOZCCQIQbQw083e3AcnMWrb+8U+EYy4HqdX7zy19u+g9E+85TTvvIt9nzl69Q/aWmpvnoVS/Grr085mbdbbZqn/98pcqnuX3PzTE54ebgYQcT7/grmA6jR6/P/KavFdUJRtiPc/agkY8/Pk+mG5UilU6TTGV/tus6ObrbwJUL/5mLIQAL3Y/9Ls0mPZACvZvm+vnMIkQRL3OGPvY1Na51ynQunFYf86uLFTrY1dzA7IS2KQ5rXDhsMfxK3gB0tfzhwmldZH71TrEOu6WBSNif7awacNqb8C8W60S6cdqX8VcUiEBD+VXSV92/AZslgG/1+U5OWptMzN5ZeUSpHaspwNxq8mY8R7+JZ/H7/HIqty6L1O8qN057At/oUt7r+ek30OqwMzuZzZ9a+1Cldv5Uyq9afzn5TwTxhyK01DvwB7zZi4TW869WfxWWT6196zL7zylpIM6de6O8eOgRdlwdzSxGm7UcClK/y0HO7A51Xi/e3l48baPZ+bFtdHWFGB3NvP5ol3ftTn2bBw8zDCqAkr+fjS5PG6tDVzekC229vTA0hLesObYqdI24X/g9OureYuj/nM88Ims7bChfeeXvso8y6lUYHRyEvj7s9kL7ZM9FWWtGaFPO+gxaO8fF5u7nHzf/32qjMPJf05qX7VijQavtyksl6xSUek+hfdSmt+Rvj0cSGJsNrHxba823FlrLW6ytr7xfy/Ernd5Ubt6K5bHUNq1TZvLTqMaokOJtx4DZmiYeqZnwcHF2O7acUWm2tnZsRa/ledf6an2f6azsedZJ9MIUmbUFUwQXIujajZiBZepwtNXjv3iLW5OZLzr7EQ9dbfUwlXfbT/EzGzqAyxWn+B0hHSaLgUSsWiMJy8hfVjqRIq2vaExnFWy2/Pn7ZxYmNBjqIHtLpM5UR3J1e5JEAqyGtWlL9Qc7ONywyEcflfubspBM+vU56dcZ6kjEC3z+NLUPdevPn1r58+XXX079xBMsxxNYE5m1Fe7Xqgnry1dO+04xf3WBfS+3sKPBz2TZp9dBQ2MMJbiJk1Nl1QlGJM04dpzmZOcc5+dDWJpO8MzuJFc/zNxZNbY/zoHEED/yLmbvFOtYisIesw0IZtZbSC5wJQIww1xwF6edKYZX7lRbXTh0AabTDpoaGmnf28/j5kv8YrrM8TN1bpz1C+QvTKuaP6sLhz7ENA4arSYamk9xZm+Sqx+MZT+SLhw2WJ4z4rS716ol5icQS0CdC4c5gDftoNG6dtx41E9Yy/eoWvnV0letvxDLEScduzzcmljCvvOzPGa5ypve6Nr2mBtPxyOMjfuodz/LMzsUPrid9wkoUr9gpN5qw6jbjcu8xGyqiUZrnPCykl3DNpv+noOMTQawtX+G49Zr/Gommz+19qGl/kqeP5Xya6m/1fpZxOJ6hj73DJdueLWdH9X621z5NLVvFhnOFic2d4O7jz2Px/ELpn1rve+529dRzjxOd/05rmoekuRlaHCEvr5++lf+HvCSuXs/RG9/H/2enPcOrNzp9zI05KW/d2U/hZERL7QXSzc7Z7esiqvD2OjCUAc0WNDpwOJsJU6UmG+JJEYaTv0e3TvHGH71IklbMxaAZJioEs4ZNaKjZ5+eA8kUr02kK47gr7eJ8iujKJ5++ntXN2TnIhc5F2WtGaGuWAdEy1oKuftXMnVC7U5sqY5OLYyMKHdUQDWPkfv//PcX+neh9xQLGOWfx1LnRm1UQX7+FW+I2KEm3CY/syo3tAqd/3Lu2G+VcgIWhf5d6D3FRnqU04422x63Mmina2nCZQpxZ1b9vQX23oJrdgneEUY8ffRlv+wUrzdnRFv+dTn/Wl8l6RhJo5OuJ2IkhgJE9BZ2HWokOpudNquz4WiJsvRRhHD2p1VsRuFwtw0z4bw+ZZy58Ridj1pgYv1h6sxGLHYwuVzs2wcL71Tp4YEa85c5fhp9vZXdR5uIzoyuP79GI9ZGc84LKaKB+OqIR302/6uSSSKafqjnHr94+dXSL75/nCVvlH3d7bT4Flg2NbJ3LyydD69u98/E6Di8k5bgQubRnj2NJK5qX7lBbzFhMugw1IHOZMBiN5GKxojFAWIseWN0HNqBO7BI2NjA3k4d/guFPj3F24ea4udPrfzq9beufvRW9u43E7ixvC4YsdnzX3H5yvr8QXpxgbuzLXQctnP3fKis2Yr6juMcrL/JW3cK7bXN18as6gQjwhd460oLz+3/Ml89ZCASHOXqxb/mg8UEmYXzuglOfZu1wflpwtEoNrMdCKK3u2lSZrLz74PMLcUwOIP4sm1IZ3fRxD6eOfMKTycVFheGeOPc/2Wi3LEp1maaUgtcXVe76vnD7saBhzPPvcKZdBQlNMGNy9/n3MpzIHVunFYdnT2/T2dOyt7rf8LfjPrB7sZJOx19r3BydWuET87/O97ScHNftfwq6avX310+unKesz1/n691grJ0i3Mfvsbqo4MZ58PL79N/+At8eY+OcOAWFz94lWv5HdKC9QtYT/Cl58/Skv1z96lXOJ74mB+//jMmV9M/R//hL/HlDlCWbvD++V8ykv1hqdY+VKmdP5Xyq9ffWv385l4DkeAwVy78kMvK2vE1nf9i9bep8qm3b53dRVNkkaWVK3LsFncWv8Cx9l2861tbuSc9+kveHv8XnP3qs8x87x0WtH7+is559WanExThHSJ/82huMsXS1TzH1sWOz/8RHc1rr3R//QRwhRt/9pfMpRtwdOxE37CT7q8dX3uTf4CPv/fq2o9Jo56Xeww4h2P8WMNRNau0/GQCEwVrttA+VZyTXKjjUUknaCsUG5FRyV3sYvtXM39aj1VOHgpNjylnLYBy6qvcQE+hgEipwMkq7xzj8914TrsIvrdQNMBfSce6nJEgm1FOm8vNh5ZzoRacKERL4FDL5zo/wFS1a0B9A/tPuUheG2GukvXttuia7R0ayFk0OPeJGgqjgwPFp8rlX4PbetfWAqra9TnBvcFxTE+0c7C/DSMJQhPTfHIx25Fx23CkFbw5A1eT82FCfQ00GeaZzfu+j477UY7v3BDLdp7o5tTjaRLLERY+vsPIVJWGE2rMn/NEN6dOQDoWJzg1zbXLyvqO2o4dPPHFHWt/J3xc+eEkKyt42Y94OHUk5/1z07z/+rzmh0uqlV8t/VL7Bz+ZYMS6C8+LBzAkY/hvTTAyvnLBSxMYGue2aRddzx/AmI6xNDrBzWHtH5Dmx7vp2ZcdR9LexalHYOnCdS7dyKSxdHmckZM72f/iAQyJKP7hcYY3LKKYUax9qCl1/kqXP2f/gvWXVz/ECIxOciNvPYrNnv+Ky1fm5w/izFzz0flsK22XQsxoHOSgazjCZ79yhtjb/5FrhfoaW/V7Vi1fPT09tTNppCJ7ePaFb3DElP96iuGLf8xA+c8h3GYPev7vt4e9/mqsfKY9PPmNf8ZzO+Z4+zv/nvdzVhm2WCzbm5cKRSLVjfXqWwz8+ZN6fvJmjF9UsNhRrddbJfVVzhz5StYhyN1PbfREqc7yZjv3Wmm5A78VQ/m1pqNl9EKxQFM5dah1lIRaOhsY6tn9TCedzhhjvxrhbs7awJUep1S71NqmKu2EV9JeKg1Kad233DaqJTCpNZiV+x5Txx4ee7KJxPAYVy6GiFfwFVhb12wbXX0elMH1j1+25zyquZRqf59tGXc7J/tbMG/YsMSNH04wV+s/1R70/N9vD3v9PQDla3j0d/jGV44TO/ctvv/qNZYL5Gmz18ZKPQTBCBM2WyOmDZPCUkSWFwnXxiNUS3jQ83+/Pez1V4vlM9LY+Tju5XOM5gyRNZlM6PX64rvVgFQqRSxW3cWJ9j5i4l82J3llMEmggv1rud62or6E2Bp6zC1NWKM+fJV8EMUDwdTShD0aZDFQ+ZdfzV2zswtcrtxFVjQGIh6o63NdHfU2Q4H1G5JEA4naWRi6mAc9//fbw15/D0D5bJ3H2aFcZ2QuXHRax2avjZV6CIIRQohaoNPpMJs3xoVrSTQaJV3VFYR1vHDaRO/dGP9psrJ0a7neql9fQghxPz0812y5Pgshqmfz18aKjyzBCCFEteh0OoxGY83d6U+lUsTj8Zr94VZr9Vbr9SWEEPfT/bxmy/VZCPEwqc4ClkIIAaTT6Qdn2GgNkXoTQogHh1yzhRCiOmrjNpwQQgghhBBCCCE+NSQYIYQQQgghhBBCiG0lwQghhBBCCCGEEEJsK1kzQogaUmsLGa6o9QWzaq3ear2+RG2TxfGEEEII8WlQG7/chRCrjwurlQ51Lr1ej9lsRqfb+BTl+60W662W60vUtvvdnqXtCiGEEGK71M6vdyE+5YxG4/3OgqpazGMt5mlFLedN1KZaaTO1kg8hhBBCPLwkGCHENqtzHuXpr/4hzx9c//qW3wlt66W/rwvbJpKopdEHKzTnqQrlL1cl9XXmt3vLer3S9xV678rf5aRRzvurle6Z3+7VXE9qxyw3T1uteJux0dXXT39/P71tbfT299J2X/IhhKg2V9/v8luf76PVcr9zIoQQ26u6a0YYd3P86Od4rNWNKbHIxNirvHl7gmjue2xP87XnXsB970f82cdXWZuVepCzL/8Dun0/5y/OfUgYHZ7H/oiTof/CD27PA/t58aWvc8gAEEcJjXH92s84NxdEy8xWa+fv8E96OjZuSFzix6//hEnV/HXxwkv/iMMGgBTx6DyTYz/njdvj2fJl8tsX/kv++82ZAjlo5fRzv8+JvJ5Q/O7/4FuXhzWUQK38aumr7X+Qsy+/THDwT3h/CcBA9+N/xLGlP+OHtxcyJbR4eKLnBXrc2fM7+jPevDNFTFP9NnLsqT/kace6jVz/8N/yxmwmB7r6/Zw6/AKH3C5MiXnuDP+ENye8JFfzV6p9aFCyfaqVP7f+0qQSQebu/YqBTy7iS2mp/wzz3s/x9X/yHNFzf8ubU9qyXdvqMO//Mj0v9mGLvcflv/oRgdVtRtq+8B84mNcs5l/7A67f3uZs1gpDM0e/1o7y+jUmHV30HVrmwk9nUHLe8vb3hjjz2728/b2hspLO7VTnd7DLTatYHnJfK9XpL3Y8rWXLf4+W8hTaZzN1WPB4Gs7fVrF1PYonNMTAoBdoY9tDKGplN1jY+cRu9u61YEjFCYx5Gb7gJ5z7BV3XxOHf6qAlMMMHr84SXt1gpuPz3XSa57n4v6cJpMHWe5Bj9hneGwwAJvb+xiPsawbSaZLKMnPXpxm5GSahJe87d/P0Z5qp27BB4daPRrgXUctfzvGBVDRKYDxTvuVU5jVb70FOOGZ5+x1/gQzoaX/+CN278l6em+b91+eJqRZArfxq6avtn6l/2ydDXBvL7Np4/BF6LdPZ+geM9ew8sZM9u+sxpuIs3bnHrYsBomlt9et+6ig9+9ZP/Vm6cJ1LN+Jr6Z/cyZ5d9RiTMfy3p7l1OZStG7X2oUHJ9qlW/vXnP51MsDy9wO3zXvwRLfWP6udn6eb73H3pt/idP3yEn/75d7ixJGu2CCE+HaoYjGjn1OnfZp/v57z262kS9lP0H/8ij3n/lPPBlffoaNt7HEtwlrilgXpgeWVTvQsHCZJNO2gBJmikyVaHz7uY2W5pxmm4y/vv/i23kvW07P0cLx0/y8wbf8udpHruInf/lu/O1gEezjz3NEsXvsulEJCM5PyQLJE/kwuHYZz33vkxI0kDNtcZXup9maP3vsUFBVjJ79xCkRy4aLLO8/G573Nl7RcOyXiwyPvzqJZfJX21/evdOPULTK5WRjNOexr/tC9bNW2cPPkVPP7XeX1wilRjHy89+nmOzv4XPlK01K/CtQt/wojhAM899zSBD7/Dx6EU0cjKF24bJ5/4Tbp8v+C1wXvoXM/z8pHPcsj7XT6Jot4+VKm0T7XyW5pxGib49Tt/x+2kDqO1h2cf/zxP+67zs8mIev0DGA7wwj96icjP/xU/OD+vKYhW20w0HP//6DlhY/7qNcwH8rcnmH/jX7FkBDBjO/o19u+exHtv+3NaM9Jp0qRIJyGVSkMqTarA20p1qkt1sgt19ssdtZAf1MhNKz/9YkEBtWMXel0tcFDu9nIDEcX2W5dXjedvK9jtNpRQaJuOVkDJsuto7O2kqynAjTcmCeut7Dm9h0ceCXPxes7tCJcNRyhCqMlOk3GWcHzdAUiZmmhtuUdgtvDV0XfhJrfugsnt4sDpLjyha9yc0nAl9c7w4Y9n0QHuU4+wwzfKlVsxMjcWct5XMn8rx09TZ7PT0beH7uAyF6+rhxJWhD4Z4ertnESTSQ2BiPzjFy+/WvoV1x86Gns78DQHufHWFMt1Njr6OngkdIPLt+Ka6nfxo5ucv6zD/WQ3O/yjXLkRIxVdy2vTox14moLceHOKZVMDXU93cCBwk6t3VsJN6u2jdP41tE8VK+dfZ7TQemIPR56Mce5XvtWAWMn6V7l2JBauMvg//hjvV/45v/mVPu7+xa+5j592IYTYNtULRjh6OWwb5u13h5hOA8Ffc2Gsbv0BdPs4sjvJ9eu3OXTAjo2czr7NhTN4h0lLOy4rTCy7cNp9+JWV2w5uHPFZZgJ+AvgJ3PqQu12ncJrgThhVqUSQQAKoN2PVzTG84CeQH8QolT+7C0d0hntBPwEgEL6K98iLrI1kddFsD+JX8n695JYPL8OLfgKV9ELVyq+Wvob9HZEFfKu3mVw4bD58oUz965qPccR8ldeHLjINEDzP1T1nV1uQev0miUb9RA0W7Mxn8plzS0vnOsZR81Vev3KZewDBIaZ6PoPVCERRbx9q1NqnSvmxuXGEp5jKnn+WP2FCeYHOOiMQ0XR+jT2f4bHU2/zVBw9DIALAQWPLIqN/821mbV/CvSEYkSYZXiQZbcZ95h+y1/hrrvzoHMsagocPrWSSZCpFMgGpRBISqbI7s2qjC7SMPigWcMgd9VAq/dzjFNte7G+1/FSi2CiNQqM4Cr1WasTHOlU4fw+skmWvo8FtIjDiZX4hCUQZ/dhMV4MBHdHV65213U56Zo7Z+C4cbTpm7uZeCZP4ZxK4O6zcni081iQZjRMJpYiE7nGn3cmh3TZuTmnosiUTRLNviyUgFY/KeCD5AAAV20lEQVQTCW0MA5TO39rxCS0yOdbKY80WKCOckIoWPq5WauVXS7/i+sOIo92E79o0c/NpIMKdq3YO2c1AXFP9piIxIuhJJCEdS+RtN9HUlk1/IZP+xJibI231cGcloK/ePorT1j7VrJ5/YoxfC7C3z4odHytjYUrWv6ZrR5iR115j5p8/T2/zrxnUeq9FCCEeYNULRqRTpHUN2M06iKQBPzev/nTdW0ztx9kfusD3FuroPNKKDZjLbrPa3RgjVxmPnaW9QQ9JFw7DAnez3zkWuwtLaATfSmJGM2bCRIr0/YuyZzqd/gIdolL5M9lcWIM3WAR0+gZ27T/NrsAlzq18T5rdOAwLXC/yHamzuXAo8yxW2AtVK79a+mr72+wuTMrV1S9VbG6aWeBONhpjb9qFdekis6sp3uPCue9uPFCJ+s3ks5mm6Dz+vLG19qZd1Acu4l15wdxIAwEmssNn1dqHKpX2qVZ+i92FOXCZzLgXM86dz3HEfpdLs8FsudTPr3t3B4ydZ6bsNrB+frgyMsjgqLLhdfAyNDC0VocbtgNK7g/PIunauujra2dmcJDRkvU7x/Qvf0A6DSUXYmh/nv09u9AHn2Lv0XsMXxpne+IRFZYfsHX10edZKVRuvRbYx9umsb4AkiRjSRIxSMdTJOOpdXVRyVSDYiMRCv27WNBBSzCgUF7UghdaRyeUGmFRah2LQuUplq9CozzKeT2j9PnbKm29/fS2AW199Hu8DA1417/B1kVfn2f1Y+gdGmBo9S25bVZhZCSEpz3E4OAoiubPOpQue4JIMIl9ZwOm235iaYjdneHGuv3rcLSaWBr240+0sbPVyvoLuJ7olB/TUQdNFxSV6RdpYpEEhoaNEwMqp5a/Nbp6O607DQRua7gTsiU2W/5y96/DYIBEYu3LK3xrnI8rPLqW9JPxFAZL7rol5bSPfFraZznZNdHaaUO3NI/2FqDx2hEcZmLu6+zYrYfFT02oUwjxKVa9YMTSBT6Y7eW5Z/4pu+9e5NrEJcaU3AixlYN79zM58X9QogdQ6rqwGmDlG8Vpc6EszzCTXOJokxvibpw5nVqH1UVcOb82pcLmxhFd2NCpVWOzuTCFrqx1ysvIH67f4Hdf/ix6nYHU8sf8fPC9tXRsLhyxBfzFBkbYXBjsvfyDl59afS0w+ld876a2Metq5VdLX21/h81NWFlgZeqszubCEV5gMVv/TrsbRVlQvQdUvH5z8ql8Qv6sWqfdjRLKSb+hBWdO/tTahyqV9qlWfofVha7tS/zTl78A+jrSkXGGPv5fDC3nlEvl/FosFqKRcn+8ZjoS9pFBBtb1Fgq83tZLf39vtuOc2c7QACv9lrbefnrtuft7CA0OMKRAZnG8PnqVAYY0jw1NZwIRamZ/yeXvv4+ppQ/PZ/4x++b+Dbenyo0ilmsz5e/iUU+IoYFBvAXS3HAuyloRMzOHGoDpu7w3vX5rJetFFAoslBvQWNlPLYBR7poR5Yx4KDWiolDZCh0/txxvf2+oovosVQdq52+reIcGGOrtxxNaC0SuBdlsdHng8sBA5vre1kt/by9tBa8DmXZORQPAS5d9YWga/9k9PPGFZubH/XiHffiXcy4QehuOljD+99IEEwqGXhsWlNVrLoBOWWIuvJ/W1im2qWrLyp/rdA/PPAm6Oh3xqbtcvFXedazxeDfPPLbyV5rZdz/h5t1qFWDr07/fNtM+VNunBqvnX68jGfBz652FdWuila5/rdeOMJGIDrPFDGWEOoQQ4kFVxTUj/Fy78KfcazlK965jvPjsSW6e/zbvLmY7fNZj9DTe4Ny9CKRCLMftWM1kO/tmnHY7/pkFFmIzNO7agS3cTH3oRrbTasBpb8S/uLYeQ73NhSV0q2int5hMp3ORDbMES+avDofNgXfkvzEwtYzBtIdjvZ+jr/MDxm5luitmu5t6ZbhofpptLoITP+Ind+ZWX0tEtY7BUy9/6fTV9jfjtNvwz64tBGm3u6hTJlgCwIbTZsE3vZZ2MUXrNyef0dBC3lfsxvTrbS7MoRs5+SvVPrQo1T7Vyp+pv6kb/5W3vO2cfuos4ct/za/n137IaDm/OtYv3qVJWxttysjqHfuSr3tHGFH6aGsDL9ntOb1pr9cL9pz9sdHW148nJ1nFZgPvKIMDo+XntZhEkLAvSNj3vxnvPIWncydMjVcv/ULaNlN+hRAeevv7GMm9Y1zsXCjVra9ypkqsyJ9qUemIh3JHOhQbgVDs/WrlqpTa2hbl7K+l/muLwujQKLauPvpzRvMABT4HCqMjXjwrjb6abVfxce2nIRwdTlo6WzhyyMXdN24ztnKddNtpCoUYiwCzIQJOB01GckY36tARY3YsxrEOO9ORIsfZKqr5A/+lYW7fBb3dRsepHXQfDHH5ZhlrRly/w/WcNQUSyyXeXIGtTv/+2mT7UGufGvgvDXN72sq+l9pJfDTJTN4ik9Wsf10FPxeEEOJBVN2naRDDN/cR5+YucjfxB3yxw8N7i9dJo6Nl7zFaTU28fPYwoKOuLsYVC2Ru5bhoskXwKcskIzMsNbXjCblyOrUuHLY0/sm1rr7D7iaqDJYZN850On3e/KcvqOWvGYc9wcLkJL5QGphncPwY32zdgxkvUcBpayamLFD4u8dCk92Kb/oOvlAlv7DUyq+Wvtr+bpz2OP47a4stOm25IyHcOO2Z81Nasfpdkc3nbP4inxvTb7a7iCorQyDV2odWxdqnWvldOGxRFu/cwxda4M7i5znZshPmVx6Hoe38ptJpdPqt/oWhEAqx1uku+daRzFDtrcqKzoih3kgqvEwqDZAirgQxWLbz4ZolFC2/wtDAAKuPUrQpmaDENmdPbc2HUp3mUgtMruyj5ThqtCxWWSyPWtPWEtAoVBflTG8ptuBnqTzUjOwUDUYGGRhYmWal5QKwBZJx/KOz+EfnmT1xgEePOpl8a5EkUN9qw9Ro4fjXWgAdel2KWCt4854qFBlfIvpyE4231A+naWSWRlrylwzHWA6kIBDhxlADT3c7sNycReu3eiocYzlQ+ZoR+fLLX2761ay/7VJO+9igRPvUtHs4xrI/yr2JHRw+0MTtaf+6fatzfvXo9ZnfC0II8WlQnQeJ249z9vgp3KsvpEil0yRT2cu0rpOjuw1cufCf+cG73+IH736HD/31WE3Zw+vdNNfP4w8BIS9zhnb2NTXiC2U7tToXTquPxdXFCh3sam5gdqncZfldOGwx/EreEyzU8ocLp3WRJWXly0GH3dJAJOzPdlYNOO1N+EPFOuFunPZl/BUFItBQfpX0VfdvwGYJEFx9BpuT1iYTs/6VR5TasZoCKKvJm/Ec/T3O7mrIO1CR+l3lxmlP4Ast5b2en34DrQ77Wv7U2ocatfapVv5s/S0tA8S4uzBNY4uHtaeUaju/y6Eg9Y2O8iKAXi9emwfP6pjsNrq6bKuvP9qV07Fv8+BhBq9SaD8bXZ62EulCW292Xrmti77+Pro2GzPQP0r3N/+A3c0rL9RhtNmJR7bhdt0my9/VBqAwOjjIiGLDbi+0T/ZcVKu+cpRaH6HYKAC1//LTKtbJz12joVA+8jvxuZ3/ckYiFMtbfnnLSa9UvgulX2rkSTnlua/sdmzKCJdX1jtpa1+bOaT2OahW29VZ2XNmF62r6aQILkTQ2YyYAajD0VaP/+IwH706zEev3uL6aBpHW/3GtBQ/s6EmXK5SnTEdJouBRKxac+rLyF9WOpEira9ovFsVbLb8+ftnFlY0GNbWkKgz1ZFc3Z4kkQCDYa209Qc7ePzx/N8AlcqkX5eTfp2hjkS8QJhAU/vIo9o+1cqfK41vxEdyt4vW4s1jExw0NMZQguXdahFCiAdVdUZGJM04dpzmZOcc5+dDWJpO8MzuJFc/HCUNGNsf50BiiB95F7PD3nUsRWGP2QYEM+stJBe4EgGYYS64i9POFMMrd6qtLhy6ANNpB00NjbTv7edx8yV+MV1mp6bOjbN+gfzFo1XzZ3Xh0IeYxkGj1URD8ynO7E1y9YOx7CrMLhw2WJ4z4rSvdXmTMT+BWALqXDjMAbxpB43WtePGo37CWkLyauVXS1+1/kIsR5x07PJwa2IJ+87P8pjlKm96o2vbY248HY8wNu6j3v0sz+xQ+OB2XtChSP2CkXqrDaNuNy7zErOpJhqtccLLCvHc9PccZGwygK39Mxy3XuNXMysLMqi0DzUq7VO1/FYXDha5mc1OcOEOgUP72Wt5J/OMcY3nd+72dZQzj9Ndf46rmof0eBkaHKGvr5/+lb8HvGTu3g/R299HvyfnvQMrd/q9DA156e9d2U9hZMQL7cXSzc5L15otAOowNrow1AENFnQ6sDhbiRMl5lsimbzFwuRv0dn3AsH3r5FwnqbDo7DwdxN56ejo2afnQDLFaxNpzXcZS9tE+ZVRFE8//b2rG7Lz7YuciyoP9Cg2ikDtLn2ptSO0rt2gNkWh1GNDN7M+RDn7FRsJUmqqiNaFQLVObSltK9pzCd4RRjx99GUvBIrXmzPaJ7/N5n8OqiQdI2l00vVEjMRQgIjewq5DjURns1PydDYcLVGWPooQzl62YzMKh7ttmAnnjXCLMzceo/NRC+RdKurMRix2MLlc7NsHC+9U6eGHGvOXOX4afb2V3UebiM6Mrj+/RiPWRnPOCymigfjq3XN9Nv+rkkkimn4E5B6/ePnV0i++f5wlb5R93e20+BZYNjWydy8snQ+vbvfPxOg4vJOW4ELm0Z49jSSual+5QW8xYTLoMNSBzmTAYjeRisaIxQFiLHljdBzagTuwSNjYwN5OHf4LhT49xdtHUWrtU7X8ecnN+vCG3Oz0mLn3yVrr3ez5BdB3HOdg/U3eulMo2LLN1xYhhNgG1QlGhC/w1pUWntv/Zb56yEAkOMrVi3/NB4sJMgtDdhOc+jZrg/PThKNRbGY7EERvd9OkzGTXBwgytxTD4Aziy35P6uwumtjHM2de4emkwuLCEG+c+79MlLl4JdZmmlILXF13BVfPH3Y3Djycee4VzqSjKKEJblz+PudWngOpc+O06ujs+X06c1L2Xv8T/mbUD3Y3Ttrp6HuFk6tbI3xy/t/xloab+6rlV0lfvf7u8tGV85zt+ft8rROUpVuc+/A1Vh/vzTgfXn6f/sNf4Mt7dIQDt7j4watcy/+eLli/gPUEX3r+LC3ZP3efeoXjiY/58es/Y3I1/XP0H/4SX+4AZekG75//JSPZ0Y5q7UNVyfapXn6d3UVTOPtIT4DAGFPxp+lwWxi6G9F8ftOjv+Tt8X/B2a8+y8z33mFBa/stOq/bm51OUIR3iPzNo7nJFEtX8zxyFzs+/0d0NK+90v31E8AVbvzZXzKXDjDzxl9i/szfo/srL6NfnmL+nf/K2Eze3Sajnpd7DDiHY/xYw1E1q7T8ZAITBWu20D5VnHdfqNNcK1MFtKzLUCz/lSwkWSjNUmnlBhLUFr/UcsyKbVF79g4N5CyomvtEDYXRwYHi04jy22db79o6KVVruwnuDY5jeqKdg/1tGEkQmpjmk4uhTMDXbcORVvDmDIpLzocJ9TXQZJhnNu9aGB33oxzfuSHO5zzRzanH0ySWIyx8fIeRqSoNZdeYP+eJbk6dgHQsTnBqmmuXlfWPhdyxgye+uGPt74SPKz+cZGX1IPsRD6eO5Lx/bpr3X5/X/HBQtfKrpV9q/+AnE4xYd+F58QCGZAz/rQlGxlc60mkCQ+PcNu2i6/kDGNMxlkYnuDmsfQHP5se76dmXHfnQ3sWpR2DpwnUu3ciksXR5nJGTO9n/4gEMiSj+4XGGxwp/SRZrH8WptE/V8ucLMzMaYc+BZhqu3iOYTWSz51fXcITPfuUMsbf/I9cKRRq26rtSCCHuI11PT88DPjFtD8++8A2OmPJfTzF88Y8ZKP85itvsQc///faA1Z9pD09+45/x3I453v7Ov+f9nJXOLRbL/ctXGSKR6t6P0bcY+PMn9fzkzRi/qGAGR63XWyX1Vc6aDpWOSCj0GEy1ffKPqzZ6otRIimLHKbZ/qcBHsUd6qgVLij0BpNynkeSqrfZso6vPgzK4/tG09pzH2JZS7c/6lnG3c7K/BfOGDUvc+OEEczX2NbDBg57/++0hqL+GR3+Hb3zlOLFz3+L7r16j0IM+NnttEUKIWvQQBCNM2GyNmDZM3EwRWV4kXPOPaX7Q83+/PYj1Z6Sx83Hcy+cYnV171WQyoddXZxmXrZJKpYjFqrcAG8DeR0z8y+Ykrwwm10aflKGW620r6kvUtpprz9kFLlfuIisaAxEPVNutq6PeZiiwfkOSaCCheYHC++ZBz//99hDUn63zODuU64zMhSn2o3yz1xYhhKhFVX6axv0QQ1Hmt+6JAFvuQc///fYg1l+cwNi5DT8m4vE4ZvPGezu1JB7XPixXGx0HnDqGJlMV/7iq5Xqrfn2J2laD7bnCqRgPVNtNJgkHHoQuZxEPev7vt4eg/pSxj7ld8h2bv7YIIUQteghGRgjx8NDpdBiNxpq7059KpYjH46Rr9HFjtVZvtV5forbdz/YsbVcIIYQQ2+UhGBkhxMMjnU4/OEOja4jUm3iYSHsWQgghxKdBbdxGFEIIIYQQQgghxKeGBCOEEEIIIYQQQgixrSQYIYQQQgghhBBCiG0lwQghhBBCCCGEEEJsKwlGCCGEEEIIIYQQYltJMEIIIYQQQgghhBDbSoIRQgghhBBCCCGE2FYSjBBCCCGEEEIIIcS2kmCEEEIIIYQQQgghtlV1gxHGOv7/fjPfeqqO9qomLIQQQgghhBBCiIeFoaqp1aVxmcCc0lFf1YSFEEIIIYQQQgjxsND19PSkq5mg0QT2NPji1UxVCCGEEEIIIYQQD4vqjowA4jHwVTtRIYQQQgghhBBCPDRkAUshhBBCCCGEEEJsKwlGCCGEEEIIIYQQYltVORih44UnTPzr43U4qpuwEEIIIYQQQgghHhLVDUYYdDzariMdSOGvasJCCCGEEEIIIYR4WFQ3GOHQ4yHN+9NVfUCHEEIIIYQQQgghHiJVDUa0O3XYfEnOLVczVSGEEEIIIYQQQjxMqhqM6HLouTWVkkd7CiGEEEIIIYQQoihdT0+PzKkQQgghhBBCCCHEtpFHewohhBBCCCGEEGJbSTBCCCGEEEIIIYQQ20qCEUIIIYQQQgghhNhWEowQQgghhBBCCCHEtpJghBBCCCGEEEIIIbaVBCOEEEIIIYQQQgixrSQYIYQQQgghhBBCiG0lwQghhBBCCCGEEEJsKwlGCCGEEEIIIYQQYltJMEIIIYQQQgghhBDbSoIRQgghhBBCCCGE2FYSjBBCCCGEEEIIIcS2kmCEEEIIIYQQQgghtpUEI4QQQgghhBBCCLGtJBghhBBCCCGEEEKIbSXBCCGEEEIIIYQQQmwrCUYIIYQQQgghhBBiW0kwQgghhBBCCCGEENtKghFCCCGEEEIIIYTYVhKMEEIIIYQQQgghxLb6f1qt4Au35NuJAAAAAElFTkSuQmCC;" vertex="1" parent="1">
          <mxGeometry x="-250" y="-60" width="1059" height="144" as="geometry" />
        </mxCell>
        <mxCell id="bkrwEYgjUg95MWWJ3bJO-8" value="进入（生成）" style="edgeStyle=orthogonalEdgeStyle;rounded=0;orthogonalLoop=1;jettySize=auto;html=1;" edge="1" parent="1" source="bkrwEYgjUg95MWWJ3bJO-6" target="bkrwEYgjUg95MWWJ3bJO-7">
          <mxGeometry relative="1" as="geometry" />
        </mxCell>
        <mxCell id="bkrwEYgjUg95MWWJ3bJO-6" value="沙盘Round源数据&lt;br&gt;&lt;b&gt;&lt;font color=&quot;#ff3333&quot;&gt;(type=10 tatus =3)&lt;/font&gt;&lt;/b&gt;" style="rounded=0;whiteSpace=wrap;html=1;" vertex="1" parent="1">
          <mxGeometry x="-230" y="-430" width="120" height="60" as="geometry" />
        </mxCell>
        <mxCell id="bkrwEYgjUg95MWWJ3bJO-10" value="" style="edgeStyle=orthogonalEdgeStyle;rounded=0;orthogonalLoop=1;jettySize=auto;html=1;" edge="1" parent="1" source="bkrwEYgjUg95MWWJ3bJO-7" target="bkrwEYgjUg95MWWJ3bJO-9">
          <mxGeometry relative="1" as="geometry" />
        </mxCell>
        <mxCell id="bkrwEYgjUg95MWWJ3bJO-17" value="计算（生成/修改）" style="edgeLabel;html=1;align=center;verticalAlign=middle;resizable=0;points=[];" vertex="1" connectable="0" parent="bkrwEYgjUg95MWWJ3bJO-10">
          <mxGeometry x="-0.2062" y="3" relative="1" as="geometry">
            <mxPoint x="7" as="offset" />
          </mxGeometry>
        </mxCell>
        <mxCell id="bkrwEYgjUg95MWWJ3bJO-12" value="定版（生成）" style="edgeStyle=orthogonalEdgeStyle;rounded=0;orthogonalLoop=1;jettySize=auto;html=1;" edge="1" parent="1" source="bkrwEYgjUg95MWWJ3bJO-7" target="bkrwEYgjUg95MWWJ3bJO-11">
          <mxGeometry relative="1" as="geometry" />
        </mxCell>
        <mxCell id="bkrwEYgjUg95MWWJ3bJO-7" value="个人测算版本&lt;br&gt;&lt;b&gt;&lt;font color=&quot;#ff3333&quot;&gt;(type=11 tatus =3)&lt;/font&gt;&lt;/b&gt;" style="rounded=0;whiteSpace=wrap;html=1;" vertex="1" parent="1">
          <mxGeometry x="60" y="-430" width="120" height="60" as="geometry" />
        </mxCell>
        <mxCell id="bkrwEYgjUg95MWWJ3bJO-13" style="edgeStyle=orthogonalEdgeStyle;rounded=0;orthogonalLoop=1;jettySize=auto;html=1;exitX=0;exitY=0.75;exitDx=0;exitDy=0;entryX=1;entryY=0.75;entryDx=0;entryDy=0;" edge="1" parent="1" source="bkrwEYgjUg95MWWJ3bJO-9" target="bkrwEYgjUg95MWWJ3bJO-7">
          <mxGeometry relative="1" as="geometry" />
        </mxCell>
        <mxCell id="bkrwEYgjUg95MWWJ3bJO-21" value="保存（覆盖更新）" style="edgeLabel;html=1;align=center;verticalAlign=middle;resizable=0;points=[];" vertex="1" connectable="0" parent="bkrwEYgjUg95MWWJ3bJO-13">
          <mxGeometry x="0.1281" y="1" relative="1" as="geometry">
            <mxPoint as="offset" />
          </mxGeometry>
        </mxCell>
        <mxCell id="bkrwEYgjUg95MWWJ3bJO-9" value="个人测算副本&lt;br&gt;&lt;b&gt;&lt;font color=&quot;#ff3333&quot;&gt;(type=12 tatus =3)&lt;/font&gt;&lt;/b&gt;" style="whiteSpace=wrap;html=1;rounded=0;" vertex="1" parent="1">
          <mxGeometry x="414" y="-430" width="120" height="60" as="geometry" />
        </mxCell>
        <mxCell id="bkrwEYgjUg95MWWJ3bJO-11" value="沙盘Round定版版本&lt;br&gt;&lt;font color=&quot;#ff3333&quot;&gt;（type=13 status=3）&lt;/font&gt;" style="whiteSpace=wrap;html=1;rounded=0;" vertex="1" parent="1">
          <mxGeometry x="60" y="-240" width="120" height="60" as="geometry" />
        </mxCell>
        <mxCell id="bkrwEYgjUg95MWWJ3bJO-16" value="" style="shape=image;verticalLabelPosition=bottom;labelBackgroundColor=default;verticalAlign=top;aspect=fixed;imageAspect=0;image=data:image/png,iVBORw0KGgoAAAANSUhEUgAABHsAAAG5CAYAAAAeSTj2AAAgAElEQVR4nOzdT2gjWZ7o+69fNQyUqa5alGeRRpWaRQ2dCkHPQLrg2gs7edxZ9Cxsv6mQzF207WVlke7eeNFdeQkFL5mCEjy6DZm1dLrgDZaiGqcX3TwGHrYX1oW0YaZAoZzuWqRspb1oF0xWV7ugeQznLSJCigiFFCFLdtrO3wdEpuJEnHMi4lh2/HT+DCmlFAPw7bfftm07PT3lhz/8YfvOGz/lrZ9uJMp39ovv+GIW4BmffvApP3r6BbM849MP5mHtKb+41cyUn761wex3XzB71pNw/elPf+Ldd9/tskeNB3//99Tu/4V/+Sf/5gf8/d/XuP+Xf+Gf+tlngL755huGh4fPJ3MhhBBCCCGEEEJcOv/bqyr41i+f8t1333V9Pf2lE8l59ukHvPXWB/zzsw1++tZbvPXBpzxz83n26Qd88OmzzgVdpMz/wT9lfsNvftPnPkIIIYQQQgghhBBn9MqCPQAbP32Lt97q8PL1/Ln1i6d8991Tfnlrli+++47vnv6CW13yFUIIIYQQQgghhHhdvZpgz+wXPHXHX81+EdGr5+kvuYUT5PkiwZisH/3oMoV+MmRiq5NkHyGEEEIIIYQQQoje/eBVV2Djp2/xVlTC7BeBfZodfd56C7jFrVv0PTfPwP3mAf8n/8S/ZfrcRwghhBBCCCGEEOKMXukwLn+vnqe/vBWcx8fXpcfZ7wtmcYdxfbfWDPT8x7NnbPz0pySb7vkc/eZ/8Ff/4xn/8/++T8c4TpJ9hBBCCCGEEEIIIfrwynr2BHrrNH3AW//se3vrlzz15ud59h/8Bxv89K0P+OXTp/zi6VN49ikf/Mcss7cAZvniu4vt6/Ob//FX/JX3JvM/+be//EtbEOdM+/ybBIOEEEIIIYQQQghxNpe3Z487b49n49N/hl8+5bvvfsGzDz7g02fP+HR+g9k132TNzz7lA99KXecnw/1/+wt/+Yvv1RagGdQ+QgghhBBCCCGEEMm90mBPpGef8sFbb/HWB/8MszNur55P+XRjll/84hZOD541mP+Ajdk1fhGe6PhHP5KVuoQQQgghhBBCCPHaemXDuGa/+C56guVbv+Dpd78IbNr4dIPZp0+b+2/89AM2Zp82V/T60Y82+OlbbzXzFUIIIYQQQgghhHhdDSml1CAy+vbbb9u2nZ6e8sMf/nAQ2V+oP/3pT7z77ruvuhoD8c033zA8PPyqqyGEEEIIIYQQQogLcvmGcQkhhBBCCCGEEEKIM5NgjxBCCCGEEEIIIcQ1IsEeIYQQQgghhBBCiGtEgj1CCCGEEEIIIYQQ18gP/vCHP/SVwRtvvMFf//VfB7adnp42//+nP/2pr/xF//z3QwghhBBCCCGEENfb0O9///u+V+N64403AqtXvf322/1mKYQQQgghhBBCCCHOYCDDuP7rv/5rENkIIYQQQgghhBBCiD7JnD1CCCGEEEIIIYQQ14gEe4QQQgghhBBCCCGuEQn2CCGEEEIIIYQQQlwjEuwRQgghhBBCCCGEuEYk2COEEEIIIYQQQghxjUiwRwghhBBCCCGEEOIakWCPEEIIIYQQQgghxDXyg1dR6PYjMPec/6fHYH4Udm6AAdx5FNw3PQbGXUgD9U1YfBKR4ShsPXD+ay7CdsR2uh0PLDyAyf34/LuJy39+tHv92Gs/f0bB+AimRiPSR2H1gXNtupafsP5NtkUub6GXyuhaD8ddOha5oRyWVkBVjVddGXGFWLkhTK1K1bjSPwCX0wA/X8xsFkpV5DYJIYQQQggRdOE9e7YfwcE0bK06r9VpOHADP4zB6gykZ1rp84C56SSnp9vTt3zBDgDD2zYKxg1YOwqW7x1rjMHUXef/C6PJ84/TLf/Y+rnn7x3nXR/z81a6l/fCg/a6DaL+AGg65ZKOlc9i2u3JZjaH1Wuer4ROWZXRB5zrqz7/V11+nMtevyT0spJAz3mJ+XxJzMpRyBgS6BFCCCGEECLCxQZ7jmANp4dL0yjMP3ACGFGmpp3jopj3afZu8avvO4GPqTHY3m9tT087wZOw+QehOsXk30nS/DvVr2O+N5KVH9Zr/QM0nXI19I25bZIdGqJgW+SGhhhyX7nAk72Nmcs207K5LNmsmay+2SGGhrKYZo6sl382F3ggtHJuvqaN5e3nDy7YFrmsV7dsqG5O/Sxf/YayJrms76HTMoPHm74Mkpx/oPwhsjmT4POsLz2bwzJzzfOJlaT8bvVPcv3i6tft/BK1j868ujXLs3KB+5Tk+safX0z79JUZfU9Cx2fNZt62mXXzDLbfZKfvXrNszj2/HJYVUf8u9zdR+THto6/7n+j6u6I+X3pkmha6PuhQrhBCCCGEENfDxQZ7joGIoEpHR7D2uTOUy6/+BO74h0OF7OzB/BgwBuk9qPdYzbj8+xVXv+1HTvl3FmHxkRvw6sG51V8zqCpFQdMpK4VyX2Xf85Zt5rHc/ZRSlPQMSb+8N6qKgmZj2Rqlqpt/1YB862FRLytUWccu5DFt3dmvpJOxAbzhIV7dSuiWGXjQtHJ5LL3UrLsqZQhUUP8Qo3l8Fd3OtYIVCc7fNC2MaiutamQwc61ggpk10YyqW7ZBzbLQCgmHCyUov2v9Y69ffP26nl+S+nWhlxXVgtYqTy+jyjqaXm4Ow4u7vnHnF9s+9bKTbyH6fpjZPHjXRymqpQxW1gl4aEaVakHDrtGsYzlTw0zUfUWnXC2g2TW0kqJagFzOyaecqWE1fwA6399E5ce0j77uf4LrPzgWtq0jsR4hhBBCCCGiXcoJmr1gxZ37UJ9u7/XjDVOaijp4D7ZvtIYuTd6Atb2oHTvrmn+/EtTPP4xr6wHUP28fjtbNudY/hmYYZKxWz4K8CeVSL/PlaOiGgaa13n+o+x52va2FEtWy7uynuf9aFjXd8M0DoqEbOq3HdgurplP2TxSi6ZSVr4eB/SVmvtVzwaz1UHXbxLKsVq8Kr1eDZTsBJ9vEQsfwytc0DGPAT6sJ6x95/eLqF3d+A6AZJTJWq7eIadbQvTr0UH7k+dFn+7RNrPCwIU1Hz1h86Y+nGK25aHQ90+MF0DE00DKArqNrkAn0rou/v13L73b8AO9/p+s/MHaNGtDj1RVCCCGEEOK1cbHBnhtAgsCLF6xYvetMOtyph4oRMTxpew/qe62eMeaes+0sovLvV8/1G3V6AdWPO+9S32xNeO13HvWPp1Nu9sqpUtIhl082jOuidO5kYJHLWq2eDUpR6mUGWS1DRiu0eg01X4OfNyhan/WPcyHnp2HoNUwLsHLB4MpAyr/87bOzfu/vVW/fQgghhBBCiKQuNtgzCvM3YHHTt+3ImVsmKliRHnN69ZjhFapC1u63AkI7x7C66usZswoLx/0NafLn36+e63cEax1W+EpqkPV31Kg1h8XkyA7lWj0xsllylvtO0yADWqaX799tLNPEbk0Ew5dWJtlwDV0nY5lYvmMt0/IFd3T0TIG8b1iL7c5BkrNwegtoGT50u1LYlolpRYWGOp2/08sj2zYPiksz0LFa8wPZNmanfbvqUH7i+ncQW7+Y84urX+JqGGCawV49PZXfWV/tUzPQa2ZwUmHb6S324UVMEtzv/Y07fmD3/wJoGTJALx3vhBBCCCGEeK38/ve/V4N4vXz5svmK8/yJUgsLSk0tKDX1iVKPn7oJT91t7nbP40+c98+f+NJDr60XvjwXlHr8wjm2EN72NOJYX7065h97VhHn4D82Sf3+n+iyF550ztt7FZ4OqP4JVMu60kABCk1X5WorraDpStc1Jy0iPU5B01ShXFa6FnV8Welevr6XXg5UrnUsmtLL7jFawdtBFQL101TBV8FqoZWm6QVVLmgKNFWo+ovofP5KVVU5lL+ml1Vrl9C5FXSlFXq4QDHld69/gusXW7+484u7PgnPsaApghVLUH78+XVvn9HHg67KvvL97UfTCs00/7XXy0qpst7aL/Ye+8rWy81jtUK1ma9e7n5/k5Qf3777uf9J2tfgFLTzy1sIIYQQQoirbuj3v/+96jdg9MYbb/Duu+8237/99tv9ZileU2Y2C6X+Vum5Siwzi0np0i7zfdnrJ87Xpb7/Vo4hS0clnQFcCCGEEEKI10jfw7jeeOMN/vqv/3oQdRGvOTM7RMG2KWR9S21fQ6Zv6WrT1ildsgfpy14/cb6uzP3XyxTCw+qEEEIIIYQQAAwppfru2QPw7bffNv8vPXuEEEIIIYQQQgghXo1LufS6uIZsM7hkc9srN7Dlu6+k6359rvv5xXndz18IIYQQQghxoaRnjxBCCCGEEEIIIcQ1Ij17hBBCCCGEEEIIIa4RCfYIIYQQQgghhBBCXCMS7BFCCCGEEEIIIYS4Rq5msMe2yGVzWF2W3LVyQ2Rj1+S1yA1FLPOdIP8o24/gziKsHSXbd3Gzt/wHefxZy7yz2Cq3vum8v7MIdx6173dnERYfQZ2I/UOvpNesW/mBcjdD6feBvVC591t1gwTpsdz25L1C7crKtdKypo1tZgP7Bt4HXlnf8tI2Vq61XzZn0ksz9deh+cpZgTTv5yZQn5w3fXB7+ZaZJWcBVq4tb3/9Op5f1gRsd8nvbHApbS/PbtfHvc5x9U92fYUQQgghhBDiGlAD8vLly+brQlTLStc0Vaj2m1FZ6VphYPk//kSpxy/6rdP5evyJUltnPHbroVIL/uNfOO8D6Q+Veu69f6LU1CfO++dPlFp40tqv8LRVn6TXLEn54bwKnwTfR+3TS3qsakFpWkGV9fb2076t1f6qBU1pbmJZR+llt/6+dljWUZpeVl4W5YKm0Aqq1x8Df1nh+mmarsqhcwnW33dctaoKWquuwXyrTn195bSV68+/WlAazvl1qk/X42Pqn+T6CiGEEEIIIcR18INXHWw6M02nXNXbt1u5Zi8ErVClamjBdNsil/d67WjoZaO3/JM4BvNz2D4CRsH4CKZG3bS9Vi+Y9AysTrcfbt73HTsG5hPfvl2Or2/C4hNIjzn71XHzeABTAEew6PVWWQSv38nUXaecpKbGYO2Rc1zAEawdw+oD377T7vY9MKZhNSK/+QcRG89S/iVhf2mRMaro2GS/tDE0Lf4gQDOqVCO2G1V3q21i1gpUfe1SN6qU7SFMy6B8xuYaputg5iz0cIa2iYlB1X8+moZR7bSgn4ZuFDDNGhC+Bha5bI1y1aDqP2m9gF6zsNDR3fL0yEXJOxzfpf6x11cIIYQQQgghromrOYyrG72MUopqIeoB2yKXt9BLCqUUSpXQLTPyUbIfjzdh/iPYWoWtj2Dnc9j2Esec7asz0ceu3Yf0dOvYg71QUKfL8elpZ3v92AmgbK2CcQPWvOFeo7C6CgujYKy6Zaz2FugB4DbM0z70qr7v1C9sasyp08B0KP9ysPnSymDogG6Qsb7saZhV15y/tED/sG27ruvUagMch/RhGQOzfWhTzQYtkzwf28bMW2T0YNDFLmQZGsp1+LnLYBhgmjaW2X5s/PFd6i+EEEIIIYQQr4nrF+zpxrKo6QZ6Mw6koRt6W5+Dfi18BGmvJ88ozI/Bzl6CA4+coNC8FzAZhfmInj9xpqZbPYmmeg3k9FDG9ue9zmlzfcrvyDKxMl6b0tAzFuago4kXQDd0rHxv8wF5nGDMEEPZPLZRautxpBWqKFWmY0ck3SBjZTFremRvpdjj+6y/EEIIIYQQQlx1r1ewRwyOO8Rsbb+1KX0biAhqbe9B+sb5lx/pKD4gVN8Es0swLi7dz7IsbN9ExTnLxrK6RHvsGrVkWaN9qIP1ZWSZmcyAQ5aaQUm3MP3FZbTI8tsOLVSd3nXlDDWzU885nXK1wxBKNMpVRbVjetzxRNdfCCGEEEIIIV4Tr1ewR9fJWKZvlS1nqMigv/1//DnU3SFG9T0nUDCZpIfNqDO3TnN40pFvCNaAHXj124TFxbP1kEm7cwg1jx2F+RvBFbi2N8E89vVWGqC28nF6VD32XbP6PtQHHWjqyMKqFagqb5igQqkqhZrVDHhkNCj4uvrYX1rYmYRDozQDI1Mgm2u1WcvMkqsVnGFjA6YZBliF1s+HZmBkrOAqd7ZFLuuuxhU+Xi9T0mvkohJ9zGyXIVkJdDq+rf5JecG6mHoLIYQQQgghxKU1qJmeL3w1rkhlpYOi7eVfnaesdM3brim97B4TtSJXj7YeKjW1oNTjp0otLDj/n/pEqS3fyk4Fb3vo5V8dq/CJ71jfClZxxz9/0npfeKqUetp678/jeZf6JTm/QH5PnTw67udbmau5f5dzP9fyI8rudL0i07txV5Ly2pWzupO/PXrbqqqsa822qemhlbTKeue2qxIcH6OsR/x8uMtS+dO01vJfbT8b1YLeOldNV4Wyb9/mdu8YZ7UutIKqFrSIn033HKOuX2Cbrv6vbscnrX/s9fXykRW6hBBCCCGEEFfXkFKq01I6Pfn222+b/3/77bcHkaXA6RmzRvSqXUKIQbMxs1ksPWIlPyGEEEIIIYS4Iq7u0uvX2Np9eOwOs0qPgXFJlxgX4tqxv8SydYyqBHqEEEIIIYQQV5f07BFCCCGEEEIIIYS4Rl6vCZqFuK5sk6y7Alj0q79JkIUQQgghhBBCXB0S7BHiOtCM0Cpg4VeZc1iwS1xaDQ6WZtlZKnF6xhxOS0X2i+3Hn5aWqFX6rZ8QQgghhBDiPEmwRwghrptGhRPmuL2SZ7jzThxEBHO8tG92K7w54R7fKLE/u8RBA4ZTEwynzqfaQgghhBBCiMGQCZqFEOJaaXBQ3GVkboJns7NdevakSC9P8KxY4fbyeDCpsk49tcyku/m0sgtzy9xMAakUlBqQl4iPEEIIIYQQl5UEe4QQ4ho5LRU5nVshMw43N/Lu1gq12V1GNpYZCe1/czycA5zsNkjPeQkVDnYnuLXiBXfGeZciBw03+COEEEIIIYS4dK5msMe2yOUt9FIZ/TKukDyA+m0/grVRWJ0ebNXiyjT3ID3jlFvfhMUnbuIYbN0N7getpeHThPYPWXgA86P9lW/gK3fGed9MH4WtabjzyJfhKKw+cOoGwF5MepwjWLwPdf+2UTA+gqnRLuc/ClsPnP+u3YfHRxH7uNfXXITtiOMgdN3PcP793p+WCrXZIiepOSZX8m2pp6Uiz3YrnDZSDM8tc7utB0j34+OE29/8KOzcAGMsOt1rn961D5yr1yZGYYHu6atj3e9vXPtdHb2A618p8oxlbkcEcBKrFKlVGoxMACk4La3D3EpgONhwfoKD2SInEcGjfu+vEEIIIYQQYgDUgLx8+bL5uhDVstI1TRWqF1Ncz15h/R5/otTWGY/deqjUgv/4F877QPpDpZ57758oNfWJ8/75E6UWnrT2Kzxt1efxi8GVH86r8EnwfdQ+vaR39VSpqYe+9y+C9fVfA3+6X9v9eeFc07Y8I+rZz/kP4v546vdm1Pa99faE3c/U3vph4L2928PxMdrO7YVTf+9curVP9UKphYXgtQ60t7h0FX9/u7Xfc7/+h+tq7zPnYv95/Z7anpmJfQXulVJKqV1l3/tM2fc+U39Uqv1+Bnb9zM3nnqqHdjnr/RVCCCGEEEIMxtWdoFnTKVerGP6eM83lp7OYtrcp6yw9nTXdDRa5bGtJ6mzOxPbna5m+9Cw5M7hgtZVzjzNtLDPnlJeNWNY6qn5J7MGdRee1uBlMqm+62x/BorvPnfu+niBHzvbHR04PES8fr5dDUlNjsPYoIuEI1o5h9W6rt8jUNBg3YG0P0tPRPZHme+q10KX8y2jU6VGyttmeZN6n2bsmSn3TvcejzjVtbt93ruXUGGzvD66qg7o/Tan2MTwnuw1Gxn3bU+/x/W6HpZsiju/qCNYI1XXUqb8xRmz7BGAMpo7dnxk3vyl/GXHpPp3ub6f2e+7XP5UPzL0zPLfC5MaG+1pmhHEyzffOK9jrqsHB0i4jK3NOL55KkZ3dCW5RZGd2tv21/h63V1a4vbESPZyr1/srhBBCCCGEGJirG+yJohlUyzpaodQMsmhGiYKmU64aAJimhVFtLUldNTKYObOVh/4hRslLr6LbOXK+SI5eVqiyjl3IY9o6papClXQygYhRH8ZgaxVWZ9qT0tPO9vqx84C4teo+yHqBhlFYXYWFUTBWnfSt1dbwlsRuwzywFhpuVN936hc2NebUaWA6lH9ZpW9A3VfX+hMnyLbd+RDMxc5Denb2YH4MGIP0XmjY2CXxZgqG30v4MN9o9He85xjoEhRJ2j7np52fme1NZ5hXWFx67P29gPZ7pusXp1KBZd+wrPFlJpfHGc6vOMGi1By3vUDR8jjDE+MMp1KRq32dS/2EEEIIIYQQiV3NOXu60Q30rIlllNEBLBNLN6gC2CaWZVEYGgofhAXO/vaXmPkslhu80TTIRBSjFUpUm912dC5y6qCpaWeOGHB7EQwy0OIrY/FzmPxo8HlfhfL74c3ZYt7vvI+xCulNMMMJe7B9wwkWAEy6vVJ6Dtids5HljYi5Wi7u+L6MQfq+02tnNapXVkx6kvt73u038vo1Kpw0GhwU190VuJbYWQ/ucjI7G5HbOJmNZUbG89zsVGCjwfcdAjuJ6yeEEEIIIYS4MNcv2IOGYUDWtNENME0wql43nwwZrUDV7eXTziKXtdDKVcruzMq2mW1/IH8deMOTfMOI0reBz4HQUJTtvegeEIMuP9JRfM+X+ias3egcMIlLj1M/hnREjxOjw/AtT3oaVkPbtveg7g7lC+TVqW4DOP/BanDaAPydOgY1nOcGsElb+/P00j7j7k1ceuw+SdvvIKVSfL/e4NbGRkRQpvNqXJH3LOS0sgvvLbfeNxq8KcO0hBBCCCGEuLSu1zAuj26gWyam6fTq0VsJ6BmLrNk2w47DrlHTMnyYcQM9lolpDWp81sU6cIeQ1DedeXzOMhQoPQ34hxGNwvwNZ84gb9v2JpjH7rCjAWsrHyeo8tjX06K+D/Ubgy87sSOn5818l1XT1u53H9Llt3PsDMXb8r0WjlvHX7rzDxmZmwsM2zpZ3+XNiX6WhvLx2p+/p82R08PG3OPC26en0/2Nar/nK8XN5Xzi3jf+44a7xm0afLOb4mbbqmpnZOWcOdFyHT6HhRBCCCGEEH0bUkqpQWT07bffNv//9ttvDyLL/lg5hnJQVmVfsAfAxsrlyfnGaWkZg1LZGYplm1myBSdN0wsYmkWuAIVq1fn/UPtkzHpZUdYZCLPDXCDesB9vnpepu87S295S297QEnB6hpjeA69vafA44aW9V92H1TubXZYA9y1tDbQvb+7WvdMktwMtP6JsT/h6RabHBQTOuvQ6rWsQXnq9ueR2KG9vu789eNvOfP5j0fskvT9JnZaK7K87kzIPz61ELL3en/ommE9a7XthOhjMibw+UdeX4LYR4KRL+t0ZeNTl/pKk/V7A9Y/WrWdPWIODpXXeXHH2PS0tcZBaIeOL2Z0UZzmZ2AhsS8rKDZGzNPcztffjhRBCCCGEEPGudbAnWzN88+oIIcTrqtdgTxGWl6G4xMmEF7CrUJstugExd56fnuthY2azWHpVPpuFEEIIIYQ4R9cu2ON8a+y9k2+PhRCid17Ap8Oy6mdlm2SzNkZbj0shhBBCCCHEIF27YI8QQgghhBBCCCHE6+x6TtAshBBCCCGEEEII8Zq6hkuvCyGEEJdb7CTXlSI76+9xeyV+hbXT0hL766ke5lHyz78UbWT5bBNwCyGEEEKIy0GCPUIIIcRFaJTYXzrk5sYyMM6IG0w5rVT4ZrdIveLbd3yZyWU4acBwgnmThufmepswOzXXIZDkrsYmgR4hhBBCiCtNgj1CCCHERRmfYASCvWoa65xObDC53L577yuetZxWKjA+HtszSAghhBBCXD8S7BFCCCGugJPiLLVKp9QldtYjNnfswSOEEEIIIa6zq7kal22Ry1vopTL6JV1W3coNYWpVqldx3fcrcH2j1Ddh8QlM3QVj7GLKNLNZKFUJ3+Z6/deYX/2K+kvgnZ+zOv0z0oE9foe59jHb6YdsTf6ktdk2yeahVDXo9dJvPwJzD9IzsDrduh4AjMHW3eB+AOkxMO5CmtD+IQsPYH60v/INfOXOOO+b6aOwNQ13HvkyHIXVB7Su215MepwjWLwPdf+2UTA+gqnRLuc/ClsPnP+u3YfHRxH7uNfXXITtiOMgdN3PcP793p8Wd76W1ByTK/kzpHcXbl/zo7Bzo/Uz2an9edc2cC7ePR+FBbqnr451v39x7XN19AKub6PE/tI6p4GN46TnGtTXG5G5xc2d48zX02B4zpmv52Y+yfirmDl7ugaI+msfQgghhBDigqgBefnyZfN1IaplpWuaKlQvprjXzhW9vs+fKFV4ekGFlXWFXm6vw7/fVYV//616/p+dDvyDevzkv6vHz3+lFrZ/G5EtKiLbRLYeKrXwiVJb3oYXzvtA+kOlnnvvnyg19Ynz/vkTpRaetPbzruPjT5R6/GJw5YfzKnwSfB+1Ty/pXT1Vauqh7/2LYH3918Cf7vfYf37ePlF5RtSzn/MfxP3x1O/NqO1762dO76St7i+c+nl17db+1AulFhaC1zLQnuLSVfz969Y+L+T6Hq6rvc922zb/ef2esncP1R93D1sbdz9T2xH7Bu0qe+YzVV+/p/bWD5XaXVf1w077Hjr1mmm99tYP1Z/X7wW2tb3uras/Jz0/IYQQQghxaVzdpdc1nXI12KPCyg0xNOS8sqYNVq75fihrOjvZFrmsb7+ciU17HlnTxjJzZIeGGMrmsJp72Ji5rO/4LFkvbyeDYB3ahI7Pms28bTPr5umW21Z2d8mO71x+3PWNs/0I7iw6r8VNnG/d3fd37rs77YF5v7Xd3IzOY3ETtjdh0T12u0M5d+47+a35e1scu8dFHDuI8j2maaHrenDjy1+z9vIfMX78E9LvdLhOOx9T//G/Mt8hXTcK1Mxgu+zF1BisPYpIOIK1Y1i92+otMjUNxg1Y24P0tNPjIWy+pw12lVYAACAASURBVF4NXcq/jEadHidrm+1J5n2avWui1Dfddj7qXNPm9n3nWk6Nwfb+4Ko6qPvTlIqZ9TcuPewI1gjVZdSpnzFGbPsDYAymjt2fNze/KX8Zcek+ne5fp/Z54dc3uDPDqRQ0Ks1ePye7FUYmuvfSOSkWYXmZd70N4+OwXgr1HGqVcXNlg8mN1usWRZ6xHNjW9urUw6fX9iGEEEIIIS7U1Q32RNDLimpBQyu4w6f0Mqqso+llVNUAnAd0o6pQynlVjQxmzgzkoco6diGPaeuUqgpV0sm4T962mcfSDKru8SU9E3wo18tOvoXoKImZzYNRbZVfymBlnQd7zahSLWjYNZp1LGdqmJFBo3ZJju9Wfr+m7sLqTGuYhDe0JT3mG84yBvMfwdaq85o8ag3p8PLYugv1J04Ax3gAWx9B2g3mbD+CnbHW8VsfAaFhNdtPnAe0rVX3QdL/IN9n+S0Wtq0TjvXw8g/U+Rpz82+4s/Y33Nn8mO2XreT6V//AGj/H6Db2SMuQsS2+POtNuQ3zhAJgOEEIIoa3TY1B/fiMZfVQ/mWVvgF1X13rT5yAX1SAz2Mudh7ys7MH82PAGKT3QsPGLok3UzD8XueH9bj0SMdAl6BI0vY3P+38zG5vOp8dYXHpsffvAtpn1+tXKbIzO9t81Srw/aEzhGskBd80ACqcVFqrdUU5LS1x8N5KaIhXiptz8KzYcWIff0U4WE9xM9970OZM7UMIIYQQQlyoazdBs2aUyGRNbKOMBphmDb3kPpHbJpZlURgaCh2lYwH+53atUPLNt6M350/RDINMNke24L7XdMolI1nlbBMrY1D1x4E0HT2T5UvbQHO360Zrrhxdz2DWkmXfPJtOxycsvx/paUjfh/q0Ow/HJkx95NvhCNY+h233QSs9Gj3nSjNg5L13/905Ds3HMwrGavDYqbvOHCzgfovvD2T0WX6TXaMGZEKb699+Tb3+O/i7f2Xrx+8DX7P21a+pv+PM2VN/+TX1+sfc8UUAFt/5V1Z//L4vFx1Ny2HXoOeJe1xT07D4OUx+FL/veXjV5ffDu/fm/c77GKuQ3gQznLAH2zecYALApNtr5aLmkEpqZHmj6ypPcennasz5DFnDmYenrddVTHqS+3fe7bPr9RtfZnJ5HKhQW2pwc7zBN+sp3kwBqRSnxQqn763zvTsHT6RKkf3DOSaXIwIuqTy33ltiZ3aXzEbnPE5L65yMp2B2lshfMV3m7Xml7UMIIYQQQiRy7YI9oGHoNUwLyuSCwQ0tQ0YrUK0mDM5E0ilX3TmtbRv7S5Ns3mz2HBJOr4a1PWcC2u0bzsSnHvM+pO/ClvvwW990Htp6UaeHSXlDBlF+rHd+7gvevM/Nl79l5+XPSL8DU5PPmZp0k17+msWv3g8FegbEG57kG0aUvg18DoSGqmzvRfeQGHT5kY7ie77UN2HtRueASVx6nPqxE/QLMzoM3/KkpyEUZ2R7D+ru8MVAXp3qNoDzvzRuAJu0tS9PL+0v7trHpcfuk7R9DlrjEN4Ld9dpcJqa4CYA49x8b4n93Qlur0T3nDktLbF/mGKkUmRn1p/iX40rxch4g9rsLJAivbLCzVB2w/kVJol2Ulzi+zlZwUsIIYQQ4iq7VsO4PJphgGk6vXoMf38dHT1jkTWTzoLTzsxmyVnu+BpNgwxomXD/jo4VQ6+ZBEZl2RZWTefDi1j16oLKT08Dm26vHv+D3RHUR53eDuA8FK/tReXQ2eSN4Dw79SMngGMmyWcA5TdpGTLQ9o14+scPWeBXmPWvnQ0vf8fOy39kssP8PNEsbFtDS9isOklPA/5hRKMwfwMWH7W2bW+CeewOOxqwtvJxgiqP/fdvH+o3Bl92YkdOG5jvEKAAZ5WobkO6/HaOYXXVN8xwFRaOW8dfuvMfJK99+Xva+H8+L7j9eTrdv6j2ed5OGw3eDM91U9mF5tw8ztCqkdQ6B20jsSrUZmedOXaWl8n45tW5PZdieG7FN9fOCpnlleb/w4Ge7iqcVNyeRmfhzVuXO/vvWSGEEEII0b+rufR6AraZJWsbqHJ4UhUbK5cPBGy0jEGprKNhkRtqnxBZLyu8bMxsDjtTw2oer1NuLlEefTzolFXZHSZmY+byFNzjNa2AUTXQvToX7FaZ5Jp/MDfnIYo759jjO5c/SPVNWDxqLfcd2O7OdeIty2w+aS1tbEbMtRFeSn3tETz2gjSjsDDtPCz685666/Qs8payjlpu+azle8zsELbRahtNL3+HuePO1fPOTzAmHzIVCvZs7/wNpvuUmf670DCuMy6/Hl7ae9V9mL2z2WUJcN/S10D78uY4Q5Y6TYI70PIjyvaE72dkelzA4KxLr9O6BuGl15tLcofyjmpP3rYzn/9Y9D5J789FqW86P1N1CPx8eiLPP+r6Edw2As2lwqPS787Aoy73jyTt85yvrzehsjMEyhnGNZw65M3lZUYaJfaXDrm5scwIDQ6WlqjjG0rVaHCaSkX2tjktLfGMZW6fYf4dgJNSiTfzXjkl9tdT3F5OsoR7Oys3RM7SKPQ4wb8QQgghhBisaxvsEeLcWTmGLD0ioNhvtkNYekQQSQhxdTVK1CrjZHwBmdPSEgepOSgWOYmYI+ekOEutEj0My6/fYA+NEvtL6+4qXvHldWZjZrNYevyXE0IIIYQQ4nxJsEeIPpjZLJQG+A32GXv1CCFeX6eNhrN0+6tmm2SzNkazJ6sQQgghhHhVJNgjhBBCCCGEEEIIcY1cywmaryXbJDs05Ex8GfmKmitICCGEEEIIIYQQrxsJ9lwVmkFVKVTHl3SbF0II4XDm++myQ6XIzlLJnaenu9PSEjuzxeYE2UnKDuft33ZaWupQdoWDUqNThanNzrJfqnDaaRchhBBCCNH0g1ddASGEEEIMgG9FLxhnxF1Q67RS4ZvdInV/8Gd8mcllOGnAcILpfobn5txVxOK9+V6KkYngZNP+bafAyFw+YmWxcd5liZ2libbJqr30m/lxvi/Osl8ZJ7OxnLhOQgghhBCvGwn2CCGEENfF+ERgmXoAGuucTmwwudy+ez/BktNKBcbHI5eDb+5TWmJ/3euKM8tOM8X7fzBoM5yfY2R9l++hY74jyxtkisU+ai6EEEIIcf1JsEcIIYQQMUO/lthZj9jsLRkfWL4dmsGc8WUmN8bdZeZXyIwT+H+7cTIb484ws2KrMsNzc7zpDuVqFTHbKr/nsxVCCCGEuN6u5mpctkUub6GXyuiXdH1qKzeEqVWpDmxN7jPVgtxQDksroKrGxRV7Be5PlPomLD6BqbtgjF1MmW1Lt7/8NYubv6Le3OMnGPMPmfLX86uPMeu/o/7yfdJ/95DVH78fyLNreh9Lu28/AnMP0jOwOt26XgCMwdbd4H4A6TEw7kKa0P4hCw9gfrS/8g185c4475vpo7A1DXce+TIchdUHTt0A2ItJj3MEi/fx3TsnD+MjmBrtcv6jsPXA+e/afXh8FLGPe33NRdiOOA5C1/0M59/v/WmpUJstcpKaY3Ilf4b07sLta34Udm60fmY7tT/v2gbOxbvno7BA9/TVse73L659ro5ewPVtC7gAjJOea1Bfj57oZmR5o0PQxeH1zBmec3rf3Mx32dl3TDiYc1Kc5WRiI0Gwp1s9UgmGbvXXvoQQQgghrg01IC9fvmy+LkS1rHRNU4XqxRR3dZWVrhUuvtgren+eP1Gq8PSCCivrCr0c3Pafv1IL27/tfMzzu2rh3/8QeF943kO6Uqqso8LFJrX1UKmFT5Ta8ja8cN4H0h8q5RW59USpqU+c98+fKLXwpLWfd50ff6LU4xeDKz+cV+GT4PuofXpJ7+qpUlMPfe9fBOvrvwb+dL/H/vPz9onKM6Ke/Zz/IO6Pp35vRm3fWz9zeidtdX/h1M+ra7f2p14otbAQvJaB9hSXruLvX7f2eSHX93Bd7X2227b5z+v3lL17qP64e9jauPuZ2o7YN2hX2TOfqfr6PbW3fqjU7rqqH8Yc0ixPKaUO1Z93d9Uf1z9T2zMzanvmnqof7ip7ZkZtz8yovXufKdur0+G62nO3b8/MuMf76+Glfab+GFP+WduXEEIIIcR1cnVX49J0ylVfjwic3jTeUuRZ0wYr11qaPGs6O9kWuaxvv5yJTXseWdPGMnPOcudZ/7LmNmYu6zs+S9bL28kgWIc2oeOzZjNv28y6eeZay6xne1xSPXB+WXLhg2POP/b8sLF86UNZk1w2S9upRtyfONuP4M6i81rcxPlW3X1/57670x6Y91vbzc3oPBY3YXsTFt1jtzuUc+e+k9+avzfFsXtcxLGDKN9jmha63tsaatsHXzN109dT552/pX7wu8TpALpRoGaG73tyU2Ow9igi4QjWjmH1bqu3yNQ0GDdgbQ/S006Ph7D5nno1dCn/Mhp1epysbbYnmfdp9q6JUt90fw5GnWva3L7vXMupMdjeH1xVB3V/mlIxs/7GpYcdwRqhuow69TPGiG1/AIzB1LH78+jm5+81F5vu0+n+dWqfF359gzsznEpBo9Ls9XOyW2FkonvXmpNiEZaXedfbMD4O68lW8DopzrIzW+QbGhwcTjC5scHkxjIUdxnZ2GByY4ObqYZTL4BUntsbG0xurJBOtSaX9tdjhHEyGxOczMasNAa9ty8hhBBCiGvm6gZ7IuhlRbWgoRXc4VN6GVXW0fRycxiTaVoY1daS5VUjg5kzA3moso5dyGPaOqWqQpV0Mu6TsW3msXzLoJf0TPChWS87+RaioxxmNg9GtVV+KYOVdR68NaNKtaBh12jWsZypYUYGjaJ4w6e88yuhW2YgWBR3/nHnZ+XyWHqpteR7KcOZowYhU3dhdaY1DMIbupIe8w1XGYP5j2Br1XlNHrWGbHh5bN2F+hMngGM8gK2PIO0Gc7Yfwc5Y6/itj4DQsJntJ84D2Naq+6Dof1Dvs/wWC9vWiYz11D/mztrfOK/Nj9l+GXPhXn7dW7qWIWNbfHnW+3Yb5gkFyHCCEEQMf5sag/rxGcvqofzLKn0D6r661p84AcGoAKDHXOw85GdnD+bHgDFI74WGjV0Sb6Zg+L3OD9tx6ZGOgS5BkaTtb37a+Zne3nQ+W8Li0mPv3wW0z67Xr1JkZ3a2+apV4PtDZwjXSAq+aQBUOKkEAyphp6UlDt4LD7VKcXMOnhUjIi2NErWlJXZmZ9lfbzCy7ARubvYbc6kUQ/UYJ7OxwvD6LPsdlmk/U/sSQgghhLhmrlWwB0AzSmSsVq8F06yhG+4TtW1iWVar14zXc8ay23rPaIUS1bKOpgGa+y+gGQYZq9XzJm9CuZRwPhzbxMoYwd4umo6eCT5460ZrrhtdzyQ/ecuiphu+eXI0dENvzc2S4Py7n5+FVdMp+yfi0XTKqrcePN2kp4MPsGubzrfzTUew9nmrZ81ahyBCesb9hn8UGHX/BXaOQ/PxjIKxGvxmfequM8cKOA+KAX2W32TXqAFtd/edn7E6/5wt7zX5t6x99bvwXn3S0TQbu3b2HKamYfvzVxdoeNXl9yM94wQKO/UYAadNrs5EJOzB9o1Wz5VJf6+VS2RkeYPb+c4P23Hp58oNkq2FPwsSpie5f+fdPrtev/HlZi+akdQcN8cbfN9I8WYKGE9xul7htLTO992WUq8U2T+ciy4jlefWe+vszBaDK36l8oxMTHB7Y4Pbc6HjmgGoJeoNZ5LlnSS9cypFdnYnIuqR4ubyHKwXOYiI97zS9iWEEEIIcUlcw9W4NAy9hmlBmRxWxqDqBSK0DBmtQLWvyYp1ylV3Tmvbxv7SJJs3L3YC5LNKdP7x52dDz5P79mJ+zHmANXAebFd9gRLzPqTvwpb7EFbfdIZa9KJOD5Puhgyi/J688z7pQM+cr6m/BN4J7pM8fUC84Um+YUTp28DnQGioyvZedA+JQZcf6Sj+gbu+CWs3Ok/KHZcep34cEezD6fXVTXoaVkPbtveg7g5vDOTVqW4DOP9L4wawSVv78vTS/uKufVx67D5J2+egNQ7hvXB3nQanqQluAjDOzfeW2N+d4PZKdDDktLTE/mGKkUqRnVl/in81rhQj4w13ZawU6RWnB89I3pkQuW2Y1/gyk8vjQIODpXXeXHEmWT4pLvF9h1P5vrTEzuGce1yEVJ5bc/C9xHSEEEIIISJdu5494PROwTSDvXoAcHrRZM2eZsEJMLNZcpbbDUfTIANaJmHvG81Ar5nB+W1sp7fMh4OInug6GcvEauZvY5mWb5RV/Pl3Pz8dPVMg7zsB250DqG1uoD6kp4HN6F499VGnNwM4D7299mqYvBGcZ6d+5ARwzCT5DKD8Ji1DBgh3rlnb/AcWfT15tr/6Fdu+YM3Uj38O337tS/8t6Zs/SZzusLBtDa2HTmNR0tOAfxjRKMzfgMVHrW3bm2Aeu8OOBqytfJygymP//d2H+o3Bl53YkdNG5jsEKMBZJarbkC6/nWNYXfUNQ1yFhePW8Zfu/AfJa1/+YZX+n98Lbn+eTvcvqn2et9NGgzfDc9VUdqE5N0+Fg/UUI6l1Dtp61Tg9bp6xzOTyMhl3Xp1Jt6fO8NxK8/3kxgqZ5ZXm//sequU/h1KReqPCCcudAz2u4Xw+ZmWuCN68eoP8pSWEEEIIcQldzaXXE7DNLFnbQJXDk6LYWLl8IKChZQxKZR3NW6o8dIReVnjZmNkcdqaG1Txep9xcYjz6eNApqzK6W76Zy1Nwj9e0AkbVQPfqXLBbZZJr/kHanIco9sQtcvmcG/DR0MsG5PzLr3c7/7jza68/mkbBKGEMeI31+iYsHrWW8w5sd+cy8ZZdNp+0li42I+bSCC+lvvYIHntBmlFYmHYeBv15T911ehZ5S1VHLad81vI9ZnYI22i1LcfXrO18zOO6E7BJp3+OMfmzQE+k+lcfs/jvTkAo/Xf/Grn0erf0sy6/Hl7ae9V9mL2z2WUJcN/S10D78uY4Q5a6DYkZWPkRZXvC9zsyPS5gcNal12ldg/DS680luUN5R7U3b9uZz38sep+k9+ei1Dedn7k6BH5+PZHnH3X9CG4bgeawpKj0uzPwqMv9I0n7POfr25rIGKBCbanBcOqQN5eXGWmU2F865ObGMiM0OFhaos4ct1fyDAM0GpymUs7/Q05LSzxjOfHQqMDS6pHLwXtavYK8/Zhb4XY+FbHUeoWDUoqbfQ7PsnJD5CyNQo8LCAghhBBCXDXXNtgjxKVn5Riy9IiA5HkXO4Slh4NMQogrrVGiVhkn4wuGOEGXOSgWOUn5Ajuuk+IstYov4NJB0mCPkx+0BXHWU9yO6KVzUlzi+7luZVeohecGahNf/xYbM5vF0hN+eSKEEEIIcYVJsEeIV8jMZqF0gd8wn7FXjxDi9XXa8C2RfpXZJtmsjdHsaSuEEEIIcX1JsEcIIYQQQgghhBDiGrmWEzRfS7YZXDK97RU1V5AQQgghhBBCCCFeNxLsuSo0g6pSqI4v6ZYuhBBCCCFEP1rzj3VQKbKzVOow8XzQaWmJndi5xzrXI2k5QQ0OlmbZKbon0SixPxtzTkKIa+kHr7oCQgghhBBCCPHK+FYshHFG3DnlTysVvtktUvcHSsaXmVyGkwYMJ5jObHhuzl1VsLf6HDTaJ9aHBicVGBn3FxyezD5FemWDSRpOoKiyy+n4Mrfb58kXQlxzEuwRQgghhBBCvN7GJxiBYC+cxjqnExtMLrfv3nMAx+e0UoHx8VAgp1koB8VdRuYmeDY7G9mzZ2R5g0wzeDNOZmPD+W+lyH5jzl2hMMUwDQ52G9AosjPrO358nBMmmIxYKVEIcX1IsEcIIYQQQgghzqj70K8ldtYjNqeieu7AaanI6dwKmXG4uZFvJTRK7C/tMrKy4gZzEmhUOEktM7kSDOqcFGeBCU7oL2glhLjcruZqXLZFLm+hl8rol3T9aCs3hKlVqV7YmtqXyBW4P1Hqm7D4BKbugjF2MWW2L73+O8zNj9l+CfA+U3/3EOPH77cOePlrFjd/Rb254ScY8w+ZSpo+gKXXtx+Buef8Pz0G86OwcwOMG7B4H+q41xC488jZz7um5iJsexmNwtYDX8Z7rf096TEw7kLafd/1+Jj6zR879zfKwgOY3O+Q7pWToH5JrD2Cx776cQyrD1rtr1P5HdPd+s+P9lCJPlm5LDnLdt9p6OUqZR3Axsrlm2maXqZaTjabmJUbImdpFKr+n4eOe5MbymHpZVTC/D0d2+9YdHrz/obv/6hz35r3Pi6d7u037v7Gts8LdBXvfy/5n8fvb69dpWdgdTp0v8dg625wPwi2v35//uPKN/CVO+O8b6aPwtZ0/+2/q6PW7w9/HsZHMDUa//kIsHYfHh9F7ONe324/f4HrfobzH9znszscJzXH5Er+DOndnfXzz7u2gXPx7vkoLNA9fXWs+/2La5+roxdwfRsl9pfWQ71oxknPNaivNyJzC/auaXdaWmJ/vcHw3DIjwM18fC+ak+IsB++tcPNwiRrLvp43FWqz6wxHBXoi6w6k5kinDnlz2Sn/pDjr5DnX4KCR52ZbdfprX0KIS0gNyMuXL5uvC1EtK13TVKF6McWJHl3R+/P8iVKFpxdUWFlX6OXApsdP/rsqPP+D8+Y//+C+9+3wn79SC9u/7ZxnXLpSqqyjQsUmtvVQqccvfBteKPX4k9Y1a7t+T5WaehjK5IVSC59E5OUev/AkWJ7/fdzx3ernz3vrYauejz9pHRMu3yurp/p18fyJUgXf/s+fds/fX36S+g9CQdNV1+ZRLShN01XUj3a1oCnd90NfLWg9tbVCos+MqrNfuaC0HhtyXPvdeqjUwkOlvB+5rSdKTX3Seh+ZR1wZYR3a7yDa5yBc5/ufLP/zs/XQvffehtD969b+BvHzn6T8cF6FUPvqu/13E/598SJY3yTt/7H//Lx9ovJM8vtDJT//QX4+1+/NqO1762dO76Svz78XSi0sBK9loD3Fpav4+9etfV7I9T1cV3uf7bZt/vP6PWXvHqo/7h62Nu5+prYj9g3aVfbMZ6q+fk/trR8qtbuu6odx+88ou5ntoarfu+ccc7iu9mbuxRzv+ONnM6267X7my0+pP34Wn8dZ25cQ4nK6uqtxaTrl0Dd0Vq61FHnWtMHKtZYmz5rOTrZFLuvbL2di055H1rSxzJyz3HnWv6y5jZnL+o7PkvXydjII1qFN6Pis2czbNrNunrnWMuvZ5EuqJzreMn3nnyVneqkWOXd/Jz2HZUWcf8z1a4q4P3G2H8GdRee1uInzrZD7/s59d6c9MO+3tpub0XksbsL2Jiy6x253KOfOfSe/Nf+3gcfucRHHDqJ8j2la6HrwW+n56X/FSLs9ed55n8leuowkpBsFamaH+9bNEawR+gZtFOYf9NYTqr4P6WmYGoPt/e77Tk075SY6PqZ+6WnnG8Ow+Q7fCpr3aX5720v94tRpfXudHuucf7j8Xusf5n0+5NwfZv9nnbsD2aEhCrb7WeC+cr4PECs3xFC2gG1bvs8YM1hQJvhDX6vZJP58Aaj5PqOyOaxQQ7VyeWyjipGJP+eAuPZ7BGvHsOrrqTU17fRYW9vrsawuOrXf82iffq/9/U+Sf5ff3/3+fvZMjTm9+9rEtL9+f/5jy7+MRp2fzbXN9qS49l/fdP+OGHWuaXN7D79/ejGo+9OUihmjE5ceNojPvzGYOnb/nnHzm/JlF5vu0+n+dWqfF359gzsznEpBo9LsOXOyW2FkonsvnZNiEZaXedfbMD4O691W1nLm3Wn1FEpxc2WFm40iO0uH3NxIMHSrUeKgAsONdWcVr/FlMuNOj579UiOwT1e9ti8hxKV1dYM9EfSyolrQ0Apu92u3i7eml1FVA3AesI1qa8nyqpHBzJmBPFRZxy7kMW2dUlWhSjqZ5t/DeSzfMuglPRN8aNbLTr6F6CiHmc2DUW2VX8pgZZ0Hb82oUi1o2DWadSxnapiRQaN2iY7XP8QoeedfRbdz7h/zOuVqAc2uoZUU1QLkck4+5UwNy/2LNu769WPqLqzOtLrxel2v02O+7tZjMP8RbK06r8mjVpdjL4+tu1B/4gRwjAew9RGk3Qfy7UewM9Y6fusj2h7Wt584f0Bsrbp/6Pj/0Oyz/BYL29bRu41AePlrzPo/Mh8O+NQ/5s7a3ziv5pCvHtK1DBnb4steoz3HQII/qgLBtEeQDh2zswfzY8AYpPdC3fb9jmDtc3eoU5LjE9YvTv2JU/eoAF2S+nWTnob5I2c4wZ1FWHwE9XAwK2n5PfI+HzzeZ51vB6pKUdB0yqr1M+7fRS8rVLWAphWa6d5nq5OFAWaWbHaIbDbnfIYaGkk/X8CmYNL6jCrpWPlcICBuYtDjyC1HTPuo7wMR93JqDOrHZyivg8Ttv4Ozto/X/v4nyL/b7+9+fz833YZ5Ql8wcHHtr1P5l1X6RvAzMkn7Nxc7D/np9+fvIryZguH3Oj9sx6VHGtDn3/y08zfR9mb077649Nj7dwHts+v1qxTZmZ1tvmoV+P7QCZKMpOCbBkCFk0prta4op6UlDt5bCQ3xSnFzDp4Vk61/flqpcFCcZWd3gsmN5eC8Oo0KJxEjy07WdxmZG4eJZSbnDtkvVpr1vZl3zzmV583dzkvBn6l9CSEurWsV7AHQjBIZq9VrwTRr6Ib7l6FtYlm+byS9b+Ysu+3bOa1QolrW0TRAc//F+WM2Y7W+2cubUC4ZJGKbWBkj2NtF09EzwQdv3WjNdaPrvX992fV4+0vMfOv8zVroYE3H0EDLALqOrvm+qO3h+p1Vejr4B9japtt7wuM+YHvBhLUOfwSnZ9xvqEaB0VbAYec41AtlFIzV4DdDU3edOQLA+UMnoM/ym+waNaDj3X35a8ydPzA//bPgnAfv/IzV+edsea/Jv2Xtq98lTwdAR9Ns7PC9H5Cpu75g2t1Q4h5s32h9czgZ0WvC+2Pwzn2oT4fuV4Lj+5Wecere6RvJrvVLYOourLrXxxiDLCc7dgAAIABJREFUxc97K/9Sc56EqVYV1WoZQ7ODQcVuny/ODhRKRvPzFk3H0FvBgJptY3u9L7IFbCvXoQflJTWA9nup28elv//d80+i39/P4PxO2/781QUaXnX5/UjS/o1V54ujNhfw+2MQRpY3uJ3v/LAdl36u3CDZWvhvqYTpSe7febfPrtdvfJnJjQ0nuJKa4+Z4g+8bKd5MAeMpTtcrnJbW+b7bUuqVIvuHc9FlpPLcem+dndnOwRZwe+IUi84qYBO7gQDUzuwsO0tFasVQL6FGiQPmWr1/xp35fqLqO7I8wUmHOrzS9iWEGLhrF+wBDUOvYVqAlQsGV7QMGf83ks1XmeRfFOqUvZ4t1SolHXL5wfRsOX8WuayF5utZVOplBuWBXL9482PuH2DuH2b+QIx53wkIbfkelnvVzx8Qgyg/Tv2rj1n86n3mpx/GP9C98z7pl1+fPb0XN4A+/zDe3oO6b3ieueds8/P+GFy963TF3056/ADq52d0GB7QrX69So/B1FF0Hp3Kv8ws03Ie5F1aBqyeu5B1ppd9nzvVgjMBcNKxojHtI307On17z+ld0El9M9i7r1t6kvaf1GVsH5f6/l8m3vAk/zC+M7a/QZUf6Sj+92Uv7f8s6scRX5YQ3/6jhv30/PM3gPO/NAb4+Wc86D58NC7d26ejpO1z0BqH0NajpcFpasINlIxz87119ncnuNUhGHJaWmJnF0Z8PYT21xucri/53sPIeIPa7Cw7s0sceD10GiX23X1OJja4PeeW0QxAtV6351IMT/iXbW9wsA632pZRr3AQWd9xbs41qCXsZSSEuLquYbDH60puBnv1AOD0osmaZ++HYmZ9q5BoGmRAyyT8dk8z0GsmgS8ibQurpvPhRfy9ateoaRk+dL9KtS0TMzwhQlf9X78k0tPAZnSvnvqo820cOH+09fqt3OSN4Dw79SMngJPoj7UBlN+kZcgAwc41X7O28w+s8XNWJ3/irMDy1T9g+v7aXNv8BxZ9PXW2v/oV2++8nzjdYWHbWuChLJFRmL/hzoPg6eX64fSs8nq1eK+F4+hgR3rMXcHrUcLjB1C/KGsd5lyKql8cczHUZo6gPtb9W85O5Z+VM4eK8/OfzUX9LNeoNYet5sgO5RLP75TRwK619rZrtc691yLZFPImtle+ZZK3Mt2HOyYV1z689EetB7ztTTCP3WEfA9BL+0+q1/bx2t7/C8k/ufQ04B9GdAHtr2v5OEGVx/7fj/tQH3SgqRdHzuflfMRcLZ5e2n/cz9+lO/9BugSff1E6/n6NaJ/n7bTR4M3wXDWVXZhorYZ1sJ5iJLUeMedNhdrsLM9YZnJ5mUw4MDO34gvWrJBZXmn+3+mJU6FWhFvuPt1W+IpUqcBceAn3BgdLu4xELO0OMDw+wXCj0WUOoQhez8rI3x1CiMvoai69noBtZsnaRsSyrMGlYdE0tIxBqayjecu5ho7Qy615C8xsDjtTw2oer1NuLjEefTzolJu9X2zMXJ6CtzStVsCoGuhenQt2q0xyzQ/U5jxEceccc7x/H00vYGgWuQIUqga2N9mkXkbpFkM5C61QpUSebMF2r0O36zc49U1YPGofBuRfjtNbNtR80lp604wYCx5eSt2/9DWjsDDt/DHjzzu8dHjUcqBnLd9jZoewDd+cGG3LprvHTz7HaI7l+pq1nY95XHd666TTP8eY9A/1ikun7+XX65vOOdch+fX734H/t/WHW9T1WpiDx+vum/Byuv8fpP8Yc7y7rVP9gMjl0w23S3m3pXONVZjyHxuuH8mWvzYXgTHft8mjzjecicqPqX8itkUu705Kq+mUdcgVrMDni23lyOcs5wE/8PnmtNlC+Mk/sPx16POtufS277Oxw+fLf/tv8L/+l0ahrGPlCpHle5xltJ3/J/ls9OvaPuhh6XWfcHtvS5+D+nqC9nvcR/vsftqO1/j+N5de75h/99/fmT5/P4eX9l51H2bvbHZZAtzf/qCvn/++y++n/Xf4HRhw1qXXaV2D8NLrzSW5Q3l3+/1x5vMfi96np8/nC3Cmz7+o60dw2wg0hwRFpd+dgUdd7h9J2uc5X19vQmWnF0+F2lKDYW/Z8kaJ/aVDbm4sM0KDg6Ul6sxx2wukNBqcplKRQZXT0hLPWO55aNRpaYmDVHjenwR5VorsN+a4Pd7ghHFGUg1OGymGU3BSXOL7uQQTPXfQ/BztcQEWIcSrc22DPUJcelaOIUuPCEied7FDWLrqY5JTIYQQQohrolGiVhkn4wueOMGWOSgWOUn5Ajuuk+IstUqK9Er34MlZgz1O/p3Th+dWugd7fGmtvMbJhCd7TszGzGax9N6+YBFCvFoS7BHiFTKzWShd4DckffbqEUIIIYQQyZw2Gs7S7VedbZLN2hgDnqdTCHG+JNgjhBBCCCGEEEIIcY1cywmaryXbDC553vaKmmtACCGEuObk96MQQgghRBsJ9lwVmkG1bcnz81v+XAghxKsTN18DlSI7S6VEK6mclpbYmS02J1BNWn4w/wYHS7PslxqcNhpdjgxzjts5zyV+z/D78VVf37bjE5YVzXeNGyVqpV7uj3uvr9gSzHL/QuWfsf7+n+X2n/nLoefr2yix32H/pOd4mdrXeTspzp69fu4S812vVYcyL+f1rXCS5FwaJfZnnd+HSfKszS5x0MOP9eW9PuIq+sGrroAQQgghcB9SnBVfYJwRdxWW00qFb3aL1P1//I0vM7kMJw0YTjAdxPDcXM+Tco60LeU7zs18iuFKkZ2lCiPLSZYIbnDaGCez0utawufgslzfSpGdYvD6DU+MR67kk0yKN1MwMjEOKbjJEjtLE20TynYzMnEJ7k8cuX+ORon9pV1GfBMDJ6n/aWmJ/fXwE6c3wXCFk8o4mY3kbebc9Ht9U3luzzkPw8FrGHOOl6V9naPIcwG8pePbRExMHTC+zORykVpbdkV2igQng74i1/ekONt+PmGpOW5vbEClwinRq7AF95/g3bjzuALXx/kMSfUxybd4FSTYI4QQQlwW4xOBZYwBaKxzOrHB5HL77v38wXVaqcC49xDV4KDU4GY+wUP/+DKTKyX2iyVOx/Ot45eWqLc9S6YYpsFJqcTB+nr7N5Hjy0wuX2Cg4ZVd35aT/5+9t4dt3EoXv39+8a/sIimiZgzaukWKkQjkX9iNXNhTvFvsFh4BS0mdx2UmiO42qnYAisBUYbMrIJPScSeKATwu7hbb2C7E4trFDWBpgLtFJHM9xSrAOwFWbvUWh5QoitSHLX/NnB8g2OLh+XrO0cd59HzUHZYK0SmV58FSvkASBSyLTj5/zTkM0jU/KOT6gXtBN1NgLXZtXDoOJDKjNywVKiIltwNkXNpVRSiMXJcrT7b3zbXl6ymJlhRFWCwpLu+y3nuOUmCtxOQ5PoD9davEzKVjFmmvFHiaUWKDScdbm2RIZLKcmMFLJTYPoG25EMwY9ijkO5qxrGNm6WxE/LiRCV9waVsO1Ksjn4WdbHX4QpQi7YHLZylfYTPv0MyaIBU+jwap7JFIJBKJ5CNgvOl3kZNqxOX+F06FVaXKSdFlrZKf3JmSZ60ydIHVygGr4fsckzO3RAKHxYOD+7cauAE3k6+PcBPoOuH7o+qPHjqirTMQB1wzy4lXL1lweccGi0WLxcoEhRyA49cdGvzEtNKPice/ft486g44DidDhhij/cem5salfaGwloG2Py6nTtdxQ20KprPgmxc3kK+nYOhnv3It2m6eNd9CwipGzHF+e3w+++uuEO8FnY0Ka3m4ciFRyLDkmpwU3UiZJEoHbAaed60iZxeFgLLepV2sslgZrMnqFB8l03K/8p1B8V2vQ+mAzf79Ds2iy2pwHI7JmTtfRd/dySdD6gCaEe9NkofJ41T2NGxyeRvNqqE90PzRdm4BI33O+Z3l1P6IuIP1PX4D+8uwt/0424/r0ziF5HPRb+sQdt96hetw9HL4PoDkOugvIUno/hAvXsPO8s361wn0+1w875cvw9E2PHsTaHAZ9l6LsQFwOqF8Epew+wpawWvLoH8NW8tj5r8MR6/Fv/uv4MfLiHs8+Rq7cBxRD0Jyv8b8b7o+A8SvMh2lwGbEob5rmbyrO+JX/UIp4rAwvv4kwvtvZxlOnoC+Hl3u709f9kNz9ffEMrxgfPne+vj1nbR/95bvRv4iBoL3fzaLOPh5cRUiWgsexMJfxmFwuFwqiC/gYy13MgWS1SLvrIxQ2tTNQCwXhSXFBdOk7TgBC53RA+0Al3YVVisKCRfOTIe1Gax42sUilAaHjq7rcOXUadcd2Ig7yE7gPuUL4NS5KlTYDIy9axV5R9RrLZrIQ7ynVAteXwUY2WJT/mrtWpz5Vh9zw6FZNOm4AAqJQonUrGv4qa+fa9FZqbBZGu6/rdzE0sihfaGQLJRYzStEHdqnw6VjVWlXxfvDUqbA09KMh8Eby9ehXTTpZEpslvIsVrOcVAusVTL8erHBmu/C5ZicuYXIdbjX/TUV3mfITawiXYeO4stUfN4nFEDxrDarDqtj2u6YWdqhfSgU/hs0s1nacYrGByTf8OfLYBorLE6sPYMl7Czcp3xcizMTnk6lwMmwuiG+K8z2OXyz74+S6/E4lT1pjZoFubxK0zrnIepTtFrvwQZMNtQcqfPrB3S+af2J3HB991/B6mvYGnPP1svx5TflJu1PM/64PnkD+6dwvA1b23C0Brs/wF5A0bMP7O2JA/TxoVCA7HlKCf+ge/wGTtbFAXz/1fz65w20twcH46NtMF6B7vV/tCf6Dt7TZ31C+SSWxTienQ4UX1yK8fFajHcPMAgo6fxyj53XQHh9LmH3UPyr74Hu1dl5AvuXg3H68rn2/LnZ+gzIsKQQHazPMXlHgbVKqf+86ZRCh4gx9Sfgzy0o//0fgO1Bedz+3Pkajl+Jazv+fj6F5LJYl63L8eVJxq/vpP3bOrwD+UOkW1PXKtItVUgQcM1wTE7qGxMOeA7tqiK+LKKwqji0XcYc4BVWCyUWMwqYwEYpYDru0MzWWSps8EWpNNUBrmN6vxyDsATaEHEcpjqgOCYtpRD4dRSWlAxL+QwJxeRsthi2A+5Vvi7t+gpPS3PVoAiUFai7gGhb/Mo7ThF397SLVShU2Mwo4Lq0TZPmrEqKT3z9Og6eQmbA1YXrV5uaxRWh1AHoWnWWCgVw/P5duqzwxYxT6FombQqsHYg3jY4162Hw5vLtWlVhVdE/AFdIFqtcORd0WQEvxknXdVmMcle61/01DUIRt1QqcFW/fiudapWuw5CVUycUs0eUhfegd1gHGLG+GtzfyZq0MxGKlIci34jPl3D5cNB6hSU3O2IV2VXmbPV2n/JR8qwqWdpOfqo5LWU2wHTo5mdR6F7/+6Pk+jzebFxpjdr5sCLAzg1SrapGA+zcIPWqaoibGjY5NXBfzqDBaBuq0cA2ciKdqxpM29rAyKmB+iqq37ZoYHgMI4Tqq0a/7Yahem3mBmlk1VlTxo4Zn5eettywyQXS0uaCHdhGQD4qOSNQOKG+P37/eVCWU40vSMT6TuQSdnfFr/vGLjzzHr6VACB+6feu+wd0n9ahd/2NaOfZLjx7FbDUuBxc378crvPs1fzaHzv+Kdhah/03EQWXsP9eHFx9a5GtbdCfiANucjvaEmlnJquFMf0/RJa9A/vhaJHxir51TRStQ2+NlwPKLKB1JmS5tQ7HZ/Mb6rzWp0/EF91O3R2O86CscFWPsQuO8euP5VIocobG6ili9HUm7k8A1mHrvfea8dobUopOKg8Qt75x+/cu5D/mZs8tYWBR06k7E4PqdkwTSqXBoS2TgeqEDB6ZDAlcrqKUKYo4AF5NHK8I9tnZOOAp5iATSKbE5kadk+zk7E/t6uT5zY+7kW/XqsJI0OvZ6VaLQob+o2jRVRQWXdfr26HjKCRntsy4XVYrFVL++4ui8MXGvFr+NNavY2ZpVqucBet6WX46dUtk9MpmR9sOD8C9CLyG6/xKgVVFYRGvf6fO1TUCTi/lK6zdwNLhxvJ1TN4R/HHCiy1SKnDlbpAq4Ou3uLqYLrCt4A7ffyfQMU26hZu7nSVKB2weiMdaQWGpUOk/H36E30MypAL1gs83KwWWcLlyM6QOZhnj3ct34udLpjQsA2WDp5WQXJQCq5FNuLSGXosmHTf0ujUduhfT/mJxd/JJFApcTbtHFWUKC6j4upK743Fa9sSg1XqcGyp5LM99qkavlkO1Nc5rwg7FMGz08x41v1LDJpczqNX0fhs9O8dCLo+h6VjnNdLYNBpAGhpGHjutc17TSAMNO8eQrkKr0esJxUeUgZqh5sE6p+cPoGGTUw1S5zpp/ZxzVFQbauc9tDTYORXDaKBNqfUYO760znlPH2+Zo/0RPaVT87qzcwvk7B41bXJ9f/x+d74s1UBY+4nyuwnLwiJgrGWMZx3SOoRwt0nPsmP3VFhabC17lgaH4tDpH+p33w8Od8lteHEq+ptL+5PGPw1rsHPpWZUELrfOxPjCbK2LQ/bciOn/oZJ8Aq2AQq31Fp69RSiCYuoYu17d56NlJ6eeBRCQfAWt7Rlcze6IRQWWVqb8sI1Isz1TfZ/3wBilyMT9+UQ839n2lGyXws2LkKJuUvnE9b2D/TtWfkEzbsSX8sSFCxlIKNB2YcnLnJOICNjo07WKtFcqrGWga/lXFVYLk9ypHJrZKlcKw1/kXJcrRbhy/eoAUdX7v4aKA4A4JFTYVAKZcfy4Gl462Gg3MIeuO8hGMlfuTb4uV0qBVSUutsLor+RxsVKCbkDCBSvPEi5LVPnVzYNTpZMpkIrcYjFZd6Ji9mTGCOCmuBbv6hs8rUy+dYhPeP2i3DT8eCBPN+BX5SDeUiE49yGrlo2+pZAvv6u6w+LGddd+EBdqKVNibWornZvK16FZ32CtBO1ils5GhadUuSqUSCnQzWRAcehWHchAx92IVkbc+/vvhDYpiBhE17RsvLqApaGuXX6tu3TdsHynswocyfI0KevUg5DvmM8X/3NummuRbYvYdV9YFld+cHXPJXaqNb9v+SgKi654H5qoDI2VwXiu9f1RciM+KmUPQFq3SKkGDb1GGjCMJprlqSUaBrZtU15YCNXSsGFIeZEuW4F4O0IxIdrXSak51LL3PK1Rs+KOhCEaBnZK5zyot0lraCmVnxo6ae+6pg9i1WhaCmNiDsBAczcZH0DjJ4y8it3w60Nq+tq3P747YGtbKGIgQhGyDluvPDcPgFM4XhdKnLm0Pye2toX7yebX82/7MfR/E3xXHWOMe46+B8kIhR6ncPxkoCTY9KxS9Aglxn2SKB3c6Bf/m9a/EetCibaPiMMzYpU1oXya9b3t/TtWfn0zbi+oY8bl16pIzYyi0DUduiviEBPbhmN6gTMjvlApeZ6uFDnJ1ke/zPdTv1bAzA6ZWnedOosbFXFgGsrCFahb32DzIOACWN8gsVGnWd9gM5R6XWT1iBm/9yVytl8NA+4FQ0QEcb0X+Sr9w0VUoNNZYr4Mu5/4gUOFpcw7x6JbhWRcqvuIgJxxMXuazi19IXctmuYFq5XSUOBjuX5TrF+IrlXlaqPEUgZ+tRyYwrJGWLUIK54h64CMQtc06bpxFgvT4AVqd13aVZMzS+nHhRm/vjeVb4aU99YjDttFzuobrFVEHSHjDAlMkSGqUIm2ILrP998JXF24dEPKgDOrMqV848ZapbNRIaW4JDJCi9QuCouQ0c+GiGyKEUq4s6GsUw/l9Rucy/jPl8WQIqLr1GElQrMSVgAFWMortP0Axu4FrEz5grp3+WRYUky6A4/SeNwLusrGzJZ49/r98RPlo1P2QBpda2LYUCM3rFxJp0ily5yf30S5oFE774l/Gw0aPxmoeYPejdqcJzcZn01OtUnXzql52qaGoY4eaO9tfA8D33Jga1scJHdi3HzuFd89KeBGlFwDAvFRfI5PPQuIW+4/kstQwOQIWoew/yReYTKpfBKt9yKuSxh9wrr6llpBjk+FldCz3VBbcWObw/znizv6IT8vc9snCCubmKDls+zPSWszqXziPdPu33kT+aXQpatseFmuMqyuDB9iwogMKQqJ0KFg+Eu5QiLjehYeXjYafEVPaTT1Ky6/1hUSFW8MG8VRv34lz1qJfgacVa+NVKbEJubwl0tHxO6ZbzwZYU00lvuU75xeRqO/zA9YyhdYzJpcFSoDqxDHoZPJeHJWWC1NGRRTyZO6hfiZXcvk3cVGRBBQuX6T1y+MiMmxeiBuXlWqAeVKVPsV1nBpmxt8oTi8K9ZJDAVJFcqQTmG6mFxjURRWCxt0TAfyeaZa3zlydQEJpc6ZqQzFQElswEl1I5RJ0OOB768hJZhvLdJf62nk63LleooDABya1RWeVhSWnKqIEUWVzkaJtZGgxXnWDobfEDpmkaugS9mkAL8PXL7gKXaU4DzFZ99qeDwTFTgZUiWLs6JFQpnSUu4RyCc4rnbVJXndAOGSO+UjVPYI6xFUA4OAVQ8AwopGNVKc69cLL2yoKg3dEsqQdBqakE5NafuS1tGaKkZDG8SiadjYTW1uQaanG1+TZt8tLUe+DFavRrrRpJlOoac8RY9tYNiNCF+HmPp+qVfYsA3yORvKgwZuJL8ZaF8CXoYl461niTGvxj3rnn1mt+qZlnmMP7kNBLNPLYugwbtvBhmOjg/BeC8sIObNSP8IpYoRCKDbOoPWk/n3PTWXwvJmnMJuFre6k/eD4MLB+seI+g9u/iEShQIdJxAktOpZc8wDf/8dDgdINjwFj74+YX9GZUGbA3HrG7V/b5vIoKFOHfpfFMXhLpGpRgRRFL/sXhXCGVKm/WU8z1rcWcGp0tkoiEDLiMCMV0WTToSyplOtQyE/7GaQKZAq4Sl6HJFFpmJxli1yFfVFU1FYRMQVmWda1/uV7zxwuUIc1JtZk6tMBhyF1ZI/jipXikK3OgiO2mVWC6nbQgRk7q4MXHtmzSIl128YEZPjYMhq4qlV5MwaMxenSmdFxOhZO1BoZou0/degY9IkQ8IMXJuBdrFIt1Dy4jK5IgiwcouugDF0LREYPpURVmtD1i8mMfvjY9hfkwgqDkTA/cSBp9jLlEiYWU7cQqwiYbgpi7a7wdMZpvRg5Dvm8+XqQiER0PV0LS9GUsRcJveTZ61kcVYEViabyjwM+XiZWCfc2jGLdAsHMa7CN8DOsZCzRUiU2kNNc/T4+CiVPaChaypqQ6cXUqJoIs0TCws5cSGdJp3SsWoaaWxyC35AZJuFsl/Hi1kDQArsPAs5389Jo9ZXKAXrA6heGxq1nohxo59bIkCx5yeVTpfRz3URv8ZQUcsNYIFcrUcNb9NjozJtGvdx4xP8UU+RVxco++XnnqImrWNpKqq64FUto2tpcjkVIxAsObY+kP6jTirvzTutUStr5MpqYPyTx3dTNj0XjR9B/EIfSF89lBobL3YHA7ecfmrll0LH5afC3mU4OOuOlyZbD2l65tH+uPGPo5+y+hSOPVcVfVscmH38jEO7fsyZ9THpzU/FXPS96RQd0/Sf3Ab9zcDyJbkeCG4c6vvHQNtbL6con8SlUCRAwPLGT73OcKrtZ6EU2766sp96fVe4cPVTbgfSuh/vDq7398MutF+LfXPt+UfcM8v6TIWSZxWTk6wImLBUED7f82Lrpfc62PWUKMvwYht21gflkfszIN9nvnwZXGMX3iAsSeLKO8/hzZj1nWb/3rb8w180AX6tI3zz3aDljSuCsVYDLjmuwurBwVyVI4LBr799lDxPC0XOsuaQdU7HzNJ0C+JX4aHvwkogPoIX/FnJs5qpx/j8C1PyjsNQXIXhWB6O+KVyhhSuD1O+Y3BMmsGAs64DG2I8qYMDoSzZqHjj9TKfVRRhOVXM0imUSFy4fPEQfnx1HTqOSzeUwWdc3Ikwcv36DXuBh0djAi3lK6yaWU6yEe47nqvlII5OhtWCy5XiWwQUhBWMa3FWzNKNiTkUx2qpRLtqcmKKF7+I2XOLmy8sXwIHW98lrFDgylVC1oRifzQZnt9j2V/B98GBImsyIutaKTQX6MdZUkqkFHPEGmoUh6ZXf5b5Phz5Rn++4FpcbZT6ih0/vby/lzpmliYlNkuKN+4JyhuryFlVIXVwwKJV5CTrvS5i0tI/CPm4LldKTDwrYNx7zzywbRtIU76mQYYkmoVer9ebR0O//fZb///PPvtsHk1KJA+XUxGoOSo7j0QikcyMawkz+sCXQGH5UADTpBMTa6XpTDbDvs4vyx0zS2elwFU1eCgYGrAXiDWm/9gYD0TGjRnBSy07VZr2abhv+Y6Tx1gCbnYRLhLiQEHEGP0YHpMDrUbG7HlofPLrNwh8PE3wXNGuO7g3zsXGmxfhA2h/vvN1Y4vlpvJVAgqz/jwCMhtJaT2IcZMoHZBSHtb779xxTM7cAmsZhzMTEkqVVl9xHprDUNrx4TIx55j9N86N675fvxHyGP588WLkVPLgvXYiA6z7shnZT8HXpyBOqTP8o8Xg/eEhyGfSZ0E3GHh67jQwVBVbm9a4QTItUtkjkcxA/9d/jxfXTbsskUgkd0TXdUXq1hnpWBaL+Zunmr4u7WIRSndw0Lwh15Wv5GHwya7fpBgrkrnwcewv13PTe3hK4evK97F8vtyUqeVz3+8HDQNVbaD3YrJFS66NVPZIJBKJRCKRSCQSiUQikXxE/D/3PQDJlDQM1IUFFmIfwVhBEolEIpFIJBKJRCKRSD5VpLLnsZDWOe/16MU+pNmbRCKRPBSG/fIjcExOitZUMSq6VpETL77ENHSt4nDfjslJtkjbDTw3owbn0o1KMhI5Vkdk8pkiKcndIoJXnlnDA+taxf6cu1YxVvZdyxqWs2vRtizOsllOAo+zYnGkj2Bfn678b5MY+UQx9vXl0CwWR9Z08PjU5DotUv4SiUTy2PhIs3FJJBKJRHLHBDJmQKaf6aPrOPxaNwMBMfECPELHZWKaU4ClQmEea/gzAAAgAElEQVTqoIhL+YpIoxvI1rFUKHmxCRyapkuyILKXhdv81cxyFj5oBcaKY/KODdbygLLBF9eKd3CLGT1chw4FnkYEo1xaGVxb2shExiVYyiu0gynhFYVu3eVpKNNJxyxylYme/MOX/+MlUj5RZEpsllzaDixF7rENnh5EB5I9M/nk5Dot9y3/QYaj8QGqJRKJRCKQyh6JRCKRSOZFZoMEhKxDqnQ3DtiMSDN9kwNL13EgE620SJQqJCOsRzpmncRBpZ9yt+sqAWWTwmrlgFXX4qyqsFbKeBlBMqCIsXZxWVQywDizpXE4NLN1EgcHt3JY6zp1uq7LWVbk905kMnQcf6zBtN/e/yNZVTKsFqrCsuAGB/6HK//HzqRMVA5tS2HVU/Z97MFX7577lf9SvsJm3lMWS4WPRCKRTEQqeyQSiUQieQCMd/0KKioC9FOyjqZ+BWhl/UrOoH42G2ygn7o13P9J/7YsJ15fqY1ZZhTGpV2sk7i1Q5rLr3WFVF+ZMiCYfnZSKtqlfIXUULPVvvJogEKyMNz3w5f/x4SvNBzeS12rSqvq0lUmWI1FrqmHUoi+Lglwn/LPkDqAZtFiUWYSk0gkkrE8TmVPwyaXt9GsGlr6vgcTjZ1bwEifc64/0AHeJnewPsdvYH8Z9rYfZ/txfRqnkHwu+m0dwu5br3Adjl4O3weQXAf9JSQJ3R9imhTxk/rXCfT7XDzvly/D0TY8exNocBn2XouxAXA6oXwSl7D7ClrBa8ugfw1by2PmvwxHr8W/+6/gx8uIezz5GrtwHFEPQnK/xvxvuj4DxK+aHaXAZiU/Utq1TN7VHWExUIg60I6vP4nw/ttZhpMnoK9Hl/v705f90Fz9PbEMLxhfvrc+fn0n7d+95buRv4jP4v2fzQIZ4bJjegf2EImAK1OidMBmqFy4LbgsFcShajUfd4LyrEKCl/xUqoUL3rkFnmJyVqWvXIgay6Zfb8iypNIfY9eqx/Q/BU6VzkaBtTG3TN6/49vvFkpCBo7JSX0jZLVzDVwXChU2Q+MQ6WyDVx6+/Luuw5VTp113YKMym2zFhGibJi1HaLSWMhlwV1jzXgftYjak7FJIFEqk8sqQImupUPFk4d18rfci78AfdLlzLd5Vo5V9IygDF7vhKYo1ux4OzaIp3O0Cc5+WSGWvZ3nmvw+MIpSFXzgx5UqBzUrGU0Qqw3vPjx31KOWfYXWjyDsrM+M+vtnnn0QikTw6enPiw4cP/cedcF7rael0r3x+N909JspprVe770HcYH1+/HOvdzT/Ed0ZNxn/0fe93otg/X+K50Pl3/d6v/jP3/Z6W38Wz3952+u9eDu4r/zfg/H8+M/59R9uq/zn4edR98xSPpb/7vW2vg88/+fweIMyCJYHGVmffwqZjrQZMc6bzH8e6+PT+vZ57/jb6mhB/bveafVi6HmjPkP9CYzM7Z9i/P5cxu3P3j97vRcvhmU9tN8mlfcmr++4/Xsn8r+o9k6/GxX4v6vf9hr1i96/6sNrcxxx7zD1XuP5d71W9VuxrvVqr3UxoUqgz+Nvq71/e30N9sWFGP/z58N7Zajbwf1i7OG5eGPz25+Sf3337fjxT7l/Yyr3Gt/Ve//6Tszt+Lu6kPHz5xMe/pjqvUbguuh3ICtfXv32h+4b5SHKP6r9Wfh39dteI1Dv3/Vq73TodSD267/6zy96rcCaj66/mMMQF9XeqS/vkdfHRa/1bbB9/9rzXqPu/51mJsNrPfK4plxb34rXuRjWhfd89nb+7b/eY67967vBPFvfDmQ6Uu8isD6eXIMy/dd33/ZOw/J8TPL35jfrWl33808ikUgeI483G1dao3Z+TtBwxs4NUpGrRgPs3CA1uWqImxo2OTVwX86gwWgbqtHANnIi3bkaTGvewMipgfoqqt+2aGB4DCOE6qtGv+2GoXpt5gZp1tUZUqp76dnLDZtcIC17zh4uX1hQ8Yfm97mgGhiqV2YM9z80jQny6xOxPhO5hN1d8eu+sQvPvIdvJQCIX/q967uHw9Vbh971N6KdZ7vw7FXAUuNycH3/crjOs1fza3/s+Kdgax3230QUXML+e9h7ObAW2doG/Qnsn0JyO9oSaWcmq4Ux/T9EloVFyf7haJHxir51TRStQ2+Nl4VM+9fPhCy31uH4bH5Dndf69FFGf83s1F0SwaCxygpX9Ri/oIj6Y7mEfUJjXRbj19eZuD8BWIet995rxmtvK9jHpPIAcesbt3/vQv5jbmZJUcB1+tlpOnWHxMZ4q5OOaUKpxBf+hUwGquMzeInMXVneUWIz8Mv5Yn+8wgJl86DEYtWMyHrj0q7Sj7kRZilfuWZQZZerCYFdZ9q/I80rrJYyIlaOkiFVygiriIODCQ/f0iFDynueVPzg2r6sxOMpJp2N4fphWTxc+c+HK9z+/lvK5PtWPdEofLHC9BmcgE61ymKhwuZBhadTWWUprFYqLFWLdDZmkI1SYC1qP1QK13YLWq1USPn7V1H4Yo4ud0v5aEus1UgrMYdm0QIltD6ZAgm3LuKJuRZtRoO+Pyr5KwqL094bUVcikUg+BR6vsicCrdbjvJwmXfbcp7QavZpGWqvRO9cBMAwb/XyQsvxcT2HkjKE2ejWNRjmP0dCwznv0LI1UXzmSxw6kQbe01LCyQ6uJdsvRWg5DzYN+PujfSmGrQmGS1s85L6dpNOmPsZZqYkQqjSLwxlVOa9QCadlrWqC8ppEuW30lTFq3xP3nOvp5j3K6gd1Ii3n3ekJu+YHCaZL8bsQy7O3Bi2XQ9+DIe/juIYBwt9mDveej1ZPb4nrrvTjAHe15B83DQPsvhZuHf7hLbnv9vZ5T+5PGPw1rsMNAIeXTOhPjC7O1LsY0N2L6f6gkn0ArMNbWW6FkO46vgrEb79Jzcgo768A6JE9DbmMPhEVlOLPQWNzRk9ZM9X3eA2OUItPuz51t8Zo5PhRuXmEmlU9c3zvYv2Pl55hDaYSbDlxdiDVIKPCrC+DQcQbZuqLoWkXaK+HDk8JqAd5Fpu12aPpKhoODwMHQoWk6dEaUJhlSB+GDoku7KBRMsW4Yrp+GfPpU8P7YF69zvorYv9E4vPPSNrdcIYuTbFa4qYTWpP+ITQ0dzdVFKHOaYwbcbh66/G/OUr7E6kXVk3OWM9OaoMhx+bU+XbY5n8RGhisAlOkP/U6VllIgUS/GpLS/Di7tYvb67bkW7+obrN6xYq5bLY7ZG+L9o225dKp1FiOUzY9K/q7rjXU2rvX5J5FIJI+UxxmzZwxp3SKlGjT0GmnAMJpolqftaBjYtk15YSFUS8MGtGA7ZSsQb0fD/y+t66TUHGrZe57WqFn6dINrGNgpnfOgHiitoaVUfmropL3rmj6IdaNpKYzmdM1PhaajqQa2XhPztQ1sTed8MCA0fTAWSPNHrYlhg5aaXn73yda2iOEC3q/8QUXIOmy9guNtz2LgFI7XYW9e7c+JrW3Y/QE2v55/24+h/5vgx2wxXsXfo+9B8hBG1JSncPxEKAsANj2rlJkVdrdMonSzTEY3rX8j1iH5Sljt7EVZZU0on2Z9b3v/jpVfP7uTQ7Posppx+bXqKToUha7p0F2pclUYc6B3TM4uCmyWIg4kSp6nK0VOsvXhrDiO94t9NSaQczCW0HCDgQDBJpSGFRBL+QqrVpGT4oaIsaHkWTu4XqyLxRUvffgN0rWPHmK97ED9cbm0i1UWK8OyWSoMW0aIIM3RmcwE0QGXcbIDBXCmRAqTTqZE4hHIfzwT5OuNNVEaxGPpOiZnphWKfSKUXvTvL5Gaer1d2nUXXJN2Jjqu0eiwg7GZFLpZkxMznGENoSQrVj3lXoZUZYV32eyosk8psFaCd1mTROWATdei7c6YVcq1aJoXrFZKgf01jXxvjtjnLs1ijBYuU2CxWKRNgbUMtIf26iOTv3tBV9mY2RLrXj//JBKJ5I756JQ9kEb3lBM1csPKlXSKVLrM+fmUyplINGrnPfFvo0HjJwM1b/Qthx4+aXQdVKOBpoNhgH4+pa/VXOR3/+xsC/edLc+CYCfGzede8d2TAm5EyTXgByDkinJ8Gm0BMe/+I7mcbPnSOoT9J/EKk0nlk2i9h2SExYk+YV2T26NKvuNTaHmufENtxY1tDvOfL674pT34xXhe5upPgENG9p/PLPtz0tpMKp94z7T7d964F7AS/rXcpatseIF7M6yuFDmrb7BWiV6XrlXk7EIhMaIcCCoRFBIZ1ztUe8qCTInNg4gGHZMzt8BaxqHpZMYGjE2UKsQqORjNnhMMLj0NS/kCFC26mbgMOuP2r3Czui7dCCXM0qSkP8Egsn7Q5IJL280HLDa8fx6B/Mczu3yXMhskTKHkGhyeZ1BehCwzupZJd6PCmmJxZlqgVGkRoTjo31/0lKJ+eYZUpcBZsUrbzQwrCCKUZInSBScmg/G6Fk0nw5KiDO5V8sNBtyfQtUzeXWzwdCT48M3272xkSFXiyhRSlehxPC75u7SrLsmbBmCXSCSSj5yPyo3LJ60LLYZhNNH0oL2JhpayUY2po+CMYKgqOdtzq0qnIQXpVGp8pcHA0JrGSAwcu6nxx7lmrWrS7Lud5VAXciFXMx3NNjAMYdUzbJHTwDYMGo3B85/sFJoG85DftLQDMXV2d+fsSrMOW6eeq8h6fEyQmzCP8Se3gaAb0TLsPBExg/xrx4dgvPfcjubMSP8IpcqPAUuL1hm0nsy/76m5FJY3O2Oypu2/Gu/SFeTkvXDFOwo8Xrwf1H9w8w+RKBSG3F7iTPWvhb//gpY2l8LCxjjlzvenT9z6Ru3f26bruoHYLB5OHfpr4NCuKiSUKu0R74SAG1Cp5MWPEY+1gsJSoTIUZyZVqoRizkTh0DS9+C9KnlVMzqxJblHDcWqi+4+OVzOZDKlSnBva/Pdv17L6lhTh8a8VxilBPXeqwuDA3qnWSRQyoGSgOq0L1UOT/01waGaLtJ3A+F2Xq8zG1FYSiyvQqg7WvuvU6YZeL526RVfJs6rUabkF1mIO8x3Tf62EypU8TwsbE10GO2ZWWKQEFVPeGp1kixGxlCbh0jY9i5mSsBjrWsXR7Fp3TLs4m7vfY5F/xyzSLUxpfTQLftzN3O1/z5VIJJK7YKHX6/Xm0dBvv/3W//+zzz6bR5M3omGoqA2dXi3sXNTAzuWHFDbplI5V00hjk1sYDYis1QZxbww1RyPVxO7X16j1U4xH1weNWs9zm6KBkctT9uqn02X0c6FwaRgqarkx6JNc/wOnH4domrnbOfI5Wyh4hsYXwM6xkCMwLn9+Kug6DSOH3YiqP05+86F1CoZ/YAyk1oZQauwAvluOH4dl66VIje2nwvZdP/p4KZ31vWFlzzzaHzf+cYRTe+95h9Vnh2NSgAdSWwfnFR77NAqtG/cf0bdPWF6R5ZMUAtdNvc5ABuHU6/2U26G2/evB/eBfu/b816PvmXZ9pqVrmZx5B6qw68o8aB2C8Xawv19sDytzIuUTJV+GryWgfyiJKn/5HN6MWV+m2b+3LH8/oLI4vAg3riXlgsVSiYRrcVa8YPWgRMK33iBoOeLSVaLjZAiXoxnTkOPQzFZZCgVwFSmc49N/RxHXv0g/fo395aV8jrJMufn+HVjG9Ov71jUjblxRMhXuNgTG1jGzdDaCY42W7Wg7D0v+kam9p05BLeZDBjq+wkfJkAq4yw2nXlci5ujSMU2a/dTtBZ6WghYwgdTuSoYl16GbCSoUIlz0xs3XcUhkhjdY13X41TTpFsJ7b9TNaqb9N+SmNGAW66txqdfFEM1QDJuBFVV8anbhMtXuj81bF0JuVf770oOX/+jrc57YuQVydpryrAlGJBKJ5IHy0Sp7JBOwc6hNfUSBZKgqWJ/Ah9wp7L6Pzs4jkUgkM+O5IKRCCoW2UgDTpBN0CfIQh7uoQ/Ewsyh7Boe+ce40QVehYMyYiMPmJCLmdb84NLN1EkPxjMKHZMHYw3zg8B59YPcPp8NylvK/TeLi3sQTFaspVikS3jP9WDQSwf3Lv2tZXOXztxRzp4Ghqtja9D+uSiQSyUNHKns+McSvFv6z4V8vDHWBsu++lS4/ojhE0xO0OoCAZYdEIpE8UKay4PAUGrdhzSWZAil/ieRx0zBQ1QZ6yOJdIpFIHjNS2SORSCQSiUQikUgkEolE8hHxUQZo/ihpGKgLCyJwXOQjKlaQRCKRSCQSiUQikUgkkk8NadkjkUgkEskng0vXVVjyPI06Zpamn1XHMTmprswYA0bE8bi6tvuSFwckE5/ief5Mjj0y37TmEolEIpFIJHfP/7nvAUgkEolEIrkjXId3xSqLpQNSGZcrVyHpK1kyJTYVi7Ns1iuf3FzXqgpFzY3i1CgkC1N05jp0ULgyi4GsTyII7FPMiMCvY4IkxwY29jIOSUWPRCKRSCSSR45U9kgkEolE8onQdepQqHiKHGHlkwjqaZQ8a6ULmiM1gxmkPDIFkq4LrslZUaHrTpFlZ6RZlytccIFJ+iJF4aoo0i5vhtKZv6PE5kG4AZfuNO1KJBKJRCKRfIRIZY9EIpFIJJ8CrsW7qkuXIidVQFFYwqWZzUbcnOUEAhYwCquVA1aDtzgmJ/USm5XMdBnD4lAyLE2n7WG1Upml4b67mkQikUgkEsmnxuNU9jRscnkbzaqhpefXrEhLPpyOPOImFrzc5enyOecxN9q5BYx0fHkUDUNFLTfQaj1qH0XeR5vcQg571jTut7S+t03rEHbfwtZL0Nfvpk9DVcEK7td/cPzzX9j/n7/RApLJP6Fv/ifJfo2/YRx+w/EHgC/Z+r/fo3/15aDBhoGaB+tcZ1bR+2ntk89hb3sgDwDW4ejl8H0AyXXQX0KS0P0hXryGneWb9a8T6Pe5eN4vX4ajbXj2JtDgMuy9ZiC70wnlk7iE3VfQCl5bBv1r2FoeM/9lOHot/t1/BT9eRtzjydfYheOIehCS+zXmf9P1GeDFS1EKbFby1ygfT3h/7SzDyZPBazJu//myHZqLv+bL8ILx5Xvr49dv0v7cW74D+Sp51g4C1xyTM/e6LlgOTRNSB5l+Wyf1jRnj/QDuBV1WSLgOXWasexPcKmfZanSZUmAttuLN9qdEIpFIJBLJXfE4lT1pjZoFubxK0xqjmJkRrdajrKqTbqLXE4qZcV/ztFqPWfU1af2cc1SMGes9XDRqvRo5ddQhYCy3tL63TXIb9oD9u+rQzlFO6fQC8mn9/A37/Im9ne8BOP75dxg//549T6Gzf/gX+OrvHCW/hA//YP/kG4zP/o7un+jTOnpqAcPWZ1Y4br0E3sD+KRxvw9Y2HK3B7g+wF1D07AN7e+KAfXwoFCB7nlLCPwgfv4GTdXFA3381v/55A+3twcH5aBuMV6B7/R/tib6D9/RZn1A+iWUxjmenA8UXl2J8vBbj3QMMhAyGyj12XgOvYPU1bBG451D8q++B7tXZeQL7l4Nx+vK59vy52foMyLCkMCY47qTyePyxB+W7/wOwPSiP2387X8PxK3Ftx9+vp5BcFnLfuhxfnmT8+k3an63Du5LvgK7rsnhNa5yOaXKlKCGroJACJTYuzvAYljYKfEGVX11u0RJn1A0tNtZPUBE0Mofr70+JRCKRSCSSu+Txpl5Pa9RCFjiGusDCgoph5AZpytUcRkOUNwyVhYUFPMMc7Jy4R/Vv8Gka5NRBfTtUPBY710+HPtKuGAVGTh3ck1NR1ZB6p2kMjX8opXrDHoxtYQE1ZxDsJTgn25dDuI2xNLAD41tQDXKqymAqofGrxpjxqX1ZTzv+PhHrO4njN/BsVzx2DxG/unvPn/kHplNxuPWvG4fRbeweegdBr+5xTD/PXon29oPWFu+9ehF159G/j2HYaNqwRib51d/Z++r3sTLa2f47etKz5Pn8SzYjzFI0vUzTiFmXKdhah/03EQWXsP9eHGz9bre2QX8iDsDJ7cAhOTjmmawaxvT/EFn2DvSHo0XGK/rWNVG0Dr19vhxQZgGtMyHLrXU4PpvfUOe1Pn0mKRlmVUJcCkXO0Fg8RYy+zsT9B8A6bL33Xm9ee1uB5iaWB4hbv7j9eefyxeXXOlxVs5xkIx5Fi25Mza5VpE0GlAKbBwdsHhywVlBYKlSGnicKky11ri6Ewmkps0LXiYr5My+EG5o/vs2DA55ierF+DuIfccqq67qsSSQSiUQikdwRj1fZE4F+3qOcbmA30ljnPXq9nnAfygtlR1o/57w80B5otR69EfOFBmUDdMurb2nY+RmUJVqNXq831M9Q60YeO61z3hPtW1pq5FBtlxvo3vhrqSZGQGlkGHa/rNfrca6nMHIDZZE/p0Y5j9HQhBwsjdSUJ3c7l8fWrH77PStFcICGmgf9fNC/lcJWfcWA737lj89Cs4eVQZPGfxO2XsLe88Gv475rS3I94M6yLn7BP9oTj83LgUuH38bRS2i9FQoc/TUcfQ1JT5nj/+Lu1z/6Ggi51Ry/FQe0oz3vIBk8yN+w/wE2jYaGFml98w/2D/+DZ/v/wf6HP/Wtekb48FeM1h/YCSt80ilSDZufrqvtWYMdQgowhBKCCPe2rXVovb9mXzP0/1BJPoFWYKytt0LhF6Xg8zF2411+Tk5hZx1Yh+RpyG3sgbCowNJK/GF5Unkk74ExSpFp99/OtnjNHh+K944wk8onrt8d7M+p5Oc6dJQCa5UKyUJQ4VEiQYZUjJLDD4a8VliZw0gdOk6GRAYRt6devUOLGYd2VWH1Gi5s19qfEolEIpFIJHfMR6XsEaTRdJ10evD8j1oTe2ptTZqyFaif1tBnqj+hdV0nZQ8sj/IG1KzheDZabRCrRtNSg4KGgW3bA6sf32rHbowoo9Jli/OaJuaR1gLyGIeN3dSoBQPlpDVqPc/CpmFgp/Rha5u0hpbyFAO2TVPTA3F20mi6Noj9MsP4r0tye/iAu38ofr3v47l1+JY1+zFKhuRzzwJgGVj2/gIn70PxeJaF60zwl/etlyIGC4iD5BA37L9Po0kTSEXUhS/Z2f6Fo+2/s8Vf2P35H6O3fPgrxsn/srP9nxExZzTS6QaNGb3vgmxtw/EP96douO/+b0LyuVAExlmMgNhze88jCk7h+MnAcmUzaLXygEiUDlgbc8ieVH6reEqy/fBrfcryadbvtvfnNPLrVOskChlAYVWp03S866YJpejsWR0zKxQ9c1obkbZ9w+tLYbUAbes2rXvCfUMnyqppgmXTve5PiUQikUgkkil5nDF7HjUatfOe+LfRoPGTgZo3pgtgnE6RSpc5nyXY8TVowMzBeafijsa/sy4OuDri4LsXUJQYryD5Eo68Q1rrcPYYOy1mCMobYh79T83nX7Lz1R84PvkbfPWf/cutn7/B+PAH9EhFz5zw3ZMCbkTJNSAQP8Xn+DTaQmLe/UdyOfnA3TqE/ScxB/8pyifReh+hzGMQRycOP0ZUkONTaHnui0NtxY1tDvN/MDwBDhnZXz6z7L9Jsp9UPvGeaffnbeFatCmw5usrMiUSZpFmHa5WKqxlIuo4Jp2Ng+iyayEsa/oBngEyBRLFIk3lwEsNf3ss5StsxpR1zCJXU7igSSQSiUQikTxkPkLLnga2YdAIxJj5yU4Nubs0m6KwYRuoo0FlKOcH9Ru2QT5U/yYYqkrODwKUTkMK0qlo+4xRhBWNaszLDiaq/TL5gNtYw4uxkxN+cGhNg6FQRA1hDfTHNKBppGwjEOOogW3YAS+w2x6/ILkNHEZb9bSWhbUDiEPxrFYPm0+G4+y0LoUCx5imnTn03yedIgWEjW/2D3+H0fIteURmrtbnX/af75/8TgRw3vy9yID18+8wRk77No1GmvS02zKG5DYQdCNaFkGDd98Mrh0fgvHeczuaMyP9I5QqPwbX7wxaT+bf99Rcij2wE6OgABGgd5xLV5CT9yL48FHg8eL9oP6Dm/888fdX0G0y+Pq84/3nE7d+UfvzbnBpmxesloa1KYsr0HHGBGzOlKZTwDgW7YnGOS7tYpWlStiCSGG1VODKzPYtje4eh46jsHhdwx0/bt/IdwuJRCKRSCSSu2Wh1+v15tHQb7/91v//s88+m0eT18JQVdB1GoYXWDmtUQum8G7Y5PKBMg1yZZt0+Ry9oYrU6zUNO1cWSoqh+l4q8ZFeRdYpbWI5GGqORqqJ3Vf4DNr3U6+DiL1TIyrNewM7lx9SGKVTOlZNIx3T/2yp3BsYuTzlQPtl3UIfCHCoPJ0uo5/rg8xjQfmSRqvpkAumXx83/vnROoTdy0BWnuB1L9aJn5bZeDtIbWxExNoIp1LffwM/+kqaZXixLQ6Lwba3XgrLIj+VdVS65ev272OoCzT00Np++Af7P3/Dj57CJ5n8Ht1T7PDhr+we/mXkcLm1+csgGxdcO/16OLX3nneYfXY4JgV4IPU1MJreHOGyNM4lZm79R/TtE17PyPJJCoPrpl5nIINw6vV+Su5Q21H7yb927fmvR98z7frcFa1D8ZpqwdDr0ydy/lHyY/hagkEGpqjyl8/hzZj1Y5r9eevydWkXTShVWO0rM0Qq8atChbW8QsdTtCRKE6xrXIuzqsKapzTqx/LJ42W9ypA6iHAHcy3OinUSleAYQjgmJ6YDBNvwUp7PPOeYcQToWBaLec+SJzSvWbFzC+J7xIwJBiQSiUQikUjmzcep7HlE6bolkmtj51iwtYgg4zdtdgFbm0VBKJFIHj4OzWyVpUqFxWrQciZKGTKsWJmo+CGo7InR4LgWZ8Uq3SnSsQ/dj0JynGJoHvT7Am7UXwNDVbE1/8cZiUQikUgkkvvjo1L2GOoCZd9nqG9JIpF8vMxduXlNqx6JRPJp03Vdlj71dOQNA1VtoHuWvBKJRCKRSCT3yUel7JFIJBKJRCKRSCQSiUQi+dT5CAM0SyJpGMMpz0ceUbGGJBKJRCKRSCQSiUQikTw2pLLnUyGtc97r0Yt9SLNziUQi+fhx6QayZXXMrBcMGREYuWh5scMmIkcAACAASURBVGumxaGZzXJmTUzBNbZ+fwxTMDTmqLIZ5jDr/RKJRCKRSCSPBanskUgkEonkU8F1eFf0AzS7XLkKyYIXfTlTYrME77LTpz7vWlU6mTGBmaciMIaJhMYcYnFFIVGYIgA0gGvRdqMCRrt0nOsqryQSiUQikUgeBv/nvgcgkUgkEonkbug6dShUvOxaLl1XIRHU0yh51koXNEdqul5K9cClTIGk64JrclZU6LpRCpIJqc9dlytccIGp9EUuXTaGs2U5JicmpA5KLE7ThNdO26yTKGzwLpuNtOyZJguZRCKRSCQSyUNFBmiWSCQSieRTYCjFOKAoLLnueBemcanSHZOT+gabpcz1s3G5FmfmBYlCgdXMmPqOGeO6lSFZcOkqQoHVtYq0+/+b/JopRaZRD943Mp5incRtp3uXSCQSiUQiuWUep7KnYZPL22hWDW2O+aHt3AI5O035fEwqazvHQk6EMk6XzzmPudHOLWCk48ujaBgqarmBVutR+5QD6NzS+t42rUPYfQtbL0Ffv5s+41Kvt1p/xfj5L7Q+AJ//ib3t/yQ5dMffMPa/4Tj5PUebvx9cvkHq9eM3YJxC8jnsbQ/kAcA6HL0cvg8guQ76S0gSuj/Ei9ews3yz/nUC/T4Xz/vly3C0Dc/eBBpchr3XDOR2OqF8Epew+wpawWvLoH8NW8tj5r8MR6/Fv/uv4MfLiHs8+Rq7cBxRD0Jyv8b8b7o+AxyaWZOOUmCzkr9G+XjC+2tnGU6eDF6TcfvPl+3QXPw1X4YXjC/fWx+/fpP2597yXck3eKvJmVu4pguWQzNbJ+FZ7XStImf1jXjF0JgxnFRXSG7AF/nJdYeVOeL/RN2kg0MnpAtaKpRIXLh8URput2Nmaa9UWL0o0qTEZsnX+Dg0s1WWxip6brY/JRKJRCKRSO6M3pz48OFD/3EnnNd6WjrdK5/Pt9nylG2el9O99Lw799rVanNv9vFxS+t72/zyttcr//cddVbTekRsll/+52Wv/D//1fvl/4ur+L+9H9/+v70ff/lL78Xxf0U0y7X34NH3vd6LP/d6R/6Ff4rnQ+Xf93q/+M/f9npbfxbPf3nb6714O7jPl+OPf+71fvzn/PoPt1X+8/DzqHtmKR/Lf/d6W98Hnv9zeLxBGQTLg/wYnJ9/T1SbEeO8yfznsT4+rW+f946/rV67PI6Rsf9TjM8f67j91/tnr/fixbAsh/bTpPLe5PUbtz/vUr4+/65+22vUZ2vb51/fPe+dfvtt7/j58/jHt9Xev6cYw2n1ovfv6ne91sU0/X7X+1ev1+v1Lnqtb7/ttS7qvcZ3g0mMn1O913j+PFDut9Hr9S6qvdPn3041huvuT4lEIpFIJJK75PEGaE5r1EIWOIa6wMKCimHkBmnG1RxGQ5Q3DJWFhQU8wxzsnLhH9W/waRrk1EF9O1Q8FjvXT2c+0q4YBUZOHdyTU1FVY6T/4PiHUqI37MHYFhZQcwbBXoJzsn05hNuIwZePmsvF928HZLOgkjP8Upucd78oz2HbEf1PGH+fiPWdxPEbeLYrHruHiF/dvefPXnk3nYLxanDdOIxuY/cQjg9h16t7HNPPs1eivf2gtcV7r15E3Xn072MYNpoWMgH78Ff2P/wB/avfk/w8Rk4n39D66u/sxJRrepmmEbMuU7C1DvtvIgouYf897L0cWItsbYP+BPZPIbktLB7C7Mxk1TCm/4fIsrA42T8cLTJe0beuiaJ16O3zZSHT/vUzIcutdTg+m99Q57U+fSa5/MzqEnQJ+4TGsizGp68zcf8BsA5b773Xm9feVrCPSeUB4tYvbn/euXxx+bUOV9UsJ9mIx5gMVV2rSJsMKAU2Dw7YPDhgraCwVKgMPZ8mUPLVhcuiorCUWaE7MSiyQ8dd8eLyiNg9i06dpamDO2dIHQTj8CisViqsuiYnxQtWD2Zw3bqOy5pEIpFIJBLJHfJ4lT0R6Oc9yukGdiONde6lFD/XIS+UDWn9nPPyQHug1Xr0RvylGpQN0C2vvqVh56dTlniN0uv1hvoZat3IYwfSoFtaauRQbZcb6N74a6kmRkBpZBh2v6zX63GupzByA2WRP6dGOY/R0IQcLI3UFCd3Xz6NJrH9o/1xIJveOVoj5ynPNGrnZdKNJmmrx3kZcjnRTi3VxLanG/9N2HoJe88HbhK+a0tyPeDOsg47X8PRnnhsXg5cOvw2jl5C661Q4Oiv4ehrSHrKnOM3cLI+qH/0NRByqzl+Kw5oR3veQTJ4kL9h/wNsGg2NsK6HD/9Li39gHP4Hz/b/g2eH33D8YVDc+vl37PMn9HG+R+kUqYbNT9fV9qzBDiEFGEIJQYR729Y6tN5fs68Z+n+oJJ9AKzDW1luh8ItS8PkYu/EuPyensLMOrEPyNOQ29kBYVGBpJf6wPKk8kvfAGKXItPtvZ1u8Zo8PxXtHmEnlE9fvDvbnVPJzHTpKgbVKhWSh1FfSbB6USJAhFeOO1bWKvKPEWmFlDiN16DgZEhlAybBUr9IZe3udq42MGJdTp6MoLGYKfOEU+0qqs6or0qn7z8ekhO86Dm0zK+IOhYNIuw6dmKrX2p8SiUQikUgkd8xHmI0rjabrpNOD53/Umhg2owfjmPplK1A/raFrxgz1J7Su66TUHGrZe57WqFn60D1abRCrRtNSGH5alIaBbduUFxZCrWrYQHB46bIViBekzRR/RdNj+gdo/ISRV/vWTuk0pIYmqAlrnCagaWhpaPidzzD+65LchuQraG17cTgOYevrwA2XsP8DHHsHreRydMyVvsLIf+79PXkfisezDPrecN2tlyIGC3i/4gcVGTfsv0+jSZOQ7IHWb/+g1fob/N+/c/TVl8A/2P/5r7Q+FzF7Wh/+Qav1Dc8CGoDdz//O3ldfBlrRSKdzNJowc+Aej61t2P0BNr+efO9tcN/93wR/7Y1X8ffoe5A8hBE16SkcPxHKBIBNz2rlrmJITUuidBCfnWmK8ltlXbyH7CPi8IxYXU0on2b9bnt/TiO/TrVOolABYFWp0nQypDLQMU2Iqe/HulnLKyJ71g0RadsL3vuYwmoBziyXREwMoa7r0q1W6eRLLLouiY0MSwqQr7CZ99uMCbwcMZemI2S1iclJ1hy9KSY49b3uT4lEIpFIJJIp+QiVPQ8djdq5FxO70aDxk4GaN4QF0iTSKVLpMufT3Hsr2ORUm3TtnJqnDWoY6uiBM447Gv/OunfARRx89wK/9huvIPkSjrzDb+tQHNpmocUMQXlDzKP/iXz+p4Dy5ktWP/wXJx/+k+TnsLX5C1ubXtGHv7L785chRc+c8N2TAm5EyTXgByDkqnJ8Gm0hMe/+I7mcbPnSOoT9J/EKk0nlk2i9F0q/MHqM+5ZPchtCekaOT6HluS8OtRU3tjnM/8HwBDhkZH/5zLL/Jsl+UvnEe6bdn7eFa9GmwJqvU8mUSJhFmnW4WqmwFqUocUw6GwfRZdfCoV1VSB0EGswUSBSLNJXolOdL+QqbeYdmNkuHDKmDGbsMZCNLlA5YWynSBsiU2Ay1JSyYMrMFm5ZIJBKJRCJ5QHxUblyCBrZh0GgMnv9kp4ascppNUdiwDdRc2EGrQTk/qN+wDfKh+jfBUFVyIbOYdCpsnxGHhpayUY2pncrmS6NJM53ijylP0WMbGDMFNLqb8Se3gUPPqid4sLuE1rKwdgBxKN4/jWohns0nw3F2WpdCgWNM084c+u+TTpFCGFAFSX71PS/4C0brH+LCh79x8uEPbMbE54nGptFIk552W8aQ3AaCbkTLsPMEdt8Mrh0fgvHeczuaMyP9I5QqPwbX7wxaT+bf99Rcij2wE6OgAJElapxLV5CT97C3F3Az3IMX7wf1H9z854m/v4KWNsHX5x3vP5+49Yvan3eDS9u8YLU0rE1ZXIGOI+LnRJIpTbSWAcCxaE+0+nFpF6ssVUKuUyislgpceVY3MQNhtaCQKG3QmeCmFRoYTROeeu5qU83lOvhx+0a+W0gkEolEIpHcLR+hZU9auB7lF4SrUVqjZtX6LkLpP+qk8ioLZa+srJErq6icozdUyo005Rrk1QURS2eovk1uIRi/x2sHjVqvhjaxHCAFdp6FnK/w0ahZosRPvQ4L5Go9avhp3m1URBp3rWZBLs/CQs6rnyad0rFqGumh/m2vb6ZO5T65fx1LU1HVBW/oZXQtTS6nYpzrNNQyDWAhl6KnAXYO1TjHwktrX+tRGzv++bGzDruXcBQK1qqvi/TX4KVlXgfjDSS9IKjB1NXPvJgowVTqWy+h/SZgObEML7ZFO0OplF8KyyI/lfUuwrXjpv0PEK5W9oh74ZfsbH6PcfI7np0An/8effP7EUuk45P/wPBOmSNuXI0mTd8dbwb6Ka1P4dhzZdG3xYHaZ+sl8EYEnvZlEJve/FTIQt+LD4I7a//JbdAD65dcDwQ3DvX9Y6DtrZdTlE/iUigaYHj/6F+L+QX3z7NQPB7fFq6fen1XuHD1U3IH0rof7w6u9/fTLrRfC6XStecfcc8s63MXbL0U7m27u54SJfD69Msj919Afs98+TG4xi68ATpjyjvP4c2Y9Ztmf96+fF3aRRNKlYCSRaQSvypU2DxQRLwbU1i+XEshkslAMcuZG2N541qcFesk4tKbK3nWShecmFlOyJAKx9JxTBEzKKPAwQFdd4yyxzFFPJ5SBsiQqlxjPjNi2zaQpqzP6RciiUQikUgkkmuy0Ov1evNo6Lfffuv//9lnn82jyWthqCpYs2VxkkgeJXaOBVuLCDJ+02YXsLXpFIQSieSx4NDMVlmqVFisBi1nIhQqngLID5Y8jeKnH7g5Jt5O34UqJg5O7P0oJH3F0JDyZtDvWXWg8FkqVFi9KIr5ZUpsbri0lXykYqkz1oJItBU7n0gaGKqKrZ0HYuZJJBKJRCKR3A8flbLHUBco+15F6fJ0cXAkkkfM3JWbDQM1D9a5PldLK4lE8nHTdV2WbjUduUvbclnN35b/1RxoGKhqA71Xm0vCAYlEIpFIJJKb8FEpeyQSiUQikUgkEolEIpFIPnU+wgDNkkgaBurCgggcGfkIxhqSSCQSiUQikUgkEolE8liRlj0SiUQikUgeDB0zS5PSUGwe8OLz1Demi/kzhzF0NsbEKnJMTqorU41FxBVSImIjxTEcMymKawfQlkgkEolE8snwEWbjkkgkEolE8ihxLdoOkAkGX1ZIljboVF3ggivX4l2xShdEEOZSBnDomHWajkOiVGGpWqTlwlKhwGK1GqM4CQR/9vo+K16welACMiQ8ZUrXcfi1btIKBnPOlNgsQceFpSlCFS0VClMqevyhxQWyFmnrF6WiRyKRSCQSyQSkskcikUgkEskDwKFpwtODA5YckzO3xOYBdF34teqI6zg0i673f5AMbMBmqUTHLHJVOmBT8dqs+4oTl7bp8EUp8H9YUZPZIAHDyiG3SnfjgM3S6IhnUuCE6DoOZDK3bqUkkUgkEonk00QqeyQSiUQikdw7HbNOolISyo/MBoumC2S4qmbprFRYBSDD6obJrxEWNYlMjLmLW+UsW+0/bfn/KwW+mOv4x6VyL3JSjbg8bSp6iUQikUgkkhl5nDF7Gja5vI1m1dDmnR/azrGQE6GK0+VzzueW0zrczQJG+vbaf+g86vnf5v67RVqHsPsWtl6Cvn43fcalhm+1/orx819ofQA+/xN72/9JcuiOv2Hsf8Nx8nuONn8/uHyD1PDHb8A4heRz2NseyAOAdTh6OXwfQHId9JeQJHR/iBevYWf5Zv3rBPp9Lp73y5fhaBuevQk0uAx7rxnI7XRC+SQuYfcVtILXlkH/GraWx8x/GY5ei3/3X8GPlxH3ePI1duE4oh6E5H6N+d90fQZ48VKUApuV/DXKxxPeXzvLcPJk8JqM23++bIfm4q/5MrxgfPne+vj1m7Q/95bvQr4u7aJwv5qezEgsnI5Z5Krgu2cJS6DVOMueUkDR4lqc+e5hgfaTBZdWNXpQk2Ln+K5oSwUxxulSx0+I2TNWQXSz/SmRSCQSieTj4XFa9qQ1ahbk8irNiIPkjdBq9HrQMFSu+zXJUHOkzmtoY7vpjS3/2HnU87/N/XeLJLdhD9i/qw7tHOWUTi+s6Pn5G/b5A/rmLyQ/j6r4D/YP/0Jy808k26GitI6eWsCwdWozbqCtl8Ab2D+F423Y2oajNdj9AfYCip59YG9PHLCPD4UCZM9TSvgH4eM3cLIuDuj7r+bXP2+gvT04OB9tg/EKdK//oz3Rd/CePusTyiexLMbx7HSg+OJSjI/XYrx7gIGQwVC5x85r4BWsvoYtAvccin/1PdC9OjtPYP9yME5fPteePzdbnwEZlhTGBMedVB6PP/agfPd/ALYH5XH7b+drOH4lru34+/UUkstC7luX48uTjF+/SfuzdXj78u2YRTobFTbz44LguHRdhSUlqMQR14cURU6WFl7MnpmGFx0YuluqkAASGW9sjslJfWNCkGSHdlUhWYAOCquKQ9tlECMoNK+womupUOEpphe3KHhrwFJpRPFz/f0pkUgkEonk4+Lxpl5Pa9TORw/adk6kEleNBraRE+nG1UBa8YZNTh2kHFdzBo1Z+rWNQH2VnBFIWO6lNy83bHKBtOa5YE5zOzfo24jquYGRUwf3qEZ/7A1D9cacG6RRV6dPme7Lpt93YCwLqjGVfCbKNzz+nIrqt33P85+ufnz/Q8Tsv3Ecv4Fnu+Kxe4j41d17/sw/MJ2Kw61/3TiMbmP30DsIenWPY/p59kq0tx+0tnjv1YuoO4/+fQzDRtNCGpkPf2X/wx/Qv/p9jKIHjk++ofXV39mJKdf0Mk1jxtdtgK112H8TUXAJ++/Fwda3FtnaBv2JOAAntwOH5AA7M1k1jOn/IbLsHegPR4uMV/Sta6JoHXr7fDmgzAJaZ0KWW+v8/+y9PWzjaJao/fjii8pBTzBKymBZG0zQooDZwA6uHNgV3BvcDVwCmpKyKoddg9Juoi/pAiQCHbWSXQFVE7qMLxHFBlwOdnCxie3ACtoOdgBRDewELZvtCtoNbDUwqpRfQFKiJFKkLNllV50HECzy/Tvvj2jy8LzncHS2OFEXNT8DlBivu3Hp41y6ipwRWTxFTHWd2PUHwDpsvfN+b159W4HqYtMDRM1f1Pq8+fG1eVDaZ62o4Fqn5DkO/ZQ5a7oenDMjSg6F1cY+m/v7ZHIKae/7WlHxlCNu2V478D2xBZHCsqKA3R5Y/VydtEltTLfSuarXoVIZbhXL5aBpjFkOTcrvf76kzo9URs5NfKIsfGZdn4IgCIIgfHLcX2VPBFrLwWlpWLUiuqVhdBwcQyPjPRnqukm14+A47qdTzaAX9OmVjjTwFVXDL99BswpDZY5apeM41FSNljNsY8QCQWu57dbCtQR6tgjVzlA+I4OZdR9s1WqHTk3F6jLoQyvTRQ9VmoSPTaemDrenaS2cloaqtXA61UTjEze+ll7E9MbBcRwMLTP6UP4R+5+k/LT252XrOew+Gb4d97e2pNcD21nW3Tf4h7vuZ/NyuKXDr+PwOfTeugqc6rdw+DWkPWWO/8bdL3/4NTC2reborfuAdrjrPUgGH+TnbH+IiWVpjOt6eP9f9Pgb+sE/8HjvH3h88CeO3g+Te3/93+zxL1Sn7T1SM2Qsk++vOylr8JQxBRiuEoKQ7W1b69B7d822Zmj/rpJ+CL2ArL23rsIvTMHno+9Eb/k5PoWn68A6pE/Hto3dER4osPwo+mE5Lj2Ud8AUpUjS9fd02/3NHh24145x4tJj5+8W1mf4+CmjPniUEmshyo21khKrZJlgUFeDdG74fa0Soihp10eUS902fLhwtUIpBX61AdpctYfRusLoG2XOHzXGLH8UVkvwYz3SsU9QEM6bCqtTrZzCudb6FARBEAThk+N+buNKgFozAv5gNNe/h6Vjmia1paWx3BomJNtWZH2PXsxieg+aqgqZBcmMpWNmqnSCehBVQ8tk+d6qonrnterQV4ymZdC7yZtQqwaZrI5VbaECut5FM7Rh+wnHJ3R8AbVaJZMtkK15x6pGy6gmE+4W+j+1fML25yG9DemX0Nv2/HAcwNbXgQzeto4j70ErvRLuc2WgMPKPvb/H78b88ay4W2eCbD13fbCA9xY/qMiYs/0BVpcuk7+N3m9/o9f7C/zjf3D4xz8Af2Pvr/9G73euz57e+7/R6/2JxwENwM7v/oPdP/4hUIuGqhawujCz4x6PrW13e8rm1/F5b4KP3f48+HOvT9m+U92F9IG7ZWiEUzh66CoTADY9q5Xb8iGVlFRlf2qUpbj0G2XdvYbs4frhmbC6iklPMn83vT4Tjd+YU+UgyyU3HHsycmQaYeeV8JDpgVDu3bLNas7m16bCAwVQFPr1Nv1HTT6UKtF9aNc5uyixWQlpQCny5aMyx/mTCV9DQfpGk6ucAvk8of/ipvjt+ajrUxAEQRCEO8Mnq+wJRc2QUWt0OgmVDxOYFLImaqtDy9MWWHp28oHmTqNS1broJrQojCo35h4fAI1Wx/P5bVlY3+tki/rAckhwrRr2Tl0HtEcPXcenPvpLSD+HQ+/ht3cwu4+dHjM45R1jEe3H8rt/CShv/sDq+3/n+P0/k/4dbG3+xNaml/T+39j56x/GFD0Lwt+eFNhGlF4DAv5TfI5Owy0kFt1+KJfxli+9A9h7GK0wiUuPo/fOVfqNU43YvuXj+4gKcnQKPW/74khdUbItoP93hofAARPry2eW9Rc39nHpsXmSrs+bZIoyo2/H7b+y6ZXzkWunF1AijThYti/g0bi5jk1f2RhGAntU5uxkg7VGuLKpb5Q5u1BItesc54MpwWhcCqmcTTefBxTSjcaEH5/lYoNNwnEdUEsEL0EQBEEQpvN5KXtwrTSyeoZO9Rruga0uXTVDNeMpekwd3bTcp/YRunQtQAVLL1CsgeG04o0Q1CpaN4tuaUNfMJaJ2dUW6gRYrVYhq6MTsOoB5h4f3OhLVtVwlWGqCl1QMwltn26p/x+7/fQ24L15H7fq6a24jmvBfSjeOyXy4TCMzYeunx3f6qYXcAAb+zC8gPYHqBkyWIwb36T/+Ipnvf+N3vs/VNN/gPd/4fj9P0X65wnHxLJU1DlN6vx5GDwQen3feT2MgHR0APo710Ji0Uy0j6tU0QMOdntn0Hu4+LYTc+mugadTFAN74w6Zp3D8buh8OFj+CLf8nev/IvHX18Gog2Q98Pucuv5uaFtV1PyFrc9bZYplD4RFwWpzXm7Ss23XOmc/bI9VSASuAH3b5sG4r5v2CWxUhm00FVK5Juft4kT73XydD6XGhEVP3yjzIxXPH9G8tLlqK6Qq8TlD8SOOetu4BUEQBEH4hHEWxPv37wefj0fL0cBh7KO1gnk6TktTh+mq6qhay+lMKQ+a41fRqQ3LqlrNadVUB1Sn1gm00NIcdVC/5rQ60+UL1u84HacWkE9Va6Ftay3HcVraMF9QgAR0aqrD6MBce3yC1dRUzdFGyt+d/icrH93+IvnpreNsvYo4/8z9PHvlOIfe8Zuf3fTas2G6/6n9MFrHm1eB9G8c580Pk3XXfnAc54dAW28X175PTR3/7Xn89787tbdpZ+tN2tl6+9w5/O/JLIdHXvqbtPPsP/9rNLFTc1S15sy24h3n8NVkf50f3DGKzPfKcX4KJv4w2f/D22o/pO2o+Uw6RyP87DjPxst+4ziH3twH10bUGLz5ZvS8v27G6w5bT/65a/d/zvm5LX56GxiLwO/TJ7T/YeM3dk6LSW/FzF+i9Xlr43viWC+azt9D0y6c3ovvnF9CUn5pRpUJlP0umOfC+ftFoPx3wXpdGXr+uYumc/rET79wei+eOEdBGS8uItv+e/OFc9q8iEiNZ6RfF03n9LuTa9fV0pi4ZxEEQRAE4dNkyXEcZxFKo99++23w/YsvvlhElYIg3GfMAkumtvC3x2ZhCVNzZg69LgjCfcG1kokOH56b6u8mWR1DUpV9MopBt50jE7C+6RtlzpUS1OtchWwru6rn6bbDt2EFmduyxzY4Kze9KF7x7UVjoWezmFon4HNPEARBEIRPFVH2CIJwY+jZLBizhaifiqWTLYLRqV7XN7MgCMKt0rdtN3T7x8bSyWYtqk4rWUAKQRAEQRDuNaLsEQRBEARBEARBEARB+IT4Hx9bAGFBWDrZpSWWIj8FzI8t403yufdfEARBEARBEARBEDxE2fOpoFbpOA5O5OcTN9v+3PsvCPeIq3qe43r7+hW06xyH+WOxDc7yZc5jInP3jXKgfZt+SP5+u+35SInnqp7nuGwkzi8IgiAIgiAIN81nFnpdEARB+PgopEt+3OppjnTDnNHanDdt0o2G66DXNjirw5eNIrRPeFAZ5r+q5zl/1BhzjGvz64lCppEbtPGhmecsRPc0Gd47hHadrl0ivRGTTxAEQRAEQRBuEVH2CIIgCB+RHJn9/eTZ202uNkqk6nmObUApsVZR+GC3ubookbrIc1x3s6Yq+3xJmz7KMIqSV35tpNJxpZLNebnJgzhFD226dZt0o8IqBmdlgy/HIjYJgiAIgiAIwsdAtnEJgiAIN0+7znE+z3E+T7dt0yu732fbztWme7LBWjHHaqNCCoV0pQgoPGjbpCo5UpV9NhsllsmRysFyLhdQvticnzziy6Lifi/n6V57N5mrEFr2lURKkbUK/CjbuQRBEARBEIQ7wP2MxmWZFIommtFCG4+/bBZYKriueNVah84MMZ/NwhIFU6XWmSNU9Bztf1J8zBCv09ZH4jruYIjaS9h5Cb3guRWofg1bK9A7gJ23IeVW4PBb9+veS3hzGZJnHQ6fg74DRyHlAI5eg37qfk8/gSqB9lbgcBsevx5td/dbSHuHkfIBz76FpytRHR9tP/0EdrfH6lt35ZlHPk5j0hMyMk7rbr+OH0J1PTy9+txtw5+bkbHwZVqBZ0xP312fPv9x47e7sInX6wAAIABJREFUMt/8DPG2ZSklNhvFkHSb83IdKg1WFZvzcpnewGdOjsz+Blcj27p8qxvP2qZRcbdvAVf1OpQecV5uQim4Xcvm3LBZLY6a5vSNOr/mKjxo1mEDzu0Sa0WFq3qY0idHZn/Y1mgXDM7KJ6Qmtpj5aU36uQqblRDTID89aVsLJ25+BEEQBEEQhE8CZ0G8f/9+8LkVOi1HU1Wn1olIrqmOGpU4hdqUOmfhuu0LCyJmfdxbfnCcrVeB458d59k3jnPoHf701nGevZ1MD/ImkH+QJ6zOV47z5ufRsmHnat/E5xmX7fCV49R+GMoTlj+Mw1ej/R3v3zzyJU2Pk2+k7M9u//y+Hr5yx/onP/9bx9n6xjv+2XGePRudi5H+xqU78fM/bfwWMT8+vRdPnKMXzfDEi6Zz+sRN//tE4oljPfnO+SW03Inzy0VY/hdO78Jx/t584Rx9dzJFqgtXridPHOvkxLEC7f/ynVvHaN4wObw6Xrxw+xD1edF0fmm+GBxbEWL9vfkiMu0mmTo/giAIgiAIwifB/d3GpWq0rmOBY+oUsn447iwFPSQgdzeQJ1vAtAJplhkov0S2oGNN1jAH5mjbesFtR3dbMQtLg2NTL7jhxrPBsOIWeiE7lC+rD9Is3T3vGR6N1AWgZ90x0f16vbr1GTqoZ0dDnmcnCo/JV8iSzerR6SHyZwuj8oWGVL/m+rgz8idlxbUY2TsI6ctLBtYpYfQOYOfAy/M8cP4M0tuwtQ5HZ/MIN0p627UoGefpTFYjrlx7r+Pz3TqXsMdYX1bc/lXXvfR37lj71kJb21B9CHuepQ/rsPXOs67y6tsKthGXHiBq/qPGb1HzM0AZN3lx6bdP6KOQLsGPUY6ZbXtyK5SSIzXiZ9ngLH9Cat+1rlkuNtjcOOE4n+fMCAvHpbDa2Gdzf5/UyQmpWX3r2AZn+TpU9tlsNFjbd+sK/TSKpIqNwXGsk+dhI5zXy4Ptbmf1MmdlIzq9bAzGr2+UvTJ1zrz043KU42si50cQBEEQBEH4NLi/yp7ron1F1fDDcXfQrMJA+eFiUdMZ5jE0zOLwgVzXTaqdYUjvTjWDXtBDGroeelZHrXa8tqt0TXNkO5jWcnBaGlatiG5pGB1Xxozlly+CX95x6BgZzKyrkFKrHTq1ofbDr8un2nGoqRampbr1Og5OpwrF5AqJ4NgE6/ax9CJmIEy6oWVGlGVJ5Le6w3ZamS76LNqoT1D+9EPoBbZm9d7C4+B2rBD0negtO8en8HQdWIf06di2sbvAGjwF9sK2o31M3gFTlCK9M2B98vzWOvTeDY+fbrvKu6MDd5vXOHHpsfN/C+P3QIHlR2HKBJtfLzZI5wClyKqnBHEVFQHFhGJzHuXLx/f9U27Sp03XV2wM/P/kSDH0D+T6CBoW7xtlrjausWVKKbK2H7Jta4H0jTpXj0oDRdKXG8qI0uu8XIfSUIm0VlG48nwELRcbrJUU+jYDpVZGcbezjRM9P4IgCIIgCMKnwucXjcv6Hr2YHVjrqCpkRjKo1Iwqqq8TUTWqmo5ugpbRMU2T2tLSWKUaJszv28XSMdHo+I5mVJVqVcPsTmZVa0bAH5CG6pfPVOkErVlUDS2T5Xsr0KepqGjVYF6Vr7Su2/8FOK9Rq1Uy2QLZmnesarSMqnuQUH6tOvTFo2kZ9JDxuSnug/y+Txb9ZXSe6i6kD2BCTXkKRw9dZQDApmd1Ug1RKnxMtrZh58+w+fXHluQGWIf0S9dqZzfMaismPcn83/T4pSr74cqUdhtKRR40T/gApCoVoE23qXg+a9qewidHZqPOcZ2h35ugL5z9SqBOg3OlGFDCtLlq59gMCfA19M2T5xjcSF6NIuA6jB5VbObG/jeMdGRKuHgIDxnfpps/ITXFN89yscSDcp2zpnes5MhUPL86tsGVUmItWKeSI6WU+dUusuydT5UqAwuo1IbCeYiRU+T8CIIgCIIgCJ8Mn5myx6SQNVFbHVre07alZycfeKNQM2TUGp1O9cYk/PTRaHU8n+CWhfW9TraouxZE94K7J3/vHaRDLEqqEdu3fNLbsDt27ugUeqeuZchIXVHKnst4y5/eAew9XLDCyN++FrfNbAHyJZb/IXAAhGyFAkivAX+eTD86nbTQiZu7uPTYPEnHb6G06Z4oZCqMKEn6RhMqjUnlQ65C5iTPmeE5XlaKrO0Xh3X5ipNcDsplziuucqVvNOk2myHKFkiVGqxVlIntWx8iQq9PJ8qpcptu2eb3CQxnPlzYMJIvR6bhaalsm367yVndEEfKgiAIgiAIwsx8Xtu4rC5dNcNXGU/RY+ro5qRPllpRx/JOW6ZO0cx4Vi0aWsYkG+bnZxGoVTTMoY8cy0KfpS21itbVR33sWCZmV+OrgLVJt2t5STrZwnj9FqY+7D9YfD/o//zo2SyFMbMqNZOZSf6PyZ2T/9K1vHkaoWAAN8rTtC1dQY7fwe4uHAY+z94Ny6dX4E3AkqR3Br2H1xV+PtLbwNg2s48q3wo8fej5QfK5dC1s9NNA+uuhzEcHoL/zts3dEFHzHzZ+N4qtsDoenco2+PGiFOnTJrWRo3/SDgllniNTgW7ZoI/C7zeg12wDNr+eKGSitlspvqJnuP3r+qHXZ0VhWbE5N7wGbYPztjKwyAE4L5fptu2BrCiw7PvWUYqk7OaopY7d5sreSKRYSozp+olbmvjfIAiCIAiCINwnPjHLHpPCUtC/TJalGoBGy2mhqVUMLUs2627DUrUaVU2lUMiidzpk9CVqlkqtBcXskuuLRdVoGcPw21rLgEKRpaWCe0JVUTNVjJaGGtd+gh5UO1XXQbPltT2iZQnWb3p1u753fPcy1Y7hOgj2FBKqWqPaqTLYlfZVlUzRk0vVaNU0CrUsWXy/QKq7tai45G51G+v//GTALLJU8BUmGi0j6DcoWn5Lz5KtWcAShZZDCz/MvRmQ/6b5iPJfuooCCFje+KHXGQ2l/XjMH49vdzQIvb7jbuEahNQOhHU/2hmeH4Ri34Hzb12lUvX1sP30esC5czB0+Sm8CbS/FZHnCHdLWZST4SCDkOWncORtVapuuwoTn/Q88iWRP4at5+72uJ0dT4myAs+2h8qcrefAazd9IN+3kA6M/2N//BmeYwde41rERKVfPYHXU+Y/yfjNMz+xKOMWNTbnTfgyLDy5T67CZlRyboNU09V8LCsKKSUHbQMqAWsb26bvtzsS8jxHZn9/sE3r6iRKAJurNqRyYdoUV2EUilJidfIkq40K1Osc5+uAQqpSGVNKKXBS57juK3xyZALjs9qouA6a236/S6x6jqb7Rpmzpg3k6Vb2yVD3fBi1OSMYln46pmkCKrXq4q76giAIgiAIwu2z5DiOs4iKfvvtt8H3L774YhFVCoCpZ9ExbkmR4VquYFwjylkIlp6leIuyL5r7Lr8g3FWu6mU+lALWN0FFjOdHJyxS1tDnzgwE6uvb9tBSBpvzcpmeDalKg+Wm+90rRLpRol9uQg7YaIxZH03zv+Nu41qdNdrXncBCz2YxtdtSnguCIAiCIAg3hSh77iB6donawHCkhtEaWubcVruotWv4oRm1bLpN2RfDfZdfEARhDiydbNaimtASVRAEQRAEQbi7iLJHEARBEARBEARBEAThE+LzctD8MbF0sktLruPL0E/Q188d5L7LLwiCIAiCIAiCIAifCaLsuS3UKh3HwYn83HGz+fsuvyAIgiAIgiAI1+aqnvec/1+Tthuk4Gr8vG1wli+PRpwMoW+UA+3b9EPy99thUTzDuarnOS4bifPfPG7whxH/hAnHRhDC+MSicQmCIAiCIAiCIAiLRyFd8iMWtOmGKW78fI3GWMRJm/OmTbrRcIMb2AZndfiyUYT2CQ8qw/xX9Tznj8YjSdr8eqKQaeQGbXxo5jkL0T2lKvtjgRVCaNfp2iXSGzH5bpP2CVdhkUiVDX4/GIo23Toj0ToFIQpR9giCIAiCIAiCIAgzkCOzv588e7vJ1UaJVD3PsY0bLbOi8MFuc3VRInWR57juZk1V9vmSNn2UYWRLr/zaSKXjSiWb83KTB7F6kDbduk26UWEVg7OywZd3IIrm1YlNuqRwXs4HIoQCisKPeS9qKTkyFei2c/EKLeGzR5Q9giAIgiAIgiAIwiTt+ujWrXaeHkCuwmZi65I23ZMN1io5KFbo55ssV4qAzYN2m1SlSIp9Nm2Ds/IFqRwsE6zb5vzkEV9WFPd7uUy/tO9aCM2MqxBaHiiJiqxV7oDCxzY4p8SaokBjn9XA+bOmwlpjdKyv13fhc+N+Knssk0LRRDNaaONxsc0CSwXXVbBa69CpJg+cbRaWKJgqtU6HGYotrP3PDy/UeTDMu6WTzdawBnk0WuP+gKbN/x2mdwA7b2HrOVTXb6dNPZsFY3I993r/hv7Xf6X3Hvjdv7C7/c+kR3L8BX3vTxylX3G4+X+Gpy2dbBGMzvVD0h+9Bv3U/Z5eh6crcPwQqg9h5yX08MYIePzazeePmb4DR35FK3D4baDi02F+n/Q6VJ8z6NvU8jHyPX3nzl8Yz76FzbOIdL+dBPIlYe81vAnIxzvY/Xa4vqLaj0z35H+6MoMQc2IWshRM/1euorU6tDQAC7NQHKSpWotOK5k3sNmu3961R2vhJKzfJ3L9roenD+Z3fP5X3HkbzH1cOtPXb9z8xq7PW+Q+z7+lFyiaJpalotaMif/xwb6pWgujpY1cK+PKx6UvArOwhK7e3P3Jder3fzfpJ7C7Pbae1+Hw+Wg+GP19zXt9i2u/SqDdJ+7xIH0FDrfn/31P5XL4/zFYR/Vr2FqJv/4D7L2EN5chebzxnXZ9GRn3a/R/cf9/vG1DSonNRvEa6dO57vXdH9uRvvhzvgLPmJ6+uz59/uLW5+7KDY9vrsLmPrhKkjpUGqwqrsLlOD/IRGZ/g6uRbV2+1Y3NefmEVKMyyJvKnQAGP5abUGoMrXWUHKmSMqHI6BtNKFX4UK/zYQOuNhqs5VxLmF45P/rbIEcmqou2wVn5hNT4FjPFU/jk8/RHlFhuP3v2mAWRrwBTSmxW4KzcHPX7o+TIVCqk/Py2MZYnR2a/MtLPq2aTflvh3M6xqrhb2bptXAuo0gnH+frYuI53br71L3yiOAvi/fv3g8+t0Gk5mqo6tU5Eck111KjEKdSm1DkL123/86PlaGpteNipOarWii8WM/93lZ/eOk7th1tqrKU5hIzlT//53Kn95787P/13VMH/ct68/V/Om5/+1Xl29O8h1eIkmaIwDl85zpufAyd+dpw33wzHZGJ8fnCcrVdjlfzsOM++CanLK//s7Wh7weO48tPkC9Z9+Goo55tvhmXG2/fbmkm+Kfz01nFqgfw//TC9/mD7SeRfBDVVc6Yuj07NUVXNCfvpdmqqowV+1J2aOtNaS3b97rj5WgmvNQHi1u/hK8d59spxfvLzv3WcrW+Gx6F1xLUxTsT6XcT6XASf8vw7LW30/3pLG5WvpTmoNafjZ+m0nFZrtvJT0z9xDl95a9s/MbY+p/2+FnF9S9L+eF21sd/P3L/vaYz/P/x5VN4kv+83wf75ecLqTPL/0Une/0X+/+m9eOIcvWheOz2Kua7vPzvOs2ejYzmynuLSnfj5m7Y+b218L5rO6RM3/e8TiSeO9eQ755fQcifOLxdh+V84vQvH+XvzhXP03ckUqS5cuZ48cayTE8cKtP/Ld24do3nD5PDqePHC7UPU50XT+aX5YnBsnQz7fRqQ8ZfvXjinwXZOvhvtw0VzNP2iOVJ+Urymc/rddzF988YtdPxdrrv+hU+X+xuNS9VoXccCx9QpZP1w4VkKekjA8G4gT7aAaQXSLDNQfolsQcearGEOzNG29YLbju62YhaWBsemXnDDoWeDYc8t9EJ2KF9WH6RZunveMzwaqQtAz7pjovv1enXriTpoUvDyu/IXMM0Q+UbGLzuQZWauMf9Hr+HxjvvZOcB9q+IdP37pZToF/eXwvH4QXsfOARwdwI5X9iiinccv3fr2gm/T3nnlQsouon0fXTfRtLG31u//jb33/0T1j/+H9O8ixun4T/T++B88jUjXqjW6+jXW/SXsMfaGaQWefjubpVPvDNLbsLUOR2fT825tu+0mKh8jX3rbfaM2ztOIt2b6SwZvN2eRL44ew7e76fXo+sfbn1X+ceKuH1g62aUlapZ3LfA+wd+4WVhiKVvDsszANUYfbSgz+qPudi0SX19g+vUbMAtFrGqHauRrvwji1u8l7L2D3YCl1ta2a7G2dzpjW1OIWr83sT6DfPbzD5hmF+2rgHwZla4Z+O/b7aJVq6h+FhVMXU9cPi49XsCY+xuzMLw3SPaPfQwLM3B/sZTVKWSzw3uEuet31/Xe65CEmN/XvNe32PbvIivutWfvYDIp7vfdO/Dug1bcMR2cn+H/6ywsan4GKBMmDbOlj7OI6/s6bL3z7se8+raCbcSlB4iav6j1eVvj22+f0EchXYIfoxwz2/ZkZCslN7RwAS+61Ampfdc6ZbnYYHPjhON8njMjLOSUwmpjn839fVInJ6Rm3WplG5zl61DZZ7PRYG3frSv00yiSKjYGxwOfOLkSKfvE7bO33WrqNiqlyJcbNueh/ZkQkPMmfFkZ9xTtWi0d54OfKIfYwbZnXP/CJ839VfZcF+0rqoYfLryDZhXGFA4WNZ1hHkPDLA5vJnXdpNoZhhzvVDPoBT2koeuhZ3XUasdru0rXNEe2g2ktB6elYdWK6JaG0XFlzFh++SL45R2HjpHBzLoP5mq1Q6c2vJH06/KpdhxqqoVpqW69juNuryqO3UyHotHq1FCtLqrh0KlBoeDW2cp0ce9X/e1X/vgZaKY+WXfghjHsZv26bD2H3SdDM1jfdDm9HjBXXoenX8PhrvvZvBya7Pp1HD6H3ltXgVP9Fg6/hrT3wH70Go7Xh+UPv2biYf7orfsP+HDXu1EI3qjN2f4QE8vSGNf18P6/6PE39IN/4PHeP/D44E8cvR8m9/76v9njX6hOsy1XM2Qsk+9nnZd3QIKbjhFl2WtIj5U5PoWn68A6pE/HzNqDXMLen72tTknKJ5Qvjt5bV/YwBVwS+aaR3oanl665/eMd2HkNvXFlVtL2ZyTu+oFapeM41FSNljO8RgazaC0Hp1NDVWuD9MEWTkCtVkHPks0ukc0W3GtcVSXZ9QXirt+WnkWnyow7d1xi1kfvDAiZy6116L27RnsRJF7/EVx3fXz28x9FtzuUP5PB1HUsy5XF1HVMy5r+/zNQ/lrpQeLub7SWe19Qu972LbNQxNSM4dwZGUa0/nPWD8AaPGXsBQm39/uKav+ukn44+j8gye9b34ne8jPv9eU2eKDA8qPoh9m49FAWdH1/uu3e0x0dhP9vj0uPnb9bWJ/R42fz68UG6RygFFn1lCB9ozyqgFBszqNCs7frrsKi3KTvhRgfKDHqbSBHivqIciMYgrxvlLnaqMzuq0YpsrYftu1ppkpYLcG5YXPVPOHBRryvomVFoX8RUPa0A30r17nyk9ptKIUpsBTSjXGF1PT+X2v9C58099NnzzxY36MXswMFgqoytq9TpWYE38xpVDUd3QQto2OaJrWlpbFKNUxg7vtHS8dEo+M7olFVqlUNM+Reb3Qvv+cTwNIxM1U6wfssVUPLZPneCvRpKurom0lUvtK6bv+TdFDVXGubLqBpaCpYfl2mSVerBvzsqGhVDTW4rVSt0nGGN/9YOlndRFvQ3Xl6G9Ivobft7bM+gK2vAxm8B/Aj7x9peiV8T/1AYeQfe3+P341ZqaxAdXe07NZzd489eG9pgjeqc7Y/wOrSZXxtQ++3v9Hr/QX+8T84/OMfgL+x99d/o/c712dP7/3f6PX+xOPAHd7O7/6D3T/+IVCLhqoWsLpwbcc9UxjxaXQKO8HxOYWjh+7NDsCm91YtOOa9t/D4bUhdCcvPiz83+svw9KnyJWDr+fBtYO8Udv486lshrv07jdWFaoeO93O39ALfW4xej6OuL26G6Ou3Bl3LwjILBC/hWf0e+VZbwPq90+vjvs+/1qLTzZLN1rzma2jqYm1/pxJ7fzMPJmZXoxV0lKdqtJxFas5ctrbd69rm1/F5b4KP3f48JPl9V3chfQATrylv4f/jIkhVpjvljUu/Udbde8w9XD88E1ZXMelJ5u+m12fk+HkKiQfNEz4AqUoFaNNtKp7vmban8MmR2ahzXGfo98b3V5OrsLlfCdRpcK4UA0qYNlftnOcfaJSB/xryHIPrx6bhOnieyWfP1HDxEO0PB8iVeFAuu06Uc3DejKwkpNoia/uBBx7b4KzZJlXJQa44dMY8QljfAKUUkf8jr3/hTvKZKXtMClkTtdUZ3LC4b/oSombIqDU6gTeRwg2jZsjM8mYzAU/XvRsY3Bub3cDbHP0lpJ/DoXdz0ztw/ynPQo/ZHO4GWUT7sfzuXwLKmz+w+v7fOX7/z6R/B1ubP7G16SW9/zd2/vqHMUXPHDwEDoAQU+OkHJ26Co7HO6PngzejAweGp+42uKP1oXJkavkFyDdSZ4T5/DT5ZiW9Dluv3beA43VEtX+XMXXTte7wUDNQ/N6imkxTHYvWcnD8A0snq2eSP+jHrI/0GvDnyfSj0+nWW70D2HsY/UAVTE+y/pNyF9fHnZ5/t9Ckkjsz9rqo2mH4vsKkkA2+CIorH19/NHPe3yTE4kZ0/KP425OC2xSv+ftaVPuhXMZbvszy+74OvXeT1q8Q//tOb8PYe6jZry8L6P+dYYHX97ixT3LtnZon6fpcKG26JwqZCiNKkr7RhEpjUrmQq5A5yXNmNFgrKmOKjjbd/Amp/QqpXA7KZc4rrnKlbzTpNpuhypZUqcFaRZmwfvkQEXp9OpPOkQeylW1+H2kYo5BpJA8137ftaCsbReGBHbfFK0zx5MooCEn5vLZxWV26aoavPJ8AlqmjT+wRsqgVfTNsN0/RzHhWLRpaxiQb5udnEahVNMzh/nfLQp+lLbWK1tVHfexY7tu4oBsA1weC27fshNMcK2CG7h5/P+j/nGgaGVMPbMuyMHVzxApcz2ZHxtfUdczEN7vJSG8DB55VT/Af9yX0Vty3WeDe9Mzqa2Pz4aifnd6lq8DRk9SzgPYHqBkyuC/Ag6T/+Ipn/Ct672/uifd/4fj9P7EZ4Z8nHC9SzKzTsgJPH3p+AnxmGR9cy6nd3cA2uV149i7c5Dm97kXwep2w/ALkC2MvwqdSmHxx6Dtja+ISejHKoqj2r8v06wdAl+7AjUuB7FIhsX+njApWd5jb6nZntEyYdv2ek7j14ae/Hj4AHR2A/s7bFrEAZln/SZl1fXy284/rr4yAfKZukhmrPCA9ZkEfUV7FlU9SfySJ7m/mQUPL1CgGbjAszwfftX3vTSG9DQS3Ed3C72tq+7hKlTfB/+9n0Hu4+LYTc+n+P3g65QXFLL/vuOvLnev/IrkD1/cwIu8fQtbnjWIrrI6HWLcNfrwoDX3ajJHayNE/aU/67yFHpgLdskEfhd9vQK/ZBmx+PVHIRG23UnxFz3D7Vzdit9idwG5zfqKwWnQ7c14uc2YMBb4ymlzF+ta5ps+eKHw3GTdx0RbuLovy9Hzr0bhCaTkaOEx8htFBOjV1cF7Vak6rpjrgRvBoabjfWzVH9cuqmtMaie7RcVrasA5U1VG1lhdZJL79RH1QA23XgtE5wusfjdbRcWoB+VS1Ntp2Z7J+YNCGG6VkLE+iiFcB2bSWG5XEq9cfc6011j6qo7W8coOIXGPya7XQqC3z8tPbkChP/vln7ufZKy/awrNhNIPas2G6/xmPrvXmVSD9G8d588Nk3bUfHDeyht/W28W171NTI6Jm/fe/O7W3aWfrTdrZevvcOQyJynV45KW/STvP/vO/RhM7NUdVrz8vP711o1LMND7/X6BMxHi8+b+j4+7z5hvH2fp/E5T/ebp8jjMqk/8JRtIYTxvJ88MU+RJGRKo9c5za2PpK3H6M/ImIuX64WbTI62dNDbk+jizS8d+/nxZ/ffmf/zPJ9durTRu2P2vUxKnrw3EjoQR/w4NIXCFjH7XeJ9L/b8L1O8/6TILMv9Px+hxaNtC2GtH21PIJ0qfLFn1/s5j7k9H5QVWdWmv6/UnS+kd+N35Eoh8mr42Rvy8//zXX9tztz/P7ThKh8+fRa8Dg+h/4vxX3+37zzej5QZSmn5P/f7x2/+ecn9viWtf3sPEbO6fFpLdi5i/R+ryl8XUjRF04ve/GI0JNicY1QSCi1Ml3bsSrk+Zo5KmLi2H9fhSwJ0+co7E2oqNxXTi/nEyEsvLknB6Na6RfI217bY3LM3Ls1/PdWASyC6f33TDK1+nE+I2NS2jfJvPMwuA5955FMhbmY8lxnIFV8zz89ttvg+9ffPHFIqoUAFPPomPcmk8JPZsF4xpRzoS7h1lgydRGnagupNolTM1ZrJNTQRAEQRAE4U5zVS/zoRSwvvH98cDAj05YpKyhz50ZCNTXt22WB5YwNuflMj0bUpUGy033u1eIdKNEv9yEHLDRGLM+Cmwjm2jQ3SK1Omu0r4XRpls+AdpD581TmeJfaAILPZvF1O6Rn0JhIYiy5w6iZ5eo+Q4WtRpGq3rze+TH2kWtjURJEe4nC1feWTrZIhid21mTgiAIgiAIgiDMgaWTzVpUndb8AYWEe4UoewRBEARBEARBEARBED4hPi8HzR8TSye7tOQ6xgr9FLjT7rLuu/yCIAiCEMZd//920/Ld9f4LgiAIgnAtxLJHEARBEO4YV/U8Vxv7kZFOaNc5bj6K9I8QpG+UOWsqEaFm4+kbZc5ONhK0NebvwLbpK5OhcofZ6xyfbLA5HuXlLtOuc1xvEx26dxqun4l+acq83jaev40HlUXIdAf7JwiCIAifMf/PxxZAEARBEAS8B+8LVvcrQI6U98Dcb7f59aROL+jcMldhswJXNiwncM64XCpdS9EzKL+RS+CwMkemYnCWL5PycJi8AAAgAElEQVRqNFilzY/5ZkjoXT97hc0Nm3ObhA4mfdp083VYiIIiyNDpZyS5Cpv7FaDNlavzGTDqQBRvPk/csRicHs7rXaDfPkms6FlE/+ZVPAqCIAiCkBxR9giCIAjCXSG3QQq4Cp6zm/Q39tmsTGaf54G5325DLqjEcZUoV6G5yxw3x8+FRAJRiqyW4IFi02/jKaX8p3+b83qb31dGLYRWZ5Laj6SyfwPKAoXVxv6EPOFWViFKjXad42ZAU6SUWNuvQKKoKrfHVb3MuW3TH8iV53giV8jcLqB/y8UGm0VPWScKH0EQBEG4UUTZIwiCIAifANND24YpaxgLlZsjs79P3yhzrgzD1faNMj9SYa2oDI4ntnW121zlcqSAVLHoHg8UBaMWM738UJDUTNY5NuflqJC5t8uElQu+IiMks13nuByYmHx++H1EGXZb2Dwo7bM2bYvgycaEtdXi+pcjsw/dssGDjxbiWBAEQRA+fe6nsscyKRRNNKOFdkfjP5uFJXS1Q2dhMa8/I25hfo9ew94K7G7fz/qj2tRPIf3Ebbd3ADtvvcR1OHw+mg8gvQ7V55BmLP8Yz76FpyvztV8l0O4T93iQvgKH2/D4daDCFdj91pUNgNOY9DguYecl9ILnVqD6NWytTOn/Chx+637dewlvLkPyeOOr78BRSDkYG/dr9H/e+RniWW8oJTYbo09ufbvNh/YJ5ydt2GgMHu6Tlk/C+Pp7ugLHD6G6Hp7ur09/7Ef66q+JFXjG9PTd9enzG7d+d1dufvzd5DrH/rNyPg/kSJdcRc6k9cWosiRV2WdzLN3dNmOzXHIVJKvFeMXCcrFBqp7n+CTkQd02+LGpkNkfe0jPwVU+z1Vln0xuuDXrPJBhdOuO599nFj1Hu8nVRom1iORk63c6kQqzdsj4BxUZUf6J2nWO65DZ3yc1ZtnkKtVmGgC65TpXNoBCqlQhc40+XouF9y/H6kaZH43cjPM03/VHEARBED4n7qeyR9VoGVAoZukaHe6iPkVrOWgfW4j7ypzzu/cSVr+FrSl5tp5PT5+XeepPIn9Um7yGvVM42oatbThcg50/w25A0bMH7O66D9BHB64CZNdTSvgPukev4XjdfQDfe7m49nkN59vDB+PDbdBfQtVr/3DXbTuYZ8B6THocK64cj0+Hii8uXfn41pV3F9AJKOn8dI+n3wLj83MJOwfu1+ouVL0yTx/C3uVQTn98rt1/5pufITmWFUK36iwrOZaLOVJKnbPIrRnR5ePw+xYc/70/A9vD9Kj1+fRrOHrpnnvqr+dTSK+487J1OT09zfT5jVu/vYObH383eVLB0jfK9CsN12om5z0Ye9YX061i2pw3FVdZhMKq0k7sHydVKrE8YQlkc153fQqlYEwBkCPTKHFWN+grgFIEjBFZukGLDwClNNMWrqsTm1QpWvhk63c6YQqzWGfZAIrNeb48Oa+5Cpv7eP593K1Tv7+eaJyXm1BqsJlTwLY5r9fpBiywZiFKeTiUe2P0+Ab6t5zbgHqbfnEW657rX38EQRAE4XPj/oZeVzVanVFFgFkYhgrN6haYhWHo0KzuZrJMCtlAvoKOxWQdWd3C1AtuONJsMOyohV7IBspnyfp1uxWMyjDBWPmsPqjb0rNenYVhGNTsrCFPY+RL0H7BnByLWcbHDNS/lNUpZLMMqogZ/wEh8xvLJezsuG/39R147H18KwHAfdPvnfcf0H16B9751249j3fg8cuApcbl8Pze5WiZxy8XV/9U+ROwtQ57r0MSLmHvnfvg6luLbG1D9aH7gJveDrdEejqT1cKU9u8iK94D+8Fkkv6SgXVNGL0Db45XAsosoHfmjuXWOhydLU7URc3PAGVOi4BZy1+6ipwRWT1FTHWd2PUJwDpsvfN+M159I0rRuPQAUfMbtX4/7vgr7pYhuz1wdnx10ia1Mf0p/6peh0pl+PCdy0HTCHeYbBuc5fMc+59yk367znE+z1nTpt8sc5wv07NdpY2bp8xZvsy5r1hRiqw1itCGBxOiuVvENgef2SNZfbhjvm9GGfYvk4PlUsPtZyXHwL+PbfNhWnSyGFYbDTK+sk9R+P3G9PzTSFWCczH2Cd1WdgP9UxQeXLcD816/BEEQBOEz4H5a9kSgtRw6epYihrd9qoXTKpA1NTot185G102qHYeWX8gyKRR0Wq3qoA7HLLBUKKJrVYxOCxUTywJUsPQiplql09JQAcssMKJL0Vo4jqs4CTMw1rNFMDo4vgCWSSGrk+lUUasdOmTJmtDqOGgqmIUsum6hJdR6xMmXpH0/uz8W2e7oGE8bH7NQxNQMnJYaqD/Qfsz4z8WKaxEw1TLGsw7pHYA+lpT2LDt2Tl1Li60Vz9LgwH3o9B/qd94NH+7S2/Ds1G1vIfXHyZ+ENXh66VmVBE73zlz5xtladx+yF0ZE+3eV9EPoBRRqvbfw+C2uIiiijL7jlX0ymXZ86lkAAemX0NueYavZLfFAgeVH139Yulb5d8AUpUjs+nzoHj/d9pRsl+42L8YUdXHpsfN7C+t36vgFt3HhPpSnLmzIQUqBcxuWlTZX7RypEIfNPn2jzPmjBms56A8MbBRWS3BWb7M2/kCvFFnbn/yv5W9rSr4NzOZXFNdix76gj99PV0m0XGrwJXXOmvaMlj0KDxT4kDj/jAxCqkelR1nCjDkytg3OPf9GfcPgQ7E4VGrZF/BoQf55bIMfTzb4srGY6mZpd2H9s+1rzee81y9BEARB+Fz4pJQ9AGrVIJPVsaotVEDXu2iGt6HK0jFNk9rS0lgpDRNGtl2pNSPgb8dVnLj1V8lkC2Rr3rGq0TISKiosHTNTpRPU26gaWibL91YV1TuvVYe+ajQtg96dqCmSqfIlbD9RO6HjY2J2NVpBRzuqRsuZffw/JlvbriIGQhQh67D10tvmAXAKR+uuEmch9S+IrW13+8nm14uv+z60Pw/+Vh19yvac6i6kQxR6nMLRw6GSYNOzSqmGKDE+JqnKfJGM5i0/F+uuEm0P1w/PhFVWTHqS+b3p9Tt1/AbbuHyfNja/Nl1FB4pCv96m/6jJh9IUy5h2nbOLEpuVkAdipciXj8oc50/iw1+363SpsFZq8iMKq0qTbjs3fdtQu8kVrhKnb9ue9ZHN7yv7rCpDZ8+b+7M/rD945Iaa51rP+VGRxjxfQt52pDASbeMCBtvcPF8yy0WF80DUqb4d2IYHfLiwr9cX26Bbv2C1UUkQSW3cV9KwTzNt43IbXmz/7Av6ysbMlk4f9fojCIIgCPeIT07ZAypVrYtuQovCqHJDzZBRa3Q681iRaLQ6jvvVsrC+18kWdZy56lwkH18+z8hnkoWM/8fHtxzY2nYfJJ9GbPP5qPjbkwLbiNJrQMA/is/RqWcBccPth3I55jA5hN4B7D2MVpjEpcfRe+f6dRmnGjOvvqVWkKNT10ro8c5YXVGyLaD/94aHuFY2EU7LZ1mfcXMTlx6bJ+n6XTShlhE2fWXDs4DJsfrIj4QV/hTdN8qcXSikxiyERqNxKaRytudDJyTENrjbupqPWGvkwPAK5iqk6nm6hCg+bIOzcpM+CumGAtj8eqKQ8ixPfq3nOS/5Yc3DQ7DHsVwsQdmgn7tOBCd3G9JN0jeaUKmQGlO8XNXbbFbg/OQRqyPGUwrLMyp7+kadHy82+HIiitVs/ZsaBa1d5/gkrO1F9s/mvGmTvvVIZIIgCILw+XB/ffZMQa1WQdddq55q0F5EQ8uYZPXZvOAE0bNZCqbnZUZVIQNqJpNUMLSuzogrH8u1hvlqQU6mp8qXsP1u1/KSdLKFWcZKQ8vUKAYasDwfPW41849/Us4DPnV2duIfqGdiHbZOXUXP0frNOHpehPzpbeA0UHbFdRq883p47ugA9Hfw9AYUCRPt4ypV3gQsLXpn0Hu4+LYTc+la3jydEjVtL+hXKYbjd+5WvMPA59m7Yfk71//bxF9/QUubS9fCRj/l1tenT9T8hq3fm6Zv2zwY90XSPoGBbx7X4XJKaXI+sePI3Sb1IxU2K5UR/zhrJWXoY2V/n839BplKY/A9VNFTJ0Sh4FlVnOQ5Lo/5/lGKrO03SA+2M7Xpb5Rciw+jztVG0JGwu53sx6C/n0TkyFTgx2nbrT4abc6bbXrlPMf5E1JB30S2zXm9yfKMyq1RbM7rZc4psVbJDaJdhUYOuxEW27+repl+KWTtzYvvN3GmexdBEARB+DT5BC17ADSqWpasVcUZU6JobpgnlpYK7glVRc1UMVoaKiaFJd/ZsMlSzS/j0BrojDJgFlkq+AoVjZa/TWykPEDWq0Oj5bTQgGrHcB0kewoZVa1R7VRd/zp6lmzNApYotBxaFLwbFpMsScO4T5NvevsA6ldVMkVPblWjVdMo1LJe+93Y8dFaHbqFIktLQ4VTrdqhOkifNv6LYdPbovEG3Df0gfDVI6Gx8Xx3MNyWMwit/Nz15+GHwt5h1DnrUy9MdnXMtGMR9U+TfxqDkNWncORtValuuw/MPn7EoR3f58z6lPDmp25fqrvJFFpJ2k9vQ/X10PIlvR5wbjzW9ptA3VvPE6THcekqEiBgeeOHXmc01PbjsRDbvi3aIPT6jruFaxByOxDW/WhneH6wHnbg/Ft33Vy7/yF5ZpmfJIyGnW67liALDHG89dz7HfgKzBV4tj1U5kSuz8D4PvbHl+E5duA1boSeqPSrJ/B6yvwmWb83Pf4fLhRSY0P96wmubx7b4KzsR8KyOS/nOW6WWPMVMrbC6v7+HMoEl6t6nq4dqDeEVGWfNaPMWb45OM7kALvNlY0rXxNWK8pg29ZEeG2lyFrlguO6we+ntDWBUmRto85xvj5hnXLT63c6UZY1OVKKtw1MgSvD4EGxyDJtrtrKVL9LI9htrto2/XbQQovk5edmUf1zrYKYZlk0B6ZpAiq16l3ZGC4IgiAIH48lx3GcRVT022+/Db5/8cUXi6hSEO4up66j5rDoPIIgCDNjG64/nIBSpG+UOVdKUK9zpUwqYFzlRsQ2rACRCpcRoh/Ck5UHsDkvl+nZnkx2nTO75JYbbPMKbiGyuWqP+nm5MwTkjdzqFkPfKHPWtEeVUoF6l0uNBGO6eEaVYhEMfEdFc53+TTh1XigWejaLqSV9OSYIgiAInzai7BGEGRi8/fd4dt2wy4IgCLdE37bd0O2C8Clj6WSzFlXPkloQBEEQPndE2SMIgiAIgiAIgiAIgvAJ8Uk6aP4ksXSyS0uu48HQT9BXkCAIgiAIgiAIgiAInyui7LkvqFU6joMT+RGzZUEQBEG4Da7qIRHJxugbZY4TRw5znW6fGTOFJ4usJ7pdN/32ongJgiAIgvCx+ESjcQmCIAiCINwAtsF5O0emcsFZ2ZgeuWxj4LnYc14NkCNdsrmiwpc5Av6Ucqz6Do3bba5yuRFHxqO+l6Y5t1ZIl6KcKyusNip082XOGxWo+zJFyH9DUbMEQRAEQbh5RNkjCIIgCIKQkKtmkweVfVI52FQMzvJ5HsQqRRRWG/usAtCmW7b5sqGAUea4GdC25PODr8ulBqlANKsPzTJnIxY5M0YJsw3OyiekGg1SFUgpCgxkGqdNN39CShQ9giAIgnBvEWWPIAiCIAhCEmyDcyqs+UoQpchaA87qBv1ckQ/1POePpodUv6rXobTPh5gQ6P1mmeNmjsx+hRTw4JFCaqPhKpVsg7P6Bf16nuMwy5xynh6AUhpaHikKD5QNfq/AspKbjNJmt7kiR0oCtwmCIAjCJ8H9VPZYJoWiiWa00NSPLcxNYlJYKmCqNZxOdbE1F5bQ1Q6d6g0M4MLm5+b6Py83On4R+GHf009gdxt6B7Dz1ktch8Pno/kA0utQfQ5pxvKPkSSEfFz7VQLtPnGPB+krcLgNj18HKlyB3W9d2QA4jUmP4xJ2XuI+4ATqqH4NWytT+r8Ch9+6X/dewpvLkDze+Oo7cBRSDsbG/Rr9n3d+QuVYd8sdP4TN0xnlY3T9TMwPCdeXN05x62d3Zb7+Jxm/4NgM8ObWn/uRtvw+r8Duevz6Adh7DW8C4887d56TyDdtfcXJd/ht+PrdegLV7fB2w4haP9X18HR//uPke8Z843vT62dIm26+zpVSYrNRHEuzOa9fsDp+3lP4AHxAidha5VcRUBbl9tkM1l1u8qDhKnau6mU+lOKsdh6x2qiQGZexXIdKvMXPpKUQkKuwWZlmzjNtfARBEARBuFM4C+L9+/eDz63QaTmaqjq1zu00Nws1VXNaC6ut5Whq7SO2f00WNj+33/87MX4RHL5ynGffOM6hf+Jn93gk/ZXj/OQfv3WcrW/c45/eOs6zt8N8tR/c72++cZw3Py+u/fG6at+MHoflmSV9Kj84ztarwPHPo/IGxyCYHuRNsH9+nrA6Q+Scp/+Lmp+RvD+75f264uQbH5/DV6PHs6aHrs+I9TNv/2cpPyGnL8uz0bkelzeufz+9dZxacDx+uEb/otZXAvkcx3Fqz0aP38zwe0qyfqKuL7HyLWB8b3L9BOm9eOIcvWhOnP/luxdOr/mdc/TkyejnRdP5ezDPhfv9780XjnUSrOHC6b34zvnFcRzHOXF+Oblw2xqv78kT5+jJsB6fvzdfhLR74vSaF2NtTJZ1vDatgKzj8o0enzjWE1/WZOMjCIIgCMLd4v5G41I1Wp0Ok4YVFmYhOwxJntUpZLPolptqFtzzWd3C1AtuOPNsIGy5ZVLIDkOaZws6VrB6Uw+kZynogYDnXnj0mmVSCIRFLwRjosfVP5KeHS0bR5L2zcKwbT3YslcmW/DaL2Ca1xgfn8j5ietDTP9vcvzv0vhNYWvdtR6Y4BL23sHu86G1yNY2VB/C3imkt9034uM8nemt95T27yIrrkXC3sFkkv6SgXVNGL0D2Dnw8jwPnD9zx3JrHY7OFifq3PNzCXuM5V1xy/tWGbOyte3We530qPGNWj/z9n8h63sdtt551jXeeG5FZI3qX4+hdVl6fZieVL6p62sG+Xw2V6D3LiZToL7I9RNzfUkk3wLG96bWzwTKmFlMu87Vhmsts1xqsLm/z+b+PmslheWNXKSD5tE6mlxtPOIqn+c4X6fbbPP7xr5XV4O0kiOzPzwOs8xJVbz0RslrM8fvqcdGBoviqp7nOO9+zpozRAIbHx9BEARBEO4c91fZE4FZKGJqxjAkuZEh+DSttRycloZVK6JbGkbHwTE0Ml4eXTepdoYhzTvVDHpBD1TwFVXDT++gWYWhMsALj15TNVqBsOitQEz06fX725/8dAPN1Ems70nQPlrLbbc2roXRaHVqqFYX1XDo1KBQgGrHoZXpYpoJx2cuEvT/Jsf/vozfGjwF9sYesntnQMhD/dZ6woe9Odu/q6QfQi8ga+8tPA5ulwlB34neEnJ8Ck/XgXVIn45tG/uYvAOu81AbxSXs/dnbijRDeuz43vH183TbVQ4eHYT3fVr/0tvw9NJdP493YOf16NpLQtz6ipMvrL70wwQNx6yfpNeXOPnmGV/gVtbPAwWWH40pM3KVSAfMD5IqPnIV1opFMp6SKFXK8WvZV7aU6dltuvnh8XlC3ctysUKaJufXCKc+UB55MiUhdHwEQRAEQbhzfGLKHhOzq9EKOopRNVrOpIWJWjPotDRU1c2jqoClY5qma40xsAwqYJpWwDLje/TiMF3vziBeXP2mSVerBvzcqGhVjVt1S6RqVFVQM4CmoamQ8QVIMj7zkKT/Nzn+i+CWxm9rG47+/PEUDR+7/XlIP4HD3ekWEdVd2H0SknAKRw+Hlg2bQauGTwT/YfvxS+htT1oFxaUnGd87vX48Jcveu3CLqLj+bT2H3V03T3Uddv48Q9tJ1leMfDBUNj3ecefoWpYt1yVOvjnHF25+/aQq+1MdLAP0jTJnRptfT2awhsHm3GgDNr+euL59Vme07AlHYbXSYPWWImclGR9BEARBED4+99NBcwwWXE9BombIqDU6kc6ATQpZE7XVGSiULD1LYruM2PrvOB9d/ns+/ots39+eFNjmkV4D/gyMbWU4Ok1mATBv+6Fcxj+Q9Q5g72H0g2tcehy9d5AOeditRmzf8klvw+7YuaNT6J26D9EjdU2xfpm3/4l5CBwwMf9TCZFv4AD3FPQDOFofffCOS/eZOr5J189HIm5tJM2TXoet166VStx2K0i+vuLarsYoS0KJWT+zXF9i5Zt3fO/A+lkuNvjSKPPjRoO1HFy126RyOVKVxpRSCqtKm3Mb+soGD+p5jsetcQKh18HdMpZIsaIoybaSBfhwYXPVzHMcOJeqzFiJIAiCIAh3lk/MskdDy9QoBnypWJ6PlGS+bzS0jElWj8hsdemqGb7yTDUsU0c3wzyudOl6py29QHap4O0ki6lf08iYOsMqLUzdnNmnS3T78xIj/9zVx/T/psc/tvy8LHb80ttAcJvHCjx96G0d8U4dHYD+ztsWsmAm2sdVqrwJ+MfpnUEvyRaSm+LStYx4OkUBsvdy+pauIMfvhlYb/ufZu2H5j9p/f/6D/okuXd8ng+hJM8iXXncfqPUI/0xx6T5R4xu2fu4jwf7pO2OWOJfQi1CGhRG3vm6UuPVzy9cXn7u8fpaLAUWMbSfzmZPLQb0OG7mRLVSTlj3e1qqAoufDhT30sVNuXstHz5gwI+2tVSrzWwf5fu1mcjgoCIIgCMJNsOQ4jrOIin777bfB9y+++GIRVV4TC71QpOYrAVSVWtWgqqkMQnmPldBaQb8sFmahSCFQXs1UMVrudiJLz5KtuWmqVqOqmhRqUAs4I7bMAsWCp6RQNVojIcin1++GLS94Cg8VrVWFwmzhx6PbD+8/aLQcDdNP01o4mslSwUStdTAokq1Z3jjFyD8vMf2/8fG/w+M3Htp713vYeXwwJQR4MHQ2hIbPTmoFMHf7IW37bD13Q4FPTY97oLxu6HWGYzAeunoQsnms7rBQ2WHhvWfq/3p4nlmtNHoHoL/1ZF2BZ9ujD+OJ5BsPR89YaPaQ9MjQ2V4fSLJ+5u1/TPnI0OvbIfPL6LnnT+B1zPrRd9z6jvw2VlwLlYH8UfIlWF+/A95Pka+6C+dR63cGrrV+wuQfky8FXE1JjxvfW1k/SbANuu0cmRFrG5vzcpl+aX/Er0/fKHOuNEZ9/bTrHJ88Im036VFirVH0LHJGQ6+HcVXPc7WxH+47yLbpKwrLU0Ovt+mWbVYHbYbQrtOlQibXpps/IbUfLU8YZmGJgqmO/E8WBEEQBOHj8AkqewRBEARBEG6Gq3qe7vj2q1yFzUoOX/HTswEU0g1f6dKmm69zNcgH2AZnsRY6wTqm4dXvCkMmTEljG5zV4ctpyp5g/4KyJsJCz2YxtQ4d0fQIgiAIwkdHlD2CIAiCIAjCfFg62axF1WmhxecWBEEQBOGGEWWPIAiCIAiCIAiCIAjCJ8QnGY3rk8TSyWZrUxwFa7TkbZogCJ8iYf6Yxli4bxZBEARBEARBuMeIZY8gCIIg3DJX9TxdO+igd5K+UebsopTQb4rrK+ZqI2Go7gEhvmRunKB/mXBSlQhHxIIgCIIgCEIixLJHEARBEG4T2+C8nSNTueCsbExV+KQ2fI1H0PFvjnTJ5ooKX+ZgWfGVOzlWfUVPu81VLpcwkpJCupRAs2K3uULhQ92Xw2W51OBL6pw17bECEY6CAZQoRZcXlUoUPYIgCIIgCHMhyh5BEARBuEWumk0eVPZJ5WBTMTjL53kQa8misNrYZxXwQ2h/2VDAKHMcVLLk84Ovy6UGqTgrH9vmAzbYQJxBkKLwoVyHyj6bgbx9o8yPVNjcH6/App+kXkEQBEEQBGHh/I+PLYAgCIIgfDbYBudUhoodpchao8SHpkEfd3vXmTFuITPKVb0OpSIf6vkQa5oh/WaZ45jtUq4MOZaZ3qaXkdVEYcCH+ZdF0SMIgiAIgvBRuJ+WPZZJoWiiGS009WMLc5OYFJYKmGoNp1ONz11YomCq1DodqvOMyz0d394B7LyFredQXb+dNvVsFozgeP+No7/+K3v/+Rd6QDr9L1Q3/5n0oMRf0A/+xNF7gD+w9Y+vqP7xD8MKLZ1sEYxOlVmH/ug16KeQfgK728PxAGAdDp+P5gNIr0P1OaQZyz/Gs2/h6cp87VcJtPvEPR6kr8DhNjx+HahwBXa/ZTh2pzHpcYQ5+V2B6tewtTKl/ytw+K37de8lvLkMyeONr74DRyHlYGzcr9H/eedniOcvRSmx2SheI3064+vr6QocPxz+JqPWnz+2I33x53wFnjE9fXd9+vzFrc/dldsYX5vz+gWr4+eVImsN9+sHFFK5KRoST1m0lgNy+2wG6y43edBwt01d1ct8KCVQzNgX9HlEym7TJ3o72cKxm5zlm+FpSom1yILzrU9BEARBEITPhfup7FE1WgYUilm6xpyKjRtAzxbIdBYRGcuNsFXIdv9/9t4ftnHsath/9CHVuNgUcWNDO3qLFBEJ5FeMGk9hTfMWSaExENLuPC7XwfpN42oNUASmipvEwHhKjzpLXMDj4nuLNJYLq1hPE0BUgC/FaFZrF3GKWSCelr/ikhJFUSL1xx7bcx6AsMnLe+5f0r6H556T7u6aR1nXpy71rvfvMHIlOAAqt1WgY1LOW3ih/mn//Y9U+BMH668AqP/9v7H//jsOfIVO5fgv8Nu/cZL7NXz8J5XTP2J/9TesYEWvWVj5DLZjURtzAhU3gX2onEO9BMUSnDyBjddwEFL0VICDA7XArh8rBciBr5QIFsL1fTgtqAV6ZWd25bMPH0q9hfNJCewdsPzyTw5U2eF7uhQS0pNYVPV4dt5TfHGh6sdLVd8DwEb1QV+6z/pLYAcevwxFfrqAjWP1q3UAlp9nfQEqF716Bv0zcfuZbnx6LDGXZYS1R1L6cIK6h/u38hoo9dKHzb/1b6C+o66tB/P1HHKLqt+LF6PTc4wev6T52T6++f692t2Fp1laoa1WwAj/NVHCyqIGV40snw77/YeyyPQAACAASURBVOf0tnFlya0l1/a602Hu6Rq/4pB/d7hBS5ywzyHFUF8/YUXQQN9MPj8FQRAEQRC+JO7vNi7NoBZrweLimDqZTEYduo2p69h+zHLHVNd128WxTfRMhoxu4nSzO5h6pptfN+3+cOeOHUrXMW0nVLSNnslQdh3MTE+GGbolUX5fut6fNy2tUB11EycowK9fJtPrD9fWu/3Ux9D+HU59H55tqGPjGPXV3T9/FiyYztXiNrhuH8fL2Dj2F4J+3vqQcp7tKHmVsLXFpZ8vJu8syg+wbQfD6NfI5H77Nw5++7uhfbRe+htWzrfk+eWvWY4xSzGsMi07Mi/GoFiAyn5MwgVULtXCNii2WAJrQS2Ac6XQIjlc57GsGkaUfxdZ9Bf0x4NJ9g5d65o42sf+PF8MKbOA9jvVl8UC1N/NrqqzGp8u2YRVfVJ6lAulyOmri6+IsQokzj8AClC89J83X15fOPWk9BDDxm/Y/Lzx/m3scvVUWdrMre2xfHTE8tERT9ayzD1dSmdR0zjk6unXXK2scLqyS+uwwa/2jnxZe+SyS+SPeudptlt9+rHDo2yWuaWvuW6k2co1Kcrn0PJR7/gNu76vn6PhxzAl2LjzUxAEQRAE4Qvj/ip7huCYqzhGFc/z1FHNE141GzUPr2bgllexXYNq08OrGuT9e2zbwWp63fxNK49thhQhxh+wqkF6E8M1ewoZzaLpeZQ1g5rXkxG20BgtP9g+FaRXMRyb8fQ9LmWbXh2rBs6qr8zSLJo1A61c7SpxNKuq6ptim1gSxU04eN77Oh5sbckVQttZCuoL/smBOpYvels6Ahknm9B+qxQ41ks4+QZyvjIn+OIe5D/5Bohsq6m/VQu0kwN/IRleyE9Zfg8H1zUwYq1v/knl+L94VvkvKh//1LXqGeDjX7Hbv2c9qvDR8uRdh+8n1fY8gXUiCjCUEoKY7W3FArQvJyxrjPLvKrkFaIfq2n6rFH5xCr4Ae2P4lp/Tc1gvAAXInUe2jd0RHmVh7uvhi+Wk9FgugRFKkbTzb72kntn6sXp3RElKTxy/W5ifsf23tD3UAfOjtIqLpW2erK6S95VE82tL/HtrhdOVFU5Xtmh3GrRWeucfEnU3Da4aS8wvofz2nB3eosVMgw+H2V70sDGYaH4KgiAIgiB8YdzPbVxDcXBaBrWwoxnNoOYNrsi1cpVm12zFUP5RXBvHcShnMpG7DRxQ27Lc77FX9a61jKZBPm31kuQ7Di3DCvnJ0TAsA20stwQa5aqFFsjQDCzDxnZQignDwtBtHMvfZubYOIZFc5wiRpArQW4H2iXfD8cxFL8J3eBv66j7C63cYrzPla7CKDj3f55eRvzxLKqtM2GKm8oHC/hf8cOKjCnL7+K2aDFs7H/Neuk96x//SeXvf2Tj778eVPh8/Cv26f9jvfQqpnwDTTNxWzC24x6fYkltT1n+Jvnem+Bzlz8NwdjbI7bvWAeQO1Zbhvo4h/qCUiYALPtWK7flQyot89tHI0NyJ6XfKAX1Dqmg/PAMWF0lpKcZv5uen2n6T0WwWmP+rAMptlspOnyodni8muXfZ1nm97LMLwURuvp99qThunrI1dKa/x7L8ngN3lU7yRG8ZoAqOwsrK8RuVB6xte2zzk9BEARBEIR7wgNT9ihcJlwja3nyWpnmUCsXB1N30GrNrkLJtfXBBd/E8m8DDcsC3XYxLLBtsJqzdcqzXvAXuKiF70Hoa7+9A7lNOPEXv+3j8X3stBnDKW+EWZSfml/+mvXf/p766f/Cb/+ne7n99z9if/w9Vul/Jm5HIsH2pNA2otwTIOQ/JaB+Hm8hMevyY7lItnxpH0NlYbjCJCk9ifalUvpFsYZs3woIfESFqZ9D29++2CdrWN1m0P47wwJwzMD8Chhn/iX1fVJ64j1p5+cNMre6x2+qW/zj6R5PluCq0WB+aYn57b0RubI8zjb40IHr7FMe7a5w2ojcEvEHNLe2x5NY5Y2yrMkfhcyNltaY39qilU0KAz89c6t7IefS/Sjn0rfoLFoQBEEQBOEB8sC2cRkY+TKrdm//i+v7wEnn+8bAyDvo9pCb3RYtLc8f8r6ix7Gxnbi9Ni1aXZ84JnrG9HeSJcg3DPKO3fOxg4tjO2P6bnEpr9q4QfmOzaqT799uZFgYjo1tK6ue6R1J95MrAce+VU94YXcB7UVl7QBqUVw5j5MwnOWFfj877QulwLHTyJlB+V20PHkY+CJdOf5v7PY//TMVmav9y193zyun/60cOC//TkXA+vt/Yw+s9h1cV0NLbTIWT64EhLcRLSqnwRv7vWv1Y7Av/W1HM2agfJRS5U14/N5Be2H2ZafmQs2B9SEKClAOekdt6QpzeqmcD5+EjheXvfx3rv2zJJhfYUub8PN5y/MvYNj4xc3P22ZuNaSI6XS4TpNpaQl2d+HpEvPbYf82UZ89vk+gWEWPsgKaG7ACyvJ4e41Puyu0okqkW0M5nn40qXGRYyo/dBM5vBMEQRAEQXg4ZDzP82Yh6Oeff+7+/tVXX81C5IS42OYq5dA+q7JVxTI0uqHMIzmMWtivjotjrmKG8mt5i2pNbfVybR29rNI0o4ylOZhl+sKdu47JqukraTSDWl8I89HyVdjzwKmyhlGzwEwXfr0ber1m4JjlIeV3byZjQs2bRdSwQdrHsHERisoTvu77OgnCMttve6GN7RhfG9FQ6pV9eBMoaRbhRUktFsOyi5vKsigIZR0XbnnS8gNsPYNr9ftkwt+69cZX+ORyr7B8xQ4f/8rG8V8GFpfF5fe9aFwwcfj1aGjvA38x++x4RAjwUOhrYDC8OWrL0jAnuDMtP6bsgOh4xqYnKQwmDb1Orw+iode7IbkjsuPmU3Bt4vYX4u9JOz63RftYPVNt6Hs+A2LbH9d/9F+bpxeBKS598znsjxg/0szP2+jfTpVWY4l8nxJGRaq6Xuu3qLmubvEhu9dvZdPY5fTsa3KdQ9qEtzql3MbVqfJu64z5vREOnBu7nO42gCXyR4E8P+T52A0Oy4jnqlrl0arfjk6Vd4dZnmxPZlrU/Ts4ZoABQRAEQRCEh8YDVPYIqXBM9JYV8lskjI1jknEMvHFjpCeKzeAY3tih1wVBuB9cxVnOLG2zvL1Ef4jyLLmuUsZXtnTvw1fcHCZYBPky8O9NG+a9Kztchxuirx3TlOdi6zqO0ZS/bYIgCIIgfPGIsucLQ331DM7k6+e02LoO1Rn24YRWPYIgCF88ro2uu1g3ZLEqCIIgCIJwnxBljyAIgiAIgiAIgiAIwgPigTlofsC4NnomoxxPxh6DvogEQRAEQRAEQRAEQfjyEGXPfUGzaHoe3tBDzNYFQRAEQRCEh0aH6844t1d5tzIsqmAaZ/PKd9qHccrs5lvxHdwPT/980Q4FQfjS+MXnroAgCIIgCIIgCEI8WT4drvAurZIku8aToyM+NVRUwX6WyG+f8a7aYX6pwbutH3l8tA27W3zoBEqlLLm9bWg0YFXlv+50mMsGnuM7XDVgfinOk3yW3NqwaIJZHu9t01rZ4sOeKrM9QqE0v90foVEQBGFcRNkjCIIgCIIgCMKdZX77iGUaXDWWmA8rQBq7vOus8WS1p3i5ajSYA+aWejf2RUFc2ubJ17ucbnWY396GBkCHR2tHPAnLDsn8dLgVUTaNGTmwU+Xd1hnze3vMb8N8Ngt7RzyOvblBa+Wsv52CIAgTIMoeQRAEQRAEQRDuOMrC53Q3er3B6WH/fbm9pT5FTKAsaq2cMb+9xFynw9yPWfJLgeXOaK3No6+zzD/dU5Y2nSrvdn/keneF0zjLnK0V2qAsjPZWmQPIZnmUfcqvsjCXXYpYCgGdBlcsMZ9WeSQIgpCC+6nscR3MVQejWsO40fjUDmbGxNHKeE3rJgu69fIdM4OtNWneRNz1mY3P5+7/4dxo/w2hvg/2OeSew0EJ2sew8dZPLMDJZv99ALkCWJuQI3J/hBcvYX1xuvItQuU+V+fd9EU4KcGz/ZDARTh4qeoGwHlCehIXsLGD+gcrJMP6BoqLI9q/CCcv1a+VHXhzEXOP37/2BtRj8kGk3ydo/7TjE1uPgsp3ugDL52PWj/75MzA+pJxffj8lzZ+Dxenan6b/wn3TxR/bYOz7ygravAgHheT5A1DZhzeh/udSjXOa+o2aX0n1O3kZP3+Lz8EqxZcbx7D3R9r3Tyq5cfMvqf4JzzeM7r+k/l9+l258k5Dnb3h+ef6SGTZ/rEJ8ejD+SfV7wXT9e9Pzp4fvTye7xvLe6pB7lsgfbTPfzRK17GnQ2urwq1ilyRKP1874dweuG/B4e6mrZHkUU5cBK6I+vubx3jb5vmsdPmztwnayxc+gpRCwtM3y9ihznjT9IwiCEMKbER8/fuwet0Kz5hma5pWbN11QzTO08lg5yprh1R5M+RMys/G5/fbfif4bwskrz3vxneedBBd+Uud96a88731w/tbzit+p8/dvPe/F29595R/U72++87w3P82u/Kis8nf953H3jJM+kh88r/gqdP5Tf33DfRBOD/Mm3L7gnjiZMfWcpv2zGp++e39S+QNZSfWL9s/Jq/7zcdNj5+eQ+TNt+8fJP1DPoC4v+sc6Wt+k9r1/63nlcH/8MEH7hs2vFPXzPM8rv+g/fzPG8zTq/RFbXszzkyQ/6fkYWf+E57vvWqSsNP2f5v0wVvvk+ZPnb8znL2n+DH0+k+o3g/69yfkTpv3tc6/+7eGQ1B9V+vOE49tD7z992Q69cz/t/PDMa3/73Ds/PPTc58+9+rd/9txv/+y1D7+NleWeKRH/iaZ/e+j9xzvz2oc/Rur3rdcOX+py5rmhev3n8Nuu7MHzM899/mfvX2P3jyAIQj/3NxqXZlBrNgkbVri2TiaTwfRjkDumCkuu2y4Atp4hk9GxbbMXxlw38ZN9IQ6mHoQz17uyujh2f7odusEPj152HcxQWPQ+GX3yM+imTbj4xPJHkaZ8x+yV3ddwP49u+uWbOI7fT3oorHtS/QNixiddGz5j/9+l/htBsaC+Xg5wAZVLONjsWYsUS2AtQOUcciX1RS7K+lhf3UaUfxdZVF9EK8eDSfYOXeuaONrHsHHs3xOyWmi/U31ZLED93eyqOvX4XECFyL2LKn/wVXhcir5FxSTpw/p32PyZtv0zmd8FKF76X/f9/iwOuXVY+9r0rE9yhV562vqNnF9j1C9geRHalwk3BfJGvD8Cbvv5H1n/mOd7WP+NOz+S3g8DyPMnz18MYz1/jJg/aZ7PpPrNoH9vav4MkB1lFrNE/uiI5eDYXmJuba93Hrb66cpb5Ymf/mR1icdrSz05e9vk97b5Ff5Wr6M9ctleGWEHySr9iOW9NbU1iyV+xS6nW1WuJ2jm1e4KpyvqeHc4Ruivkf0jCILQ4/4qe2LQrCbNck+7YNQ8vFovILnV9ChrLo6rUW36IcubFqwGi/Fg+1EQzryK4dj06RuMP2B105sYrtlTBvjh0cuaQS0UFj1UBWzbwWr20ppWHtu0/dQU5Y/ugMTyMWqq3HJUC2NQa5bR3BZa1aNZBtNUfVbLt3CcNPWfls/c//el/57AOlCJ/JPffgfELCqKhZT/bE5Z/l0ltwDtUF3bb+FZ2Fw/BntjuEn66TmsF4AC5M4j20o+J5fAJP9UD+MCKq/9rRBjpCf27x2fP+slpTyoH8e3fVT7ciVYv1Dz59kGbOz3z700JM2vpPrFycstJN+X+v1xy+OXVP/o8z3t85nm/RCLPH8z4Ut9/pLmT9rnM6l+0/QvcCvz51EW5r4epcxo0FrpKUlOdxtcH271zoeEVQ8rVgby7Db49CPMTaBDmVvdJschHyYIp95VHh0d8WQtXeHJ/SMIgtDjQSl70qFhWBaa1jv/g+Evxh2HlmGF/MxoGJZB37Le/R57tWeZYbfGKNq1cRynZ1UUWH04rlJopCn/ptEMLA20PGAYGBrkgwok1X9aPnf/z4Jb6r9iCeqvP5+i4XOXPw2553ByMPqLrHUAB89jEs6hvtD7srocsXp4CAT/7D/bgXZp0CohKT1N/97p+eMv8iqX8RYZSe0rbsLBgbrHKsDG6zHKTjO/EuoHvcXusw01RhN9WR/BTY/fxPWfwfOZZv7eJPL8yfM3FUn1m7J/4ebnz/z2UV9krX6yPN47Ynl7O2R5kyW3F7L0OTpiOXCKHJE71BpopJ+cJLI83t7j8S1FzhrdP4IgCP3cTwfNnw0HU3fQak1qvkbCtXVS22VoefJameYdczacms9e/3ve/7MsP9i+EN6m8AR4DURMqevn6b5ATlt+LBfJ/xC2j6GyMPwf56T0JNqXkIv5Z9tK2J6RK8FB5Fr9HNrn6p/4Plkjvr5P2/7ULADHDIz/SGLq13XAeQ72MdQL/f/4J6UHjOzftPPnM5E0N9LekytAcV99JU+jPEg7v5LKtiZQVoz1/pjV+A15Psapf/j5Hvv5HEGa8e1Dnr+Z8SU+f0nzZ5znM7F+0/bvXZg/S3C1VeXRXparRpb57XTZrqtbvDt7ypM1UM6Ut7h6useT1Q5Xnafpw6hHyWYHlEtJfPqxw9XhCqeha2nbIQiCkJYHadnTaikvKK5jow84fXFxbBu356iF7508hgEYBnnHxnHD9zohny4tWlqeP/imGq5jYztxHlda+FXAtU30jOnLMDDyDro9xI4jqfzUDCt/WhLqP7X4z9z/ifmnZbb9lysBYTPzRVhf8E3X/Uv1Y7AvfbP0GTNQPmrR9SbiP6OdxoT9prhQX2bXRyzAKjvpt2ycXva+GgfHi8te/s/a/mD8w/6JLpTvhW70ljHqlyuof+jtIf5ZktIDhvVv3Py5j4TbZ29ELAEuoD1kMR5H0vy6UcZ8f0wyfjN/PiLP9030X+r3gzx/n4UH9/wNmz+3/Pc94O7OnyXy2/CPlV0+ra0N+uiJpcGHs6e9UOhkeby3x/zZIVeNMz49XRqpsPn0Y6e3FWzrcCIfPQNtCFkjPdnent46KPArOZbDT0EQHjIZz/O8WQj6+eefu79/9dVXsxA5Ga6DuWoqhYFmUDPALDtoZRUm29Z1sCxcO3RPOER4OD8aRs0Csxf+27V19LJa+mtGGUtzMMtQDjkjdh2TVdNXUkTl4+KYq5iBkkLT0PIW1Zq/XSmh/HRdMKx8P5T5QA6DmmfgBGlGDc9wyJiq36qsopddjJpHzUio/7R87v6/w/0XDV184P+z9ex4RAjwcOheiA3fm/Yr5NTlx5QdUNxUoYhHpif9Qztp6HV6fRANndsNGRuRHReqNy688FjtL8TfM+5X4vYx2G/9ui7Ci1L/YiBV/aLh6ImEho5JHxq6128DaebPtO1PyD809HMpZnzpv7b5HPYT5o+9oeTVgzIW1Rfybv2H1S/F/Pol8HFE/awD+DBs/o5BUuh1GP38TyofRjx/MPr5JuXzeTl8fqR5P6RBnr/h+eX5S2ai+RNX/0j95qHrx2aS/r2V+TMWgVXONvNnu7Q7kXDssfcf8mjPv6cvXLsK1f64qwSK3OtztbvC1dN+h8098R2us1nmRoZej5YTQ2OXFtvklxq0Vs6YH9mmQRwzg+loff8TC4LwZfPwlD0J2LoOVXkJCoIgCIIgCMLdp0Grz/FyltxeWKESTY/cR4MrlpinyjvfKmd++4jHnS3eHWYjiqJRCps09RuieOpUebcLvxml7EEplVoNYGl7TF9CLrau4xjq47YgCAJ8YcoeW89QDvbjjGEpIwiCIAiCIAiCcCdxbXTdxfJqGMl3C4LwhfBFKXsEQRAEQRAEQRAEQRAeOhKN677g2uh6eYSjYIOaaPMFQXiIxPlriXBzviEE4QtHnj9BEARBuJeIZY8gCIIg3CadKu+2zpgP+5zoKF8Sj7aHOABNwXU1zv9EEr6vibH9Q0zDMP8aPean6AdBEARBEARBLHsEQRAE4Va5bpzxKOL8U13rV3BcdzrMZXs3XTWqfDo8pN0JrmSZW4L5p3s8Xurw7zPI7Y0XvSWQk1tLoVnpNLgiy6fdrVAdYG5tj9+wy7vDTiTDiAg52bVQCOS+QlQkHFH0CIIgCIIgTIUoewRBEATh1mjw4TDL/FHk2o9ZOFzhtO/e/ogz88CH7SOWu/qfkGKk0+CKp/wmdfSYQESHT3SgAyTlzWb5tLULfXVQFkX/YJvlo6iADtdp5AqCIAiCIAgzR5Q9giAIgnBbNM64yn7NYxq0Vg6Z29uG3TPm97Z5VN1lbmmbx51dTg+/HrR8WVrl8RCx140zrjsd3q0c9icMtaAJ37PEXDptD4/39hLu6b9/ThQ9giAIgiAIn4X7qexxHcxVB6Naw9BusiAHM2PifLYw7eOV75gZTEej3GxiTdMvt9a/s6V9DBtvobgJVuF2yrR1HaqD/d1u/xX773+h/RH45Z84KP0Pub47/he78kfquVecLP+ud9m10Veh2rQYt+vr+2CfQ+45HJR6/QFAAU42++8DyBXA2oQckfsjvHgJ64vTlW8RKve5Ou+mL8JJCZ7thwQuwsFLev12npCeRJyT0UWwvoHi4oj2L8LJS/VrZQfeXMTc4/evvQH1mHwQ6fcJ2j/t+PTw/aVk11jeW50gfTTR+bW+CKcLvWdy2PwL+ravLcGYL8ILRqcfFEaPX9L8PFi8jf7t8OGwAXytTrNPedQ45NO2v9VpdY1/b61wmt1meW+cfUzBFq6jrhXQ1e4Wn9b6t4rFZ/2Ra75mvtPgmgSl0CzpHA4qpgKyazwZmnG6+SkIgiAIgvClcD+VPZpBrQrmqk4rZqE9O1SEK1NvjZXL1k3yzVlExhqvfKPmUdb1qUu9vf6dLbkSHACV2yrQMSnnLbyooufvf6TC77GW35P7ZVzGf1I5/gu55T+R+xBJ0iysfAbbsaiNOYGKm8A+VM6hXoJiCU6ewMZrOAgpeirAwYFaYNePlQLkwFdKBAvh+j6cFtQCvbIzu/LZhw+l3sL5pAT2Dlh++ScHquzwPV0KCelJLKp6PDvvKb64UPXjparvAWCj+qAv3Wf9JbADj1+GIs9cwMax+tU6AMvPs74AlYtePYP+mbj9TDc+PZaYyzLCOW5S+nCCuof7t/IaKPXSh82/9W+gvqOurQfz9Rxyi6rfixej03OMHr+k+dk+vvn+va4ewvY287s93zaPVn1FT8hB85POFqcrh31buABoKL84152wb5wlctVD2F7jUdc4p8OnqPucIVx3Osw9XeNXHPLvDjdoidPhw1ZKXz9hRdCAZdLk81MQBEEQBOFL4v987gpMjGZQi1iwuLZOJpPBdNS5Y2bIZDLotgpYbusZMhkd2zbRMyoto5vY4XjmroOp+2kZvSuri2P3p9uhG1wbPZOh7DqYgfxQfQblZ9BNuz+celL5aWiF6qibOEEBfv0yGb3b5qDPMrrdLyOmf5Oo78OzDXVsHKO+uvvnz4IF07la3AbX7eN4GRvH/kLQz1sfUs6zHSWvEra2uPTzxeSdRfkBtu1gGBGNzMe/Uvn4e6zf/m6Iogfqp3+k/du/sT4k3bDKtOzIvBiDYgEq+zEJF1C5VAvbwFqkWAJrQS2Ac6XQIjnE+lhWDSPKv4ss+gv648Eke4eudU0c7WN/ni+GlFlA+53qy2IB6u9mV9VZjU+XbMKqPik9yoVS5PTVxVfEWAUS5x8ABShe+s+bL68vnHNSeohh4zdsft54/3aqfGBtwNLmU3WL05UVTnfhN0dH5LNV/nGoHC2zu8LpyhYfQrqQ6+way0dHoeMpsMbjbJZPnUZQGNc85VcphvDTjx0eZbPMLX3NdSOlhmgisjzeO+qr+2/Y9X39HA0/hm1BG3d+CoIgCIIgfGHcX2VPDJrVpFnuaSeMmocXMo+wmh5lzcVxNapND8/z1PaoVROlUwm2L/lpXhXDsenTtxh/wOqmNzFcs6eQ0SyankdZM6h5wT1en4WGbTtYzV5a08pjm4GiJUX5ibiUbXp1rBo4Qfs0i2bNQCtXu0oczaqq+s5gm1pxEw6e976OB1tbcoXQdpaC+oJ/cqCO5Yvelo5AxskmtN8qBY71Ek6+gZyvzAm+uAf5T74BIttq6m/VAu3kwF9IhhfyU5bfw8F1DaK6Hj7+P9r8E/v4v3hW+S+eHf+R+sdecvvv/02FP2GN2nuk5cm7Dt9Pqu15AutEFGAoJQQx29uKBWhfTljWGOXfVXIL0A7Vtf1WKfziFHwB9sbwLT+n57BeAAqQO49sG7sjPMrC3NfDF8tJ6bFcAiOUImnn33pJPbP1Y/XuiJKUnjh+tzA/Y/svu0p+NaZPl7a7Sg2qW77SZ4/H2UA5krQVa4nHq1kgy6/oKIuXTodP2WyKLVkNrhpLzC+h/PacHd6ixYxyVP04rk8SmGh+CoIgCIIgfGE8KGVPOjQMy0LTeud/MFo4DuA4tAwr5KdGw7CMft8p7vfYqz3LHHucHV6ujeM4PauiwPLGcZUyJk35KdpXrobapxlYQfsADKtfgeTYOIY1gy1nilypf4FbOVZf77v42zoCy5rKECVD7rlvAbAILPo/gdPLiD+eRbV1JvzlvbipfLCAWkj2MWX5XdwWLSAfudz++Z+023+hnfsbJ+vvOSn9iQ8f/trtj/bHf9Ju/9FXBP2FdvuPbPz9nxEpBprm4o63e7CPYgnqrz+fouFzlz8NuedKETjMYgTUnDt4HpNwDvWFnuXKcthq5Q4xv33EkxGL7KT0G8VXklWiz3rK9DTjd9Pzc5z+e5TNcu1b9/yDbWXJ0qnybmWF091GsoAQc0twVe2oMO5Pk33+XFcPuVp66odGz/J4DT5Ub9K6J1o2XK2sKMum6LFV5XpI3s86PwVBEARBEO4J99Nnz2fDwdQdtFqTmq+RcW0dOyFXFy1PXivT/CzOnruVwLJAt10MC2wbrOZsnfKsF9QC10ItfA9CihJ7B3KbcOIv0trH4/vYaTOGU94Isyg/kV/+iYPf/to/+TWPP/5fMNHuegAAIABJREFUTj/+D7lfQnH5PcVlP+njX9n4+69D986QYHtSaBtR7gkQ8p8SUD+Pt5CYdfmxXCQvuNvHUFkYsvBPkZ5E+zJGmUfPj84wAh9RYern0Pa3L/bJGla3GbT/zrAAHDMwvwLGmX9JfZ+UnnhP2vl5G3SqfOiGLe/wYWuFNms8OTpizg9dPtKPTiMUuSu7yvyPK7zrrPEkMWiWsqzJH4WUQktrzG9t0coekR/HP/QEzK3usTwkTTmXvkVn0YIgCIIgCA+QB2nZ02qp/S+uY6MPOL1xcWwb1+2df+/k1XYcwyDv2D0fN7g4ttPzneK2aGl5/pDXuvJtJ26vTYtW1yeOiZ4xfRkGRt5Bt4dszEoqPxUu5dVe+1zHZjVoX7ccZd1j27O16gnIlYDjeKue9qKydgC1KB7X6mF5od/PTvtCKXDsNHJmUH4XLU8eiBrf5H77ihf8BbvtW+t8/F9OP/6e5SH+eeJxcF0NLWo2NCa5EhDeRrSonAZv7Peu1Y/BvvS3Hc2YgfJRSpU34fF7B+2F2Zedmgs1B9aHKChAOegdtaUrzOmlcj58EjpeXPby37n2z5JgfoW3TYafz1uefwHDxi9ufn4WsqvklxrKkmdlF7Z9PzWNXU5Xtni31e+zJ+Bq17eAOXsa8mvT4KoBdH7k08hCO3zYUmHf5/srw+PtNT7trtAaz6hohjS4amR5NKnhjmMqq9mJHN4JgiAIgiA8HDKe53mzEPTzzz93f//qq69mIXIyXAdz1XdKrBnUDDDLDlq5SdPSVKhsy8K1Q/eEQ4yH86Nh1Cwwe+HPXVtHLytNimaUsTQHs0xfuHPXMVk1fSVNVD4ujrmKGWh0NA0tb1Gt+du1EsofRTf0es3AMctDyu/eTMaEmjeLqGGDtI9h4yIUlSd83fd1EoRltt/2QhvbMb42oqHUK/vwJlDSLMKLkloshmUXN5VlURDKOi7c8qTlB9h6BtfyBqNmffxf7FPfV88vf4e1/IpiRNlTP/0vbH+Vmfv//tZv3TNh+PVoaO8DfzH77HhECPBQ6GtgMLw5asvSqC0xMys/puyA6HjGpicpDCYNvU6vD6Kh17shuSOy4+ZTcG3i9hfi70k7PrdF+1g9U23oez4DYtsf13/0X5unF4EpLn3zOeyPGD/SzM9b6d8Gra0OjwMFTdgyB7iubqnoVEvbLG9HzGsau92tXfPb/dY3Kl+W/NE2850q77bOmI9G8wI/6teQtIFylpS8oN4ruxP49AnLiOeqWuXRqt8fnSrvDrM8ibY9Jd2/g2MGGBAEQRAEQXhoPDxlTwK2rsM9Cid+Yzgmesui+cV3xBQ4JhnH6HMCPhuxGRwjRokkCMIDIKLsQVnpBJY0c2t7I/zRhBwqdy8pxcxgvp5yZn5bRfl6t3XI9UAo8yH4oeCvyQ6GgJ813bKAqcpzsXUdx2jK3zZBEARBEL54vihlj61nKAd7olJYyjxE1FfP4Ey+fk7LzJWHE1r1CIJw/wiseKJWOmPl/3Ft0ALoS8W10XUX64YsVgVBEARBEO4TX5SyRxAEQRAEQRAEQRAE4aHzIB00P0hcuz9k+8BhIu4oBUEQBEEQBEEQBEEQyx5BEARBEMbiamTEriFOmTsdrrPZdCHVfV9Ek25xA3+b29nTnvPrToe5bM8Z0FWjwfxSILzDh60t2tkYx9i3xS33zzRMNP6CIAiCINwqv/jcFRAEQRAE4X7x6Oss80/3BhUNjV1Oz54OWeg3+MdK4Ig5gaVtlo+2uWqoqGABYSXD/PYec4dbtP3Q9HHOrefXes6o5zqHnG6FNRRZcntLyhl045B2dps8Z1yx9JkUFdP3z20x2fgLgiAIgnCbiLJHEARBEISxudpd4TQuYelpfIbsKk+OVvsudUPND4kS1rO86Qonf7QNu1t8yvbOH1W3+OBb7VztrnD19IjHMVUILGGudrf4tBZE/WrQ2oX8kVLytHYbzH8O656Z9M/tMfb4C4IgCIJwq4iyRxAEQRCEsYndQtTY5fQsXf5eNLEz3nWWoLrF6SEzCPXuh6evDktv8Onr7W4ZV7uHzO3t+dYoS+Sf7nK6cvbZtyLdXP/MhmnHXxAEQRCEm+V+KntcB3PVwajWMIbEp3bMDLbWpHmjccUdzIyJM04Yd8ck48c+18o3Xb/EysTXP0X/Tkt9HyqLcFC6n/I/N3elffYG1Bfh5GXyvfV9sM8h91zVu30MG2/9xAKcbPbfB5ArgLUJOSL3R3jxEtYXpyvfIlTuc3XeTV+EkxI82w8JXISDl6puAJwnpCdxARs70A5fWwTrGygujmh/qP8rO/DmIuYev3/tDajH5INIv0/Q/mnHp0eD1souV9k1lvdWB1Kvq7v846zBdSfL3Nr2wLadpPxJROff+iKcLoBViE8P5mfQ931tDebEIrxgdPpBYfT4Js3fg8Xb6f8w01h2XO2u8OHrPZa3s9BQ2oG51T2WVzt82FrhtJO9MaXGdbXDo9UlAj8912tH5EPlXHc6zK895cPKCi3Gq0fy/EzHTfTPdafBp8YZH84a8HRwy9skdRx//Kd7PgVBEARBGANvRnz8+LF73ArNmmdomldu3k5xw6l5hlYeO1ezrHnahJUva4ZXmyhnHEPqP0X/vvnO806mr9hn477X/7Ypf5f+3pNXnvci3L8/qfO+9Fee9z44f+t5xe/U+fu3nvfibe++8g/q9zffed6bn2ZXflRWtH1x94yTPpIfPK/4KnT+U399w30QTg8zMH9/Un06IDOmntO0fxbjE9D+9rlX//ZwMOHsz9754Y995+7ZGPkTGGjbT6r+QVtGzU/vJ8978aK/r/vmW1K6lzy+o+bvrfR/iH/9+Xls3w8bk3B6/Xkkb3Rc1UXPff68d/3HM+9fhyrvyOPPZ96//vxn71+e5/3n8NuBctT5mdc+PPPa337rtX9UbQnLOD/80fvX4aH3n5E9EN+2NPMzScZE/TNNPSdg4vH3Jn8+BUEQBEEYj/tp2QOgGdSaxuD1RMsZF9tcpey4vhgNWgbNtJY5roO5aqKyaxg1a0Q6aEaZas0itYHMqPyuja6XcQEymW4Wo+ZRM1LkT1P/gGH9O4qwZcIG2P7l4mbvq3jY+iH4Qh0QfKnOFdR9bVCWDS+hGJEffKnuft0OrBRmJH9o/UcQyA/uH/Ylfmj5PpV9eBOyHOBSWVAk9V+AvQP1C192Aey3/ZYaI8u/APu1n59+y4W49OJmcr9EKRZUGwfyXkAl3FagWPKvn4NVgoMYeesprIpSlX8XCcbw2O+LEPaOGruDIe1vH6s5fFCCg1Bb2+8gV1JjvvFuHIuP0eRmND5dsoNWB1dnHebXQtezX/PpsAFxfkti8o/kAiooC5kui6H6J83PBaAAxUtlPVX05YWf7cT0EMPGd9j8vfn+96NV+c6Q59fW+BRYdixt8+TrQ+VbBoCQxcdSEN0qFO3qaLtP8nWnwyBL5I/2uAr8KWezfOKp2ja07fvsWduG3UMe7QU+e/bIZzt8OIRHIxu3xK/Y4h9Pt3mSBbaPWAZo7PKus+ZbvIxvdTLW/Bxgyv65caYd/wjjPp+CIAiCIIzN/VX2DMOo4Xng2nrsv2quvYqjWTRrBhrgOia6HXNjLMH2Jo+a0r7gmKuY9JQitu1gNT1q3QIdTNOmNkypEmFkfs2i6VnYukm+WSNOFTO6/OT6T8UiHByo7QyPXw5ZxBTg5KC3EA0TLFY2zn0FxKK/XSlY6C6qRevGZW+BmivBi3NV3kzkJ9V/BIH8in9e3ITiuapvqvJR9a777cwB7XPYOE7Xf6DqnivBSQG1CH3drxRKKr9yrBaH3dl6Afa+UviAUvQsfwOW3//1fVWPlKpSxRNYv4DKBayHLrffqfZFKRbUIntmDCn/rpJbUPMgoP0WnvkKzmH9bm/4eZ8Ppp2e9xQAuR1ol8bYanZLPMrC3NcpF4MxC+Gx8gdcAiMUX4nzc0Gdr5f8Z/bCV6we99+flJ44vrcwf+P7L8vjvZ7T46tqFfb2mM9mfSXJNstHo/o8nL9Ba/cMGg2uuunKH03vduWQeH4plH81y9VugkOYbDZB0aOYW3oKu4e0zhpc9U2hRl89pg5tHquoiWPa/rlpph3/HhM9n4IgCIIgjM3DU/YkoFkWed1EL/vnmkGtmtbfjkPLsEJ+bDQMy0ALtEqujeM4lENWNwoDB5JVKjedP6n+d4RiSSkiIGahX4DiDtR9ywTOoV6I/6I9kfxbYFT5uZJagAe+N3K+z5ZUXCiLgYNgQbqoFpb1SPuGln8B9XN4szEoehmluGoXeoqeQFbldcr6Reqw4SuOPgefu/xpCJR39s7we6wDyMUpBM+hvtBTEiwv+FYpKSzXbpP57aOpHONOm38qCuoZrqCexcrxeOlpxvem529y/zW4OjyE7CrzsWt25ZeFUYqSBswfHZGPTdvlXWdpIPIUdPjE1/wK+BRcyn6dSrnTE9HgquOHVs8+Jb8dsqLps+yZNb6vmoHrS/GOoCfqn9uq33Tj/1mfT0EQBEH4gvjilD1gUGt66lfXxf3eRl+10ztYHoWWJ6+V028Ju2v57wnBl/FiqWeJ8pCwAsuaC2VNsPEairfRxkWlXBq2LWjWZVkFqLzrXco9AV4Dke1K9XPfAuKGy4/lIuIwOYb2MVQWhitMktKTaF+qcYliJYxT3Lae+rmyEnoWUegNrdsM2j9bOlx3gPACc1bbQRZQVjZDnJ6PMz+TxiYpPfGetPP3pmicccVS30L++jBsebJE/ugIGg1glqYnHa7J8phA2dM7v47c96kzZCtXNqu2H3WWyB+t0rd9yvcrfLW7Qosh24+S6jd0fvp9cmcZo36fbfwFQRAEQRiH//O5K3Db2LqO2XVoo0EetHzst7NBDIO8Y3f94YCLYzu4vRsw8g667UxYu7T5W7T8Ql3bRM+Yfh0S8ifWf3Z88H26tI9hYyN5wTgWBWVlUjlWVj3jbrdKwzT1b/uWMu1z2NgffW+Uyk4v0g+LwILaxpOKRdUXlSAa00WMVUECywuRbWNhCpA77/nrAagfTz62uRI930GgLJEWVJ8F1+rHYF/C+g0oEgbKRylV3oTa334H7bT9fxP4/mDWR0Rdq+yEImwlcHqptiqehI4Xl738d679EebX1vq2xVwdnvHo6YwWk8H8C8//C2VhY59z6/MzYNj4xs3f20H5xMkfPeVqZYsP/nDMre2xfHTkH8oSZD6Vr5oxaJzxKbz9p9OBmO1A89ujolSp7UhBHa92VTSusGJnfvuI5adnnG5VI0qk0dzo/Lwz3PD4OyaZTKbre1EQBEEQhMl5YJY9fijx7rlOpgxgUPMCHzd5cFbJmF0PxtSqaX3WGNSqYK5mMEMOjg3TJKOD17Qw1A1kMqYvX0PLW1RrBlqK+o3Or/iDlWdVz1AO6t+sddNG50+u/yxY9rcgvIGuA+DAJ0hf6Gd83xT0tp10QwdvKuuWwBnxBv3OiNf9MNBWxHRhFvJH1T+J3BPIvQ753HiuHCRvEAllPap94RDekW1co9pXRFk52TvwLOSgOaCdov3FTWA/ZPmxqJRNgZNm6xvlt8cOOWgu7sOzneTw692Q1edQ97eqWCW1YA4Iyt8IfM4URoQ3P1d9EbQ9iTTl50pghdqfK4ScG0fKfhOSXdxMkZ7ERU85GO5/6xvVvvD4PYuE2A6e3G7odd/BeDfkdsj5eH2jd707nzbgw0v1XE3c/ph7xhmfVGRXecwupyvKK+3c2h5PZriWLm7674lAwbsIL0o9Zc7Q+Rnq32dB/9Lv8H0fuBqRfvUc9keMb5r5e+P9jwotfr22x2Ng/ijrhwGHubW1MSU1aK2sDE2Nk3d1Bo+fHvrjn2WeH5lbm3wf8tXuCldPh2w1W9rmSWeLf1SX0m/rmun8HL9/krjaXaHVdejs+yYaMwT67MY/HsdxAI2yNSNfgoIgCILwBZPxPM+bhaCff/65+/tXX301C5GCMBzf8XFcNCqhR/3Y9w0i/SQIwlQoPyyf1vZilR/X1a1QNKYw8T5fWitnzMf5qgFo7HJ69rR/G1VjlxbbvmKmw3X1kH+wxpOlBu+2DrkmS25PWfT0lBq9a0EdP2T3lIxOlQ+dVR4v9StB5oa073aZoH9upU6zGv9huNi6jmPERVIVBEEQBGFcRNkj3Cu6X7d9upYLQpeudQcxodMFQRC+UK47HeYk5PfdxbXRdRfLi482KgiCIAjCeIiyRxAEQRAEQRAEQRAE4QHxxTloHopro2cyyjFg7BH2tSMIgiAIgiAIgiAIgnA3EcseQRAEQRAEQRAEQRCEB4RY9giCIAiCIAiCIAiCIDwgRNkjCIIgCIIgCIIgCILwgBBljyAIgiAIgiAIgiAIwgPiF5+7AuMSDisdUHwOVgk4h2f7/WnR0NPR0N0AFOBksye7L5x3IHMRTl6CvQH1IJ9/rUtC+e1j2HirrgdldNvj12EU4fwD9VmEg0IoPYx/77Tlx2HrOlSbWFrooutgrjoY1RqGFp/PMTPYWpOmNeQGdRdmxsTRynhNK51810ZfhWrTYpRkQRAEQRAEQRAEQXio3EsHzfYGLB9A0T+v7AMlpbxoH4MNHJRUWn0fKou984DofQBcwMYOUICDzVD+S1h/2SuPC9h4DesL8KEUUgzFyB0o/xw2LiPn573ykmgfQ2UBrEJIPv0Kpb52+XU9CJRSU5bfh2OScQy8mjGY5jqYqzZaVBE0fiGYeotaWNmTIN8xMziGR1y1BEEQBEEQBEEQBOGh8yC2cS0vQvsyPq1YAi7i02IpQPHSt5a5UIqUYuSW9jvIlaBYgPq70eIGyi/A+kXPusg+hvVJFC0oq5wKSlGTi0m3d1AWP2HroxmWb9sOhjFEo6IZ1Joxih7H7Iaz1213MJ/rYOpBuHsdc1i8+2HyAcMq07JtYqQLgiAIgiAIgiAIwoPnQSh7Ts8htxCTcAGV12or1Tisl6ByDPXj+Lyn57BeAAqQO4f2MEFDyi9uAsdKGZP7ZlCZlAZ7B+qFeIuc9lt4Ft5uFmEW5YOD6xoM0/UMxajheR7Ncpy5T7A9y8PzPDyviuHYDNP3DEXLk3cdvhdtjyAIgiAIgiAIgvAFcm+VPfaGUmg824B2dCuVr+x4tqPSrDGVPYESp3IZk/cc6gs9S5rlBahEfAClKd8qKTnheqelvq/qWLyAjePB9NxzODkYrcSZpnwA3BYtID9h9lgch5ZhhfzwaBiWMYHvHQNNc3Fbs6ycIAiCIAiCIAiCINwP7p2D5gBrhDIj91z5pGmfq21K9cL41ivWy/jr9XMl99lG5P6QQmcW5Y+iuBkqbwfqpXj5w9ogCIIgCIIgCIIgCMLD5d5a9qQhV1BKEXs/+d60nF7CwYGynAmOF5fxW6Zuovwo6yXfQfUIKjvDt3RNjJYnD8zUeMYwyDs2Tnf7lYtjOxP43nFwXQ1tmNlR4DdoqEMgQRAEQRAEQRAEQbi/3LtoXNHQ67Fh0qEvLHplB96gzoeGXi+pSFyB/50XL2Gd/mvzwFWk3HAo9hdr8OZwdPlBxK+wn58+S50RxIVeB78Oo0KvE7KEmqL8KLaewbXGiXrlh1IfuG5Q82oY4EfZMn2Fj4ZRs8CMCb8+ioTw646ZwXQ0ykMcPAuCIAiCIAiCIAjCfebeKXuEO8So0OufkdGh111sXccxmjRF0yMIgiAIgiAIgiA8QETZI0yFretQvUMWMglWPbg2uu5iBZZEgiAIgiAIgiAIgvDAEGWPIAiCIAiCIAiCIAjCA+JBO2gWBEEQBEEQBEEQBEH40hBljyAIgiAIgiAIgiAIwgNClD2CIAiCIAiCIAiCIAgPCFH2CIIgCIIgCIIgCIIgPCBE2SMIgiAIgiAIgiAIgvCA+MXnrsA41PfBPle/556DBWy89RMXwVpQ6bnncFCC9nEovQAnm/0yuvhpseUUwNqEXIryDwqh8zCLcPIyuX199fXz2BtQTyk/nP/FS1hfhMoOvLkYbONIXAdz1cGo1jA+U0h1x8xga02aI2O6O5gZE0cr4zWtW6vbbZCu/XeUGc4fW9eh2qSvG+7A/EziwY6fa6OvQrVpMW7Lkt6fwTuysg9vQu9fLuHg5aCMLpF3+6j3fyC/fgntCyW/CFBS78uRnMOz/ci1RbC+geJipLwIL17C+uVg/vDfl6H5Y97vcemCIAiCIAiC0Ic3Iz5+/Ng9bpKTV5735qf+a+Xv+tNffOd5J8GFn9R5lPdvPe/F23j54evvf/C84ouevKTyB+QOKX8Y7996XvmHSH1eed77tPJ/iKT/oPKPTbPmGZrmlZsT5L1Vap6hlT93JYQos5g/NcPDqN2cfGE4I/q3ZuANG5Yk0rw/y5H379jv7xHv/5NX/e9X7ydVfrROw4i+n9//4HnF7wbrFC7nTUh+tN4Df28S3u/T/n0RBEEQBEEQvhwe5DauYkF9vR2bC6igvgoH5Apw8Bwqx+OLs3dQFjkTfnWt7Pj18b/8ppJfgPWL3tdv+xjW01r0hNEMas2IRQWor/56hkxGHbpp4/bfgK3rfrqO6TiYmQwZ3U5XrmP2ZNvuYHpf+TqmE06z0f28phOWpRMnarDoTH/Zobp065/Q/kCGbrs4tqnqo5v0qulim3oov44e7puk9kfz63ZXtmvrvkyz2w/9ZY8mXf7h5fcxbP6MgW07GIYRnxgjX8bvdsbPsMq07OhzPzva/gH++3fM9+fQ9/8FVC7BKoSuLYL1MoVVzwhyC/7PUv/fjoD1EfKLJVWvOJL+fkz790UQBEEQBEF42DxIZQ9PYB2oDPkneiiXQMw/5cE/82lpv4VnwfarCbF3oF5Qip5x5Rc3gWMlI/eNv01hRti2g9X08Dx1NK08ttlb7Npqj4efXsVw7PG2WRk1JbccpyUItpd4/fKDZM2i2SyjBRtM8hoaGkYtndLBqKlytbK//cao4dUMNKPWrX9S+42ah1czcMur2K5BtenhVQ3y/srYtVdxNIumn79q5PsXzSPb7/ev1eyVX83j6GrhrVlNmmUNt0W3jrV8CzuNpitl/lHlzxYH1zUYpuuJQ8bvlsZPy5N3Hb6/AW1PruQrqzfUO25jX223Goth7/9LoBBz/5jU91XdgvoVYxQ8qbiAymt/q1qIpPf7LP6+CIIgCIIgCA+fh6nsQf0DXn/d+0KchvblbMrOPYeTg8mVLPV9oADFC9iIsShKI98qQX1hui/WA7g2juP0rAYCywHHVQoX18bBCClWNAzLGNu3x1Ach5ZhhfyIxMjXLJpNi5aZIaM7GM0mtTEUBppVJe/0Fr+23cKwfAFJ7Q/LKVdp1gw0DdD8n4BmWeSdnuXFqg21akpFmGvj5K1+xZVmYOT7F96G1fO1Yhj59I1Pyp+y/JngtmgB49Zexu82xs9A01zc1thVS0VxEw4O1DvOKsDG6wlkpHj/BwqlZxsxvngS6nfi1+/kJbRfj/dhIVDWPNuBdiliaUTy+33avy+CIAiCIAjCl8H9V/ZcDPmHflH9E115l15U7gmxJvX18xHWPcPKR20PmITiplLWrG9C8Xz4F9xJ5U+MlievlbtWAb2jxhj6lBvHbTm4aGgauK1xtRAaltHC9reB9S2OZ9J+g1pgWdJsUjXAXE25xU1IgYzfvWLE+xN8B8oXE1ixxL3/F+h7v1shhdKLSa1zFmG9MN6HgkBZc7CpnC5P+n6/9fe/IAiCIAiCcK+4d8qe3CK8CVm7tN9Be4giJlcCzsew7llU5v9ha5r6MdiX6h/6ccsPqOxMbnK/Xkr2PzSN/PFQVgC6PcSLiGZh4IT847g4tjO7LT6GQd6xcUbId20d3YZas0mzaYGtD/GdMhzNssC2+61CVAVGtz8Ftq5jBg3QNMiDlk9pvaFZGC273/+Q6+C0DP5wG0GfbrN8LU8emMR4RMbvpst3cF0NbXyjo8T3p70BlXC0rQtoFyazYhl4/y9C8TIiH/gwgexw/SpDInAlkSsoRZM95ft9ID3wG2VOPs8FQRAEQRCEB8CsPD3fVjQuz1MRTIov1BGOVNV3PYhYEoqWEr2ne0SiVb0ZIj+p/PdvY2S/6I/mNYq+/KE6l/3zVPJ/8rwXkbS+6DNT0/RqhuYB6tA0TzNqXjOUXtaCdM0zauNEy6p5RiC37zC8bvCfZs0zNPrlg4dW9prlXr2MmqeiOfnn2phhm5plbUgkqFHtj69/WExZMzyjL7/h1bpVS9F+r+mVQ/k1rdxNm7b96fIPL3/WlLXJoz7J+A3LP4Pxa5Y9TSt7kwZCG/b+9Dz1riu/6n8PngzJG31/p3n/e17/+32s9+MP8e/eaPTDoe/mH/rb1a3Pd+ne72n/vtQM9W6USHWCIAiCIAhfNhnP87xZKI1+/vnn7u9fffXVLER+NurHYEe+1hY3B30rCGlwMPUWtbQOmgUhwDHJOAbeOE6XhBvHMTM4hjeWLyzhtlDREB3Dd1IuCIIgCIIgfLGIske4MRwz0wuNPk5ELkHwsXUdqtOFcBdmiGujAu5Zs3O8LswO10bXXaw75kdNEARBEARBuH1E2SMIgiAIgiAIgiAIgvCAuHcOmoV7imv3h7weOMyB8NcPqvzPzZfe/vuOjJ8gCIIgCIIgCGMglj2CIAiCIAiCIAiCIAgPCLHsEQRBEARBEARBEARBeECIskcQBEEQBEEQBEEQBOEBIcoeQRAEQRAEQRAEQRCEB8QvPncFxqF9DBtv/ZNFOHkJ9gbU/fODQig9jH9vOP+Ll7C+CJUdeHMBFOBkM2VFXAdz1cGo1jCGxB92zAy21qQ5Mma0g5kxcR5aWPIU/ZOW2NDbM5R/I4yq3xShq+v7YJ+r33PPwWLweQCo7MOb4L4CcAkHLwdldPHnfpCWew4HpcjzFno+KvtQv4T2hZJfBCip52kk5/BsP3JtEaxvoLgYKS/Ci5ewfjmYP1cAaxNyjMgf8/zHpQuCIAiCIAhJ1pb1AAAgAElEQVSCIDwYvBnx8ePH7nGTvH/reeUfeucnrzzvxSvPex9Kf/E2lOEnz3vxXej8h0j6Dyr/2DRrnqFpXrk5Qd4+ap6hlacVcveYRf/UDA+jdnPyb5IR9asZeMOalcTJK89781P/tXJofr9/63nl0Px+/0Nk/ofu63sOQvJffOd5J8GFyPNz8qr/+fN+UuVH6zSM6PP7/gfPK343WKdwOW9C8qP1PnnVf570/Ce+HwRBEARBEARBEB4A93obV2UHKsCB/2U/ir2DsvgJf7UvwPpFz7rBPob1tBY9YTSDWjNicQLgmN1wyLrtDuZzHUw9CJesY4bjJYfCK5tOWJZOnKhB2UH+3v2urSsZuh1TfgbdtOkT7dj99bP7Azo7Zq9tjm2q8vSYsM/D+mcMbNvBMIz4xDj596T9hlWmZUfKnSFt/wBl+XIwptVKsaCsdwa4gMolWIXQtUWwXqaw6hlBbsH/WVIWRVHWR8gvllS94oh9/sdIFwRBEARBEARBuK/cW2WPvQP1glL0RGm/hWfB9q4YipvAsZKR+8bfhjIrjBqe59Esx2k5gu09Hp7n4XlVDMfuKQo0i2azjBZs8MlraGgYtZRKE82iWTPQytXu/ZpVpawZ1PxtYrbtYDWD8j2aVh7btEP1/wNWt35NDNfsU0gZNQ+vZuCWV7Fdg2rTw6sa5GeuuXBwXYNhup5Y7kv7tTx51+H7G9D25Eq+MnNDPQMb+2q71Vg8gXWgEs13CRRi7h+T+r6qW1C/YoyCJxUXUHntb1ULkfT8J6ULgiAIgiAIgiDcd+6lsqe+DxSgeAEbx4PpuedwcjBaiWOVoL4wnUXC2DgOLcMK+XHRMCyj33eLZtFsWrTMDBndwWg2qY2j8DCsfgWSY+MYFgaAa+M4Ttd6KBNYpThu7373e+zVXrrdii9GK1eVYkUDNP/nLHFbtID8uPnuRfsNNM3FHSJ7WoqbcHCgngGrABuvJ5BRgvrrnoVQHIFC6dlGjC+ehPqd+PU7eQnt1zGKpREEyppnO9AuRSyNSH7+07wfBEEQBEEQBEEQ7jP3UtlT3FTKmvVNKJ4P/0Jv3dPtGW7LwUVD08BtjWv+oWFZYNsu4GLbYHXNXPLktXLXqqV31JQyBAdTd9CsZjeteic9II/iC2v/xWiFTM5Xio5txbKolCiVd6FrC/RtmbJCCqUXk1rnLMJ6AdqX6bMEypqDTeV0edLn/76+HwRBEARBEARBEJK4l8qeMOulIf5FQlR27siWDcMg79g4Xf2Ni2M7fb5bXFtHt6HWbNJsWmDr8b5/RpajrFtsO2TVohIw8g66PeBhxi+8RUvL84e8UnC4jo3t3JRnmQS0PHlgIuOXO99+B9fV0MY2W4LcIrwJWbO130F7oXdub0AlHG3rAtqFyaxYciXgPKRMWoTiZUQ+8GEC2eH6VYZE4EoiV1CKJnvK538gPfCVZQ6ZJ4IgCIIgCIIgCHecjOd53iwE/fzzz93fv/rqq1mIHCAu9Dr44ddHhV5HWSEUAS5gY6ffGqK4ObgVZDL8UOoD1w1qgfWI62Cumr7CR8OoWWCq8OtNw0EvK+WCUfOoYXYXnFo5KYx7tComGZNeuV1cHHMVM1BiaBpa3qJaU9vJXFvv1kEzyliag1mGcrOpfo9pn1HzxttqlhJbz+BaE8q+y+2fIvw6REKwh0KPg3oWKEA9UMj4DpSLMXm7REKvQy/8Oufw7Lg/NHk4tDuM8fzEhV4PlzXknu6zG04Lh5rfgTckP/+5EaHdrdC2LsfMYDqaP+Yp2iUIgiAIgiAIgnDHuFfKHmEMHBO9ZY2nILprOCYZx8CbRNtzh9vvmBkc42YUZMK0uNi6jmOMqVwVBEEQBEEQBEG4Q4iy54GhrBKCs/tvnWDrOlTTt+HOt39Kqx7hhnFtdN3FGrAIEwRBEARBEARBuD+IskcQBEEQBEEQBEEQBOEBce8dNH8xuHZ/yPCBI85XkCAIgiAIgiAIgiAIXxpi2SMIgiAIgiAIgiAIgvCAEMseQRAEQRAEQRAEQRCEB4QoewRBEARBEARBEARBEB4QouwRBEEQBEEQBEEQBEF4QPzic1dgHNrHsPHWP1mEk5dgb0DdPz8ohNLD+PeG8794CeuLUNmBNxdAAU42U1bEdTBXHYxqDWNI/GzHzGBrTZoj4347mBkTRyvjNa2Uhd8P0rVfiCXF/EpLbOj6Gcq/KWT+TMGo8XVt9FWoNi3G7dn6Ptjn6vfcc7AYfB8DVPbhTXBfAbiEg5eDMrr4794gLfccDkqR933o/VzZh/oltC+U/CJASb3PR3IOz/Yj1xbB+gaKi5HyIrx4CeuXg/lzBbA2IceI/DF/f+LSBUEQBEEQBGGmeDPi48eP3eMmef/W88o/9M5PXnnei1ee9z6U/uJtKMNPnvfiu9D5D5H0H1T+sWnWPEPTvHJzgrx91DxDK08rRBiDsmZ4tc+YPxWzmF81w8MYUtOZzd8vj/s+f2oG3rBpkcTJK89781P/tXLo/fr+reeVQ+/X9z9E3r+h+/rewyH5L77zvJPgQuT9ffKq//3v/aTKj9ZpGNG/H+9/8Lzid4N1CpfzJiQ/Wu+TV/3nSX9/Ev8+CYIgCIIgCMKMuNfbuCo7UAEO/C+rUewdlMVP+KtpAdYvel+X7WNYT2vRE0YzqDUjFhMAjtkNh67b7mA+18HUg3DpOmY4XnoovLrphGXpxImK4piZ/rJDdcnodkz5GXTTxo2Rodsujm2q+ujhsO4utqmH8uvogew07Y/m1+2ubNfWfZlmL8y8Pm5I+RH18/u37DqYobD1fWPg2P3jY4cSE/IH9Q/Ow32Zqn5hhs2vMbBtB8Mw4hNj5Mv8SajfA5k/hlWmZfeP2yxp+wcoy5eDMa1WigVlvTPABVQuwSqEri2C9TKFVc8Icgv+z5KyKIqyPkJ+saTqFUfs358x0gVBEARBEARhGu6tssfegXpBKXqitN/Cs2B7VwzFTeBYych9428DmBVGDc/zaJbjVunB9goPz/PwvCqG01usolk0m2W0YINFXkNDw6ilW/QbNVWuVva3vxg1vJqBZtS628Rs28FqBuV7NK38/9/evcO2je35A/8a+FdJMVuMmxhMtMUtQgqYJi5WLuwp/rfYLRIBoaQucbkZRLuNqhmAJDBVhF3MNZBM6biTyABOirtYbGO7sIqJix2A5AB3isjmJEU8wJ0BxmnPFiQlkuJLj7yU7wcQEvNxeEgePvTTecBoGLE0hKnC0ZswHBV9W0D0VcjBN0PHaMJSNNjB+n1Vjn9pzN1/wKg2Ac0eb78vw6r6XzwVzYatK3BcjPJoyi6MMpEulMhfMF1XVJhifAzMaDxEvQ1tdH5sqE5j/GW+YP0w/8ljWTp/C2XBcVRkxXrSsPx8IuVHkSE7Fp68hYJXuRkE07f9e/D2I7+51VRuAHcA7CXXewVgPWX5KR0+8vMW5m8rJcBTyktg7/ugqVpE0fOnaD4RERER0SJ8lMGew0cA1oGtl8D2s8n5lVvAwW5+EEe7CRxeme8X4alZFlxVi/SjoUDV1HjfGYoG29bgNlawUrWg2jbMKb6wK1ofsjX+1d4wXKhakIBjwLKsca2HsOaD5UzUflD0PmxThaIAUIJ/ASiaBtka15xoGoDZL9nfkGPAkrV44EpRocrxL56qNu5rRFXl8js/b/4AwHkCozk+PoY71ebffv7Kcly4AKY7eiw/n0b5UaEoDpwF5y20dQ/Y3fXvwdo6sP39DGncBA6/H9cQShMGlL7cTumLpyB/B0H+Dr4Fht+nBJZyhMGaL78BhjcTNY1Q/Pwp83wiIiIiIprXRxns2brnB2vu3AO2nmf/Qqp9pNXjHdeCAwWKAjjutD+/K9BUF0bQDCz25ViRISv6qEbB+GOifDxJhRnW7LBt9FWg0UxpRvLezJM/C42qBSVSc6S/8B6MP/Tjx/LD8jOFl/kBmUoQlJ+6FsuaH0TZO4lMu4JYkyktElC6O2vtnDXgzjowfFV+lTBYs3vP73R51ufPx/p8IiIiIqKPw0cZ7Im6czOjf4eIvW8+kCrzqgrZMmCN4jcOLMOKNcNwjCqqBmDaNmxbA4xqRt8l2RRNAwwjXivDzwBU2ULVmK4XkyijWkUj3AFFAWRAkUvWnlA0qK4R73/IsWC5Km4v6Dtxufy5cEfNihqorjT8c+C4cBUZt2UlyJoBw0o79hnrh3ODmY5loNqIH+u5jt80FBkygFkqb7D8LHv5seA4CpQZil1lDXgcqU05PAGGVyL52wb2oqNtvQSG67PVYqncBPA8EkxaA7ZeJdIHcDpD2tH87WWMwFWksu4Hmow5nz8fzPOJiIiIiJbLonp6fhejcb14KsTW3eATGcFED/6OzU98YqO7JObFRneZiylUQGDiExl9xzaFqoTTFaGawTqKLmxdGa2jmsIfTSn4W5ly2CRbVzJGYrKFqY63A0URimoKOyf/0WR0RRVqbH1VmKOsldh/YQs9sr6i6KN5i9j//PwF2zFVoWTMj+ZBUXVh6ooA4qMa5a0fO7+KKkxdjeW/TP4WRVdmH3WJ5WeJy4+tC0XRxazF7uDh+N4ZHQlRCP9erD+M36cPMtYdfR6mpBuOWPVD/F4vhBCPH854//4h/dmQHJ0x89nxQ3y/Rvn5utzzp9TziYiIiIhoQVaEEGLuiBGA33//ffT/zz77bBFJEtE8rAZWLHWik1/6tFmNFViqmKovMCIiIiIi+rgw2EO0xIxqFejPN4Q7LRHHQLUJ9G0NLBJERERERMuLwR4iIiIiIiIioiXy0XfQ/MlwjPiQ1xOfxsTw10vlU99/mg/LDxERERERfUJYs4eIiIiIiHIM4LY9XNtp4jIGOO97OO31cAEAqGG1swG5Vhstfd6t4/TqDm40pUQyXRx1AXm/g9Uy05M8DxeShMszzj/v1uGig81OLWOJj5WHC0/CZal4SQy6OOpdxY2dZspxGsBt9/DG84JzmyShsrODa2W2k+G8W8f5xj7krFOQm7+4i34bJz2puNxEtp12/i/6bZwcb5TaJtHH5P+97wwQEREREdGHrAa508dJu4/rOxLOj4Hr+/vBF+MB3HoPpzu1URDg0lUJl6RkRMDDaW8AAHDr9dHUy60OVo+D6d0BNjsSTtttDNGa/PLt9XDSHuRnVUpZbzwTlVb4RX8At97FedZycwY13rVfu3WceCUWrHWw2fFwOgAupwZcNnB9P+X4eX2cdIHPZzkmXh8n7TNc2+8AqGE12O7FYIBfj7sYRk9prYPNDnDuoVTw6nKrVSrQA6+P0wGAWhgk8gBIqHQ2cN7zAJzhjdfHT+0giFkLg0IDnHeP4Q4GWO3s4HKvjaHnb/dSr7c05YeWE4M9RERERESUT2rixg4ApARbpA18Lnk4bbdxvrGD6ymrX/S7uGjtY7MWr91x3m3jTWcfmxL8Wh11D5Wd4O80teyaOX66ZWtn1CDv75da8uNQK6jhMsBpX8K1oLbVOw9E1DawCsSDI14PFxv72OxMLl4qgJPhYjAAarVIORjA7QYBykEXJ14Hm/vAhQf82hsEgUu/9to4iDnKOLABbHY68bKKAdzjMLDo4bQ7wOedyP8Z6KEPAIM9RERERESUIR4kiE536z1c3mlFptX85frxJS/6bfyEDm6gC7cLnA8ADOo4GiVVxzD8v9Ra7BflQRdH3UiAKtxWTtDo4zaAWz/GaiLwc9HvYdjzcCHlNKEC/NpT9V76PKmVPv0tO+/W4WZW6GrjKC27kRpe591jrO50/CBObQOXuh6AGt706ji/uoNrAIAarm108WtKjaLVWsYBSxyrYfh/qYXPS+8d0dvz7oM9cwz9O3wGbD9NmbEGHHwLHD4CjOdA5RawezOx/DpwcM//794j4PAVMHwJVNaBLQC4CdxZG6cRE6xblP7uWn7+ysjb/lv3Etj+BuOHLQCsAdq/AltrAJ4DXz5KrBOdX8hCI9oRrqJD2Np4bmMFDSucZaOPJqq6M1rWVq3x3zEKdDscXtyB1WiiYfnLKaqOvlm+rEXzMKKaEKY6mqfoNmxNgWNUx/kJlknbvqZYsGQbJhpYSSQezV8svdhCOoR9G0a1Ct2J7isAK0gz7/gEx7ko/7ZilDi+Zf0XjL2vcFh5iIPNf47NOTz6M4zhzwCASuUhtM1/RqVMkgXls+j+AAB73wCPX6YsE1xjxjZwmLIeEL82K7cADZHtrQEHNxPXxxqw+y1G+5aZPwB3v/XvP8VyypdsoFrV4QBQTRErb6opYKr519+oLEVMXj8OjEYT+mj7KuAqsG2toPzmzJ+pfM3HalRHxxBQoJo2TBWYPL4mbH9GiTRX0LDK7ktwLkb3jfJi5XDdLzdHVwBtPX2+di8og8n7d6J8Fs5H/vVRVL43T+Z/Pi7Kx3z+HaOBpmXBcRQoeh92YmPRfVNUE31TjT3/itYvmr8IVmMFhmK/lbTnTX/W6yt8tsTu5eE1tQbcRf783fX53m8z3z8xzfMFGDVrklrY3GlGptfwOdo46raw2ZFwPoi0FZI28LmEjP5dQh7eSB3cqEmAdxVvIGFzP6UqB0rWzBl0cVTPnr26kZhQ82txAB5O212gs4NrQS2kcTo1yPsbOI816xo3xUkNNgTBonGToCR//c8HGfOlFjZ3an6TNS/R7CcMUE2cC99pux3sR9oRqEHeB9x6G2/CNL0+fupJkPd3imvMZDWDC5pxpQrmXc/r8yZ63up1ADVUWv6xPUpZfLUzDkqtdvaxmZgfHvfLLT+oda2ZHcFa7bRw2q7jKHIaRnkZJIJFvTDwWFRTCpFjNVmzZ1LW9UX0FokF+e2330afIqYKoZqzbefFUyHuPo1M+EWIu1+P/zx46P99kDNf/yG+vv61EI9/KdhOyfSL8ldW1vbfuh+E2HoY+fuX+P6+eBo/fi9+EGJr2v2zdaEoujBVReh2fNbkNFOoih6spgglmBktQ7oyXsdUIRTVFGESpq4IKLpIbKZEFsfbSuZPUVRhjhcUSpC/cf4j69m20JVxXuPp2n5+I9uZ2G40fVsXCvz9y8pP7voF+S9zfMv5m3j89P+Lxy++E3cP/xqf9eKe2Hr6nXjx9+Dvv/9VHLyYIukS5bPo+nscvX7DZdLSfDh5X0ibpn9dvEwyb9H70OOU+0+WMuUrdm81VYHkzTbn+itTPtXo32a8fOWVv8WVr3x6tHynsXWhKGrqPWFi/5LHs3DbZfbF9pcz9di1XMZE2frFLz9hWTp46Jfl8JI6eOrfn1/kpVG0jaSM66NM+V7U8zHPMp9/Yarx68tUJ693RRejW4RtCtOcbv3c+UturuvrFyHu3o0/S2Lvi0XzxXzvt4t4voSG92+Jw/u9lDnHwnlwLMTZsXh9diyc+z3xh0j+eyaG9x+I10KIP3r3hXOcksxZTzy/dUsc5nxS1xtl44E4fJC9wOsHOeuH277fE3+k7d8tP+95/ujdF897Z5nTotsf3r8vhmcZ6531xPPwOAf5eh7Zr9cP7ovn9zPyk3oMxsc+Pu2WcI7Dfwt2zk9cOHnnJ/XYhXkuOPYp580vJ2fi9XHk2BSc43E+H4hheFyPe6NjnZW35HlLyaT44yxIO7af/vFLHovnvV5kuTMxfJD2/7js64vo7XgvQ6+rmg7XMJD2G+80jG8w+vUxamvdr70z4SWw92r8Cw3gr69N9atHTvoF+XOMaubQz1Wj+GgMnwFfbgPbj4Dtbf//X34z/qW1aH5o71Ewb9uvKZGcH7PmH6+9Z9mLVK4UZj3GeWJB1jSoqgzrSflSoGjpv9Rp4S+pjgHD1WFHfslUNRumrMNY4LjaqgoYE9V/gu1Dg6ZE8qgo0GyB9B9vFaiaDjhuyjwLjaoBKBrsaO0LVYfqWn7tjGB76b8LZ6yfk/+i41u2/B4efYXhF/+DO/8wmavh7z9j64t/QyWc9w/A0Y9/Sd2DUnLKZ9b9YZSXZ8D2s2CZSM254QlQuelf54cns2ctqXLT/0U26U7Z+8/U5SsjmdLXX3r5dOGO7t2KOlm+fJPlb97yFc4Pi67VSJQ9x0B1ZQW6Y6ERWTda1K3GClaqOhzHQjVcpmrEMyTH8+i6jr8/KytYqTbQqK5gZaUBy2r4aVQjtaUAwDWCZYJ5iUNsNZpwNBuanHLY8rwE9pAoK2t++dHWMXq+7d4b18bZugloV4C9ZG3ROWRdH9OW72mfj5/8+QdgWS7U25H8yQpca7x1x3WhahpGtwgFsAyj9PpF84szGNn3lSoayQev1ZjqnWeSA6sRKSdVA41qFaOk5kl/EdfXOrD1KninCtLbim6jaH7EtO+3Rdff1O+fEx0rA34HzTVcDDzgI+2L5GJwjAtIqLSAn7I6Zs4chSrb5WbKqGMArqV20DuA2+4H/R9FanfUWlj1jv08eX2cIrvT4dPeAKsbZZqfSbi243cofL6xk990K7ZaCzf297GZ/Oy0cmtcrbZaeNPrT3n8JFyWJMAbjNY7Py7ev/NuF+h0xk2lajUgc9seLrX2g3M0gFuv4yj108ZJz+/BWY7VUJJwbcc/BnJN8vuT2g/S83o4CdYdDiL/z+soO/X6AgAHRviMmfdLMlHgvQR7oMiQHQtTfM+PGT71AxWZQYobwB0Ae8nmGq8ArKcsP62s9Avyp2g2hBCpnzLVjSs3gd1bwPCV/wA/2A1eNJ6Vmw/4VY1x0593sAvs/itwlGwak9zuFb/JW+gwGix65L/wlOfgiSVDUwGoGmTrydxBv1HKTyxAvT0xXVXV4IV9QW6b0GBg4v3IdQBlijd4x4HRtCCr8W/qjl71b/SpK8nQNMAwHFjG5LrF6+fkv0CZ8jv88c/Yw79Dy2iXVfnsTzj88S8Y/gYAP+Pwx+9w+Nvf8gOOBZLls/D+AL85SlaV96PnwJ11AOtA5Xn+tfFOlSxf4ZfglZUVrDQsKLF1prj+UsqnovWhOQaa4ZeEhgEnkUBh+ctQVL4UzYatj++TqiniTWAUDbYQ0BUVZmTd6CKqKSBsHYqij9OPBKsUTQOMKqrVFVSrDRiOir6mAFBh2joUx4XSF7B1oNGAH2iTXYy/DzvQDUDrB2n3VVjN8bFwjCoMaFMF50ZeAcgJCg5PkPp821r3nwmLMu/1Mevz8ZM//1nccTBWkWVYRnhNOrAMA5bj5F+LbtqPDVPMj1Jvj/dd2FCdRrxZtGr651OfrfmW1WjCUvvjc9eXEbuBzZP+gq6vOzf9d67DZ34zr6Si+TO/3xaY5v3zkgRcvpr1ZdTDr5DGQQjPw5u8YdCz1DqTgYT98Mt0ifUH3Ywv63n9unj49WwDlRoAqYlr4WhQ/TaOooEfKasJzvwueoltxUi41gJO+x7Oe8e4lBnsGODCG49mVWjQw1BqYfW4He+3aC6e3yQqmZ4k4ZJ3jF+zAh2J8+YOgDdn/sKrEoL1Bjgf5O/fRb+N06vJ4JV//H5K3cfEkPQZwawbLalkEC0trR1UauP/3+ikN2fLv76IFu/9BHugQlGc9AoNJVRu+YGKrF9EAD8Acfh9/ouosT0OWkz0RVMgL/2s/M1bsye67bCPnK20l4+s+S+BwyuTv1xtXgGOpnhx2Lo3DhYdfAsMv5/ixcMyYMlhzRsFqmwttNbNu6JqKqzmbLXT/C/DK1ipNuFo/YkXf0W3IYSZUWMHwZf0KgxXTf3SULj+jPkvU36Hv/2M4fArfLn3j/jy2XcYDr/C9o8/jxOpPMRu5a/YfvaP+HLvz9j77V+wlVIDaB5l7g/arh8YnfDcv0bCWNXmgmtFvAuqGXmRTxaQEtdffvn0+zexg/T7qoNqM14zokz5S7Oo++NcHBfQbNi2gG2b0BQn/qOEokJTgpibqkJVkhVBFOj9aM0KFZo6Dga4jgMnrH1Q1eFYjXe3b4uwgOvjbT8f5/Kxn3/V9Ptuq/o1awzHz+M74zyB0RyfN2PGd7x0FixXhRndIUWFKd5tf1+FgiDoRC3ykvMX9X6bNM31tdrZT62lAgAY9HAhxb8MX5rli+tMwZqIWYJFgwHQauJS8Odqp4NVDHDakxL9stQgbxwvMDAydrm1g828PmBqLVw6buPU28jeD8/DG2C0H7kGXRwdb2Cz08S1nQ5Wkx1Vj9LsBzVS6jiqH2O1A/yUdn66wPWOXysKnX1sbng4jQV2argsebjICvaMzlsHq1IL12oe3ngSLkkAahIuegNc9Ht4kzeU+qCLk7NWehmVmrh+tZcTUAv3txfZ3/HnpOfhjVdm7Prx/sqpfRRJmUPG515f8GtrC2G+23s3LbWPejQuLa9Tx7B5R7QZxhUAkRdTbdfvZPXwEXA6Ve2UjPQL8qdoNkRai4cP3PAVUMn6xWvN/5V3r+BXsZBlWXAsCysrsal+26I0jouy74vKbRVoPkHyzc+yLMiqWTKVshvT0FerMJ5E8i0rgDG5/YlVww6SrQaahgFLTftirMK0M1OAaYuCDOatn5H/AmXK79bmC2yFPej99hds//gn7H7xp9gylS/+BwdfhH/9F4xn+S+2RbLKZ+79AUFNuMS0w+fA8LkfAI6llVUj8GXxC/fwGbB3JSeNskqWrzxlrr9y5TNYVlWhNvxmhfFlCspfWlofwP3RMiy/dkdAkYHmEyfedG4OqikwunIdA1VDLt+J7BUAzwBkPKsqNwB8Pzn/8Hl6DYJQUfmMzp/6+sjxIT4fP+jz76/k/0gWXUWO1/aLH0cLjWr02ixavzj9bBYaVQuKaY8CMn5NpsVyEtlbmAVeX0XPnqL5hcuUeP9Mmvv68vo4aff8JlA7/qTVVhMYtAGpCUCCvAP4NX88vPFyghFSEzf2m5FAhB/VGI3WNfoi7OHCy/7SPJ0B3GMJcic+7PdFvwd0UjosrnUgH9dx0k9vnjWfWnCs0kiQdxYzFPxFv42Ts1ZktLEa5J0WTto9nHq1ePOy8JxErHbOcNTFOBDm9eEOargsSeNlpWYwilUJ3mI3H34AAAe8SURBVBlwNRnB8nAhbYxHwrraxsnxBm7spB9zf58kP2gV66A72sGyhNWaB7deR7SD7ZisDqgBXBQGezwM2/XMd79hZGSuaAfTRO/Le6rZE4z0MEOb9TR7Gf3OVG4CiFYzX/PbSyd/iTydcbsT6U+Zv3cu3P9oLZyXwNErYDMrUPPSP153soJhL4G9jOYwkyxYrj6qFRBW9dbDPmjgf5/VI1UNnCcWnLIvm4oGTdZRbVijGiuWUUXD1f1mKwumaBpg6ePaMYoGTbbiv5I5FhrV6uQIXwhGSlFdNNJmRhjJPiGmlLX+RP7fkfH18jMOj75D5Yt/mz2xovKJ6a6/o1fA7m6k5toucPfVeP3KGvA40ixyeAIMp+yzamZTlq9JxddfbHMT5dNCY6UKI9qQ3HHhqmpuLZ55y29S2CTTsQxUU3fcRdhq0zEaqK40SpdxWQGcSJNPx3Ux3WPKgd4cN21zLANNS86MZU9lDbhzJehnKvTS79vDeB6Z/2h8jR0+A4xXQbOrBSi6PmYx7fPxkz3/8Ps7RCR/aU15I7mH1TBiwaui9cukn8lx4SoybgdVnRzLiN8r5qZClXU0I/c/x7HQqKaMoDmLD+D6SlP6/fZtk5q4sb+DihTUwkANqzW/WdQ1qY+TdthXipTeT02s5khYS2QQq+Fz0vOCZk6R/lPa7UTNkRl5Eq4lh1j3+vjprJX5ZXx1o4aL48HU/fdM47RdUAMljSThEoA3OYucd+v4CSnDyktNXG9tBOcwf/2j4414LSSpiWvo4qied04GmQG6C8/DpWRfNYNjYNRsyq9ltSr1cDpR+cjvZ8ffpw7kRNMrv8ZUOG0Hcmdn9P/U0coyavYc1es4abdTapcNgpHb6nCRVass2oxriiaJUWHNz4Xc1IgCi+rpeZrRuMIRWqYdgOXFUyG27qZ/DoQ/AkH492hEg5TRoh4/jK8bHV3q4GFK+g8n56WlX5S/MvK2H01f/yHYdiQ/RfPT9n9iZIfktr8W4iAcyeGH9H0rNWpYMJIUAAGEI5aYQp2YZgtTVYJpEIqaKCemOprnf5IjrxSsX8BUkUgfo9GMovOU8fBfApHRiPxdVcf7qqhCNyPLjqaH6/ijKUHRha0rk9sO9zHt+MWmqeI/89Yvm//C41vOwWFFbD32P3f/92/jGS++E3fD6U/viYO/Z6cxoaB8lrn+Hn8dnz4apSSRdjhdT5kWuw9ERmbJuj5i95iUZcreG0JZ5StaflT/hI/P91f3iq+//8gvn/7yilAj1xcSI8HllT8hxPzlyzaFqkS2ravx8iyEsM348TEjNwBdSclfbLghW+ix+0c4L3KsVHO0H4puj/b7n/4pOI6mnrn98WFIuRZLevE0Ula/FuLxD/H5M5fPvPn/XfL6yCnfi3g+8vz713/mupFtKxnbzl2/xPz8vMWfvaauZNxvZr0HxM8PFGX8fF1I+jNeX2nPj8Q0tWC+uYj32wU8X3Kd9cTz0WhVZ7GRpuLzfJmjceUsXzxakvBHappjNK/XD+6L4VnaaEn5o3G9fpCyreiIURP5Gqf1R+9+Rl4fiNex0cmCYxqbNpmn9JG10kbjyjkOxykjY50dZ6Q9OUJX6rkKRhhLG4Xq9YNo3vzRrobhtImylRj16+wscwSw0uUmse309LKP4ete9ihko3UfxEfw+mOabInw2ZA+WiTRrFaEEEXtQUr5/fffR///7LPPcpe1Giuw1OlGkCEiIiIiovfBw2m7iwsJOB9gonlMODoSumG/O2lNaAZw612cpzSjmWzGlSHR/CvpvFvH+UZ2rYrzbhtvWpF8jZqoIbd5zwcl9RgEx3aKZC634s3ULvptnPTSqu3U4v0aZZyDzGMfNAGTE9s6lVpAN708nHfrcAcZzbAiSpebkaLjlNjXmdIYK9+Uy0FjpQnF/sD6IaOP3rsP9jgGqk2gb2tvp901ERERERF9MPxAQrIzZJrVabsNdPIDIe+U18dJF7j+joNlF57nD91ORKneS80eIiIiIiIiIiJ6O95TB81E75hjoJox7Kj/WWwnskRERKV86M+nt52/D33/iYiIPlKs2UNEREREREREtERYs4eIiIiIiIiIaIkw2ENEREREREREtEQY7CEiIiIiIiIiWiIM9hARERERERERLREGe4iIiIiIiIiIlgiDPURERERERERES4TBHiIiIiIiIiKiJcJgDxERERERERHREmGwh4iIiIiIiIhoiTDYQ0RERERERES0RBjsISIiIiIiIiJaIgz2EBEREREREREtEQZ7iIiIiIiIiIiWCIM9RERERERERERLhMEeIiIiIiIiIqIlwmAPEREREREREdESYbCHiIiIiIiIiGiJMNhDRERERERERLREGOwhIiIiIiIiIloiDPYQERERERERES0RBnuIiIiIiIiIiJYIgz1EREREREREREuEwR4iIiIiIiIioiXCYA8RERERERER0RJhsIeIiIiIiIiIaIkw2ENEREREREREtEQY7CEiIiIiIiIiWiIM9hARERERERERLREGe4iIiIiIiIiIlgiDPURERERERERES4TBHiIiIiIiIiKiJcJgDxERERERERHREmGwh4iIiIiIiIhoiTDYQ0RERERERES0RBjsISIiIiIiIiJaIv8HHocTD/5yFbUAAAAASUVORK5CYII=;" vertex="1" parent="1">
          <mxGeometry x="840" y="-350" width="1147" height="441" as="geometry" />
        </mxCell>
        <mxCell id="bkrwEYgjUg95MWWJ3bJO-20" value="&lt;span style=&quot;white-space: pre;&quot;&gt;&#x9;&lt;/span&gt;&lt;span style=&quot;white-space: pre;&quot;&gt;&#x9;&lt;/span&gt;保存出发2个动作：&lt;br&gt;&lt;span style=&quot;white-space: pre;&quot;&gt;&#x9;&lt;/span&gt;1：副本数据更新测算数据&lt;br&gt;&lt;span style=&quot;white-space: pre;&quot;&gt;&#x9;&lt;/span&gt;2:个人测算副本版本状态变更为 4，&lt;br&gt;&lt;span style=&quot;white-space: pre;&quot;&gt;&#x9;&lt;/span&gt;&amp;nbsp; &amp;nbsp;用来代表副本已失效" style="ellipse;shape=cloud;whiteSpace=wrap;html=1;align=left;" vertex="1" parent="1">
          <mxGeometry x="235" y="-380" width="230" height="130" as="geometry" />
        </mxCell>
        <mxCell id="bkrwEYgjUg95MWWJ3bJO-23" value="1" style="ellipse;whiteSpace=wrap;html=1;aspect=fixed;fillColor=#60a917;fontColor=#ffffff;strokeColor=#2D7600;" vertex="1" parent="1">
          <mxGeometry x="-190" y="-490" width="40" height="40" as="geometry" />
        </mxCell>
        <mxCell id="bkrwEYgjUg95MWWJ3bJO-24" value="N" style="ellipse;whiteSpace=wrap;html=1;aspect=fixed;fillColor=#60a917;fontColor=#ffffff;strokeColor=#2D7600;" vertex="1" parent="1">
          <mxGeometry x="100" y="-490" width="40" height="40" as="geometry" />
        </mxCell>
        <mxCell id="bkrwEYgjUg95MWWJ3bJO-25" value="N" style="ellipse;whiteSpace=wrap;html=1;aspect=fixed;fillColor=#60a917;fontColor=#ffffff;strokeColor=#2D7600;" vertex="1" parent="1">
          <mxGeometry x="454" y="-490" width="40" height="40" as="geometry" />
        </mxCell>
        <mxCell id="bkrwEYgjUg95MWWJ3bJO-26" value="1" style="ellipse;whiteSpace=wrap;html=1;aspect=fixed;fillColor=#60a917;fontColor=#ffffff;strokeColor=#2D7600;" vertex="1" parent="1">
          <mxGeometry x="100" y="-160" width="40" height="40" as="geometry" />
        </mxCell>
      </root>
    </mxGraphModel>
  </diagram>
</mxfile>
